<svg width="84" height="20" viewBox="0 0 84 20" fill="none" xmlns="http://www.w3.org/2000/svg">
<g clip-path="url(#clip0_3230_11199)">
<path d="M34.4522 13.9994V15.668L35.2452 16.542H38.7538L39.4988 15.721V14.9264H42.671V16.648L40.1236 19.4555H33.9235L32.3615 17.7074L30.7754 19.4555H25.0799L22.869 17.0188V13.9994L25.0799 11.5627H31.1599V9.89405L30.4149 9.07298H26.8102L26.0892 9.89405V10.6357H22.9651V9.12595L25.5365 6.26547H31.5684L32.8661 7.69571L34.1638 6.26547H40.0756L42.695 9.12595V13.9994H34.4522ZM34.4522 11.5627H39.5229V9.99999L38.7298 9.12595H35.2452L34.4522 9.99999V11.5627ZM31.28 14.0523H26.642L25.9931 14.7675V16.0918L26.5939 16.7539H29.718L31.28 15.0323V14.0523Z" fill="#D8D5FB"/>
<path d="M44.9789 16.7009V9.02001L47.4542 6.26547H52.2124L53.6303 7.61625V0.544495H56.8024V19.4555H53.8225V17.4161L51.9721 19.4555H47.4542L44.9789 16.7009ZM51.6837 16.4891L53.6303 14.2907V10.8475L51.9961 9.2319H49.0643L48.1511 10.2649V15.4561L49.0643 16.4891H51.6837Z" fill="#D8D5FB"/>
<path d="M59.5555 3.51092V1.81582L60.661 0.597467H62.3432L63.4487 1.81582V3.51092L62.3432 4.72928H60.661L59.5555 3.51092ZM59.916 6.26547H63.0882V19.4555H59.916V6.26547Z" fill="#D8D5FB"/>
<path d="M66.3435 0.544495H69.5157V19.4555H66.3435V0.544495Z" fill="#D8D5FB"/>
<path d="M72.2725 16.7539V9.02001L74.7478 6.26547H81.5006L83.9999 9.02001V14.0259H75.4447V15.721L76.2137 16.595H80.1308L80.8518 15.7739V15.0853H83.9759V16.8069L81.5968 19.4555H74.6997L72.2725 16.7539ZM80.8278 11.5892V10.053L80.0107 9.12595H76.2618L75.4447 10.053V11.5892H80.8278Z" fill="#D8D5FB"/>
</g>
<g clip-path="url(#clip1_3230_11199)">
<path d="M18.208 19.4555H0.728567C0.607348 19.4556 0.488027 19.4283 0.381445 19.3762C0.274863 19.3241 0.184397 19.2487 0.118264 19.157C0.0413369 19.0593 4.07129e-05 18.9424 0.000113833 18.8225V15.6138C-0.00269284 15.4777 0.0464762 15.345 0.139355 15.2378C0.232233 15.1306 0.363157 15.0556 0.510116 15.0253C0.603372 15.0077 0.699792 15.0091 0.792362 15.0294C0.884931 15.0497 0.971322 15.0884 1.04525 15.1427C1.11917 15.1969 1.17877 15.2653 1.21972 15.343C1.26066 15.4206 1.28191 15.5055 1.28192 15.5915V16.4071C1.28192 16.5604 1.34935 16.7073 1.46939 16.8157C1.58942 16.924 1.75222 16.9849 1.92197 16.9849H16.9815C17.1533 16.9849 17.318 16.9233 17.4395 16.8136C17.5609 16.704 17.6292 16.5553 17.6292 16.4002V15.613C17.6264 15.4771 17.6756 15.3444 17.7685 15.2373C17.8614 15.1303 17.9923 15.0554 18.1392 15.0253C18.2324 15.0077 18.3289 15.0091 18.4214 15.0294C18.514 15.0497 18.6004 15.0884 18.6743 15.1427C18.7482 15.1969 18.8078 15.2653 18.8488 15.343C18.8897 15.4206 18.911 15.5055 18.911 15.5915V18.8225C18.911 18.9058 18.8928 18.9882 18.8575 19.0651C18.8221 19.142 18.7703 19.2118 18.705 19.2706C18.6397 19.3294 18.5622 19.376 18.4769 19.4078C18.3916 19.4395 18.3003 19.4557 18.208 19.4555Z" fill="url(#paint0_linear_3230_11199)"/>
<path d="M5.05081 13.1067C4.90687 13.0727 4.77887 12.9908 4.68799 12.8744C4.5971 12.7581 4.54878 12.6143 4.55101 12.4668V7.91893C4.55118 7.86429 4.56459 7.81049 4.59011 7.76214C4.63987 7.62759 4.73357 7.51365 4.85614 7.43863C4.97871 7.36362 5.12302 7.33188 5.26586 7.34854C5.42465 7.37086 5.56978 7.4503 5.67389 7.57191C5.77801 7.69352 5.83393 7.8489 5.83111 8.00877V8.07233C5.83111 8.24159 5.89855 8.40392 6.01858 8.5236C6.13861 8.64329 6.30141 8.71052 6.47117 8.71052H12.4399C12.6096 8.71052 12.7724 8.64329 12.8925 8.5236C13.0125 8.40392 13.0799 8.24159 13.0799 8.07233V7.98165C13.0798 7.83167 13.1326 7.68642 13.2291 7.5714C13.3256 7.45637 13.4597 7.37891 13.6078 7.35262C13.7559 7.32633 13.9085 7.35287 14.0389 7.4276C14.1693 7.50233 14.2692 7.62047 14.321 7.76129C14.3461 7.80979 14.3595 7.86349 14.36 7.91808V12.4795C14.36 12.6488 14.2926 12.8111 14.1726 12.9308C14.0526 13.0505 13.8897 13.1177 13.72 13.1177C13.5502 13.1177 13.3874 13.0505 13.2674 12.9308C13.1474 12.8111 13.0799 12.6488 13.0799 12.4795V12.271C13.0801 12.1871 13.0636 12.1041 13.0315 12.0265C12.9994 11.949 12.9522 11.8785 12.8928 11.8192C12.8333 11.7598 12.7627 11.7128 12.685 11.6806C12.6073 11.6485 12.524 11.632 12.4399 11.632H6.47117C6.30141 11.632 6.13861 11.6992 6.01858 11.8189C5.89855 11.9386 5.83111 12.1009 5.83111 12.2702V12.4795C5.83163 12.5755 5.81044 12.6704 5.76912 12.7571C5.7278 12.8439 5.66741 12.9202 5.59244 12.9805C5.51747 13.0407 5.42984 13.0834 5.33607 13.1052C5.2423 13.1271 5.1448 13.1276 5.05081 13.1067V13.1067Z" fill="url(#paint1_linear_3230_11199)"/>
<path d="M18.1383 5.43816C17.9913 5.40484 17.8602 5.32199 17.7673 5.20357C17.6744 5.08516 17.6253 4.93842 17.6283 4.7881V3.27356H1.28102V4.7881C1.28399 4.93842 1.23488 5.08516 1.14197 5.20357C1.04907 5.32199 0.918054 5.40484 0.771019 5.43816C0.677883 5.45727 0.581649 5.45548 0.489294 5.43292C0.396938 5.41036 0.310775 5.36758 0.23705 5.3077C0.163326 5.24783 0.103889 5.17234 0.0630464 5.08672C0.0222043 5.0011 0.000981118 4.90749 0.000915527 4.81268L0.000915527 1.24287C0.00091546 1.15109 0.01906 1.06021 0.0543117 0.975423C0.0895634 0.890638 0.141231 0.813613 0.206359 0.748753C0.271488 0.683892 0.3488 0.632468 0.433875 0.597421C0.51895 0.562375 0.610119 0.544394 0.702169 0.544505H18.1816C18.3029 0.544419 18.4222 0.574532 18.5288 0.632109C18.6353 0.689685 18.7258 0.7729 18.7919 0.874195C18.8688 0.981879 18.9101 1.11073 18.9101 1.24287V4.81268C18.9101 4.90767 18.8888 5.00146 18.8479 5.08722C18.807 5.17299 18.7474 5.24858 18.6734 5.30849C18.5995 5.3684 18.5131 5.41113 18.4205 5.43356C18.328 5.45599 18.2315 5.45756 18.1383 5.43816V5.43816Z" fill="url(#paint2_linear_3230_11199)"/>
</g>
<defs>
<linearGradient id="paint0_linear_3230_11199" x1="0" y1="16.9464" x2="18.911" y2="16.9464" gradientUnits="userSpaceOnUse">
<stop stop-color="#F296D2"/>
<stop offset="1" stop-color="#FFB483"/>
</linearGradient>
<linearGradient id="paint1_linear_3230_11199" x1="4.55093" y1="9.85778" x2="14.36" y2="9.85778" gradientUnits="userSpaceOnUse">
<stop stop-color="#F296D2"/>
<stop offset="1" stop-color="#FFB483"/>
</linearGradient>
<linearGradient id="paint2_linear_3230_11199" x1="0.000915527" y1="2.68001" x2="18.9101" y2="2.68001" gradientUnits="userSpaceOnUse">
<stop stop-color="#F296D2"/>
<stop offset="1" stop-color="#FFB483"/>
</linearGradient>
<clipPath id="clip0_3230_11199">
<rect width="61.1309" height="18.911" fill="white" transform="translate(22.869 0.544495)"/>
</clipPath>
<clipPath id="clip1_3230_11199">
<rect width="18.911" height="18.911" fill="white" transform="translate(0 0.544495)"/>
</clipPath>
</defs>
</svg>
