<svg width="677" height="1129" viewBox="0 0 677 1129" fill="none" xmlns="http://www.w3.org/2000/svg">
<g opacity="0.05">
<path d="M1009.51 54.6638C894.928 -16.6823 802.769 -1.27192 741.821 17.84C634.257 51.57 516.927 101.16 445.534 124.855C374.278 148.504 169.565 191.502 73.8867 317.448C-77.8153 517.141 39.8947 589.492 139.148 682.269C221.231 758.996 99.3899 1035.58 258.735 1114.48C387.034 1178.01 591.329 997.39 698.409 734.579C805.489 471.768 924.662 530.069 1067 430.547C1209.34 331.026 1152.74 143.846 1009.51 54.6638Z" stroke="#F2F1FB" stroke-width="2"/>
<path d="M968.727 94.6752C877.188 37.4825 774.731 44.9444 726.09 60.186C640.245 87.0852 539.204 127.943 482.227 146.843C425.36 165.706 219.09 218.169 142.814 318.873C21.8748 478.544 51.5938 559.737 187.715 631.267C324.152 702.962 186.622 877.009 266.771 938.4C357.631 1007.99 461.753 928.597 577.281 733.371C747.265 446.119 895.024 504.637 1008.58 425.12C1169.85 312.187 1083.15 166.166 968.727 94.6752Z" stroke="#F2F1FB" stroke-width="2"/>
<path d="M782.738 102.478C895.174 110.301 946.155 191.865 957.591 231.67C1019.05 420.985 789.057 464.114 699.073 529.156C626.843 581.366 616.939 630.841 526.401 736.992C454.547 821.238 338.084 850.372 302.017 687.391C275.377 567.01 182.646 649.284 134.927 547.12C87.2962 445.147 171.732 328.853 247.648 278.122C362.606 201.3 427.034 232.567 521.397 195.923C587.892 170.1 642.193 92.7002 782.738 102.478Z" stroke="#F2F1FB" stroke-width="2"/>
<path d="M742.528 154.295C836.179 146.888 869.37 201.277 887.113 246.973C903.4 288.919 911.655 413.243 781.22 461.058C598.141 528.171 630.21 548.61 564.922 577.27C509.943 601.404 469.516 538.625 382.663 491.139C345.083 470.592 311.615 494.62 268.896 519.254C216.319 549.573 176.878 520.509 196.315 466.993C268.743 267.578 355.579 276.406 478.275 260.937C600.971 245.468 625.464 163.555 742.528 154.295Z" stroke="#F2F1FB" stroke-width="2"/>
</g>
</svg>
