<svg width="12" height="16" viewBox="0 0 12 16" fill="none" xmlns="http://www.w3.org/2000/svg">
<path d="M8.394 8.00001L2 3.73701V12.263L8.394 8.00001ZM11.376 8.41601L0.777 15.482C0.701706 15.5321 0.61423 15.5609 0.523891 15.5652C0.433553 15.5695 0.343733 15.5492 0.263999 15.5065C0.184265 15.4639 0.117604 15.4003 0.0711136 15.3228C0.0246236 15.2452 4.67204e-05 15.1564 0 15.066V0.934007C4.67204e-05 0.843565 0.0246236 0.754829 0.0711136 0.67725C0.117604 0.599672 0.184265 0.536155 0.263999 0.493466C0.343733 0.450778 0.433553 0.430515 0.523891 0.434836C0.61423 0.439158 0.701706 0.467902 0.777 0.518007L11.376 7.58401C11.4445 7.62967 11.5006 7.69153 11.5395 7.7641C11.5783 7.83667 11.5986 7.9177 11.5986 8.00001C11.5986 8.08231 11.5783 8.16335 11.5395 8.23592C11.5006 8.30848 11.4445 8.37035 11.376 8.41601Z" fill="#19172F"/>
</svg>
