<svg width="30" height="31" viewBox="0 0 30 31" fill="none" xmlns="http://www.w3.org/2000/svg">
    <path d="M17.7501 9.97975C17.1167 9.97964 16.5086 10.2282 16.0567 10.6719C15.6047 11.1156 15.345 11.719 15.3334 12.3523L15.3101 13.6648C15.3087 13.7352 15.2925 13.8046 15.2624 13.8684C15.2323 13.9321 15.1891 13.9888 15.1356 14.0346C15.0821 14.0805 15.0195 14.1146 14.9519 14.1346C14.8843 14.1545 14.8133 14.16 14.7434 14.1506L13.4426 13.9739C11.7309 13.7406 10.0909 12.9523 8.5176 11.6414C8.01926 14.3998 8.9926 16.3106 11.3368 17.7847L12.7926 18.6997C12.8618 18.7432 12.9192 18.803 12.96 18.8738C13.0007 18.9446 13.0235 19.0243 13.0263 19.106C13.0291 19.1876 13.0118 19.2687 12.976 19.3422C12.9402 19.4156 12.887 19.4791 12.8209 19.5273L11.4943 20.4964C12.2834 20.5456 13.0326 20.5106 13.6543 20.3872C17.5859 19.6023 20.2001 16.6439 20.2001 11.7639C20.2001 11.3656 19.3568 9.97975 17.7501 9.97975ZM13.6668 12.3214C13.6813 11.5181 13.9325 10.737 14.3889 10.0758C14.8453 9.41456 15.4866 8.90268 16.2325 8.60422C16.9785 8.30576 17.7959 8.23398 18.5824 8.39787C19.3689 8.56176 20.0896 8.95404 20.6543 9.52558C21.2468 9.52142 21.7509 9.67142 22.8784 8.98808C22.5993 10.3548 22.4618 10.9481 21.8668 11.7639C21.8668 18.1322 17.9526 21.2289 13.9809 22.0214C11.2576 22.5647 7.2976 21.6723 6.1626 20.4873C6.74093 20.4423 9.09093 20.1897 10.4493 19.1956C9.3001 18.4381 4.72593 15.7464 7.73176 8.50975C9.1426 10.1573 10.5734 11.2789 12.0234 11.8739C12.9884 12.2698 13.2251 12.2614 13.6676 12.3223L13.6668 12.3214Z" fill="#92E7E8"/>
</svg>
