<svg width="19" height="21" viewBox="0 0 19 21" fill="none" xmlns="http://www.w3.org/2000/svg">
<path d="M3.883 16.653C3.583 16.453 3.325 16.198 3.023 15.837C2.86624 15.6451 2.7109 15.4521 2.557 15.258C2.094 14.683 1.802 14.418 1.5 14.309C1.2503 14.2193 1.04643 14.0342 0.933256 13.7942C0.820078 13.5543 0.806856 13.2792 0.896499 13.0295C0.986142 12.7798 1.17131 12.5759 1.41126 12.4627C1.65121 12.3496 1.9263 12.3363 2.176 12.426C2.928 12.696 3.437 13.161 4.123 14.014C4.029 13.897 4.463 14.441 4.556 14.553C4.746 14.78 4.886 14.918 4.996 14.991C5.2 15.128 5.583 15.187 6.146 15.131C6.169 14.749 6.24 14.378 6.348 14.036C3.38 13.31 1.7 11.396 1.7 7.63999C1.7 6.39999 2.07 5.28399 2.758 4.34799C2.54 3.45399 2.573 2.37299 3.06 1.15599C3.11527 1.01833 3.20047 0.894683 3.30943 0.794021C3.4184 0.693359 3.54839 0.6182 3.69 0.573993C3.771 0.549993 3.817 0.538993 3.898 0.526993C4.701 0.403993 5.835 0.696993 7.313 1.62299C8.1938 1.41708 9.09545 1.31372 10 1.31499C10.912 1.31499 11.818 1.41899 12.684 1.62299C14.161 0.689992 15.297 0.396993 16.106 0.526993C16.191 0.539993 16.263 0.556993 16.324 0.576993C16.4628 0.622769 16.5899 0.698426 16.6964 0.798635C16.8028 0.898844 16.886 1.02117 16.94 1.15699C17.427 2.37299 17.46 3.45399 17.242 4.34699C17.933 5.28299 18.3 6.39199 18.3 7.63999C18.3 11.397 16.626 13.305 13.658 14.032C13.783 14.447 13.848 14.911 13.848 15.412C13.8481 16.3173 13.8441 17.2227 13.836 18.128C14.0606 18.177 14.2614 18.3018 14.4047 18.4816C14.548 18.6613 14.6251 18.8849 14.6228 19.1147C14.6206 19.3446 14.5392 19.5666 14.3925 19.7435C14.2457 19.9204 14.0425 20.0414 13.817 20.086C12.678 20.314 11.834 19.554 11.834 18.561L11.836 18.115L11.841 17.41C11.846 16.702 11.848 16.072 11.848 15.412C11.848 14.715 11.665 14.26 11.423 14.052C10.762 13.482 11.097 12.397 11.963 12.3C14.93 11.967 16.3 10.818 16.3 7.63999C16.3 6.68499 15.988 5.89599 15.387 5.23599C15.2604 5.09724 15.1754 4.92562 15.1418 4.7408C15.1082 4.55599 15.1273 4.36544 15.197 4.19099C15.363 3.77699 15.434 3.23399 15.293 2.57699L15.283 2.57999C14.792 2.71899 14.173 3.01999 13.425 3.52899C13.3044 3.61085 13.1673 3.66534 13.0234 3.68866C12.8795 3.71198 12.7323 3.70356 12.592 3.66399C11.7479 3.43028 10.8759 3.31286 10 3.31499C9.11 3.31499 8.228 3.43399 7.408 3.66499C7.26822 3.70425 7.12157 3.7126 6.97823 3.68946C6.8349 3.66632 6.69832 3.61224 6.578 3.53099C5.826 3.02399 5.204 2.72399 4.71 2.58399C4.566 3.23699 4.637 3.77799 4.802 4.19099C4.87181 4.36535 4.8911 4.55584 4.85768 4.74065C4.82425 4.92547 4.73945 5.09713 4.613 5.23599C4.016 5.88999 3.7 6.69399 3.7 7.63999C3.7 10.812 5.071 11.968 8.022 12.3C8.887 12.397 9.223 13.477 8.566 14.048C8.374 14.216 8.137 14.78 8.137 15.412V18.562C8.137 19.548 7.302 20.287 6.177 20.09C5.94876 20.0499 5.74153 19.9318 5.59072 19.7559C5.4399 19.58 5.35486 19.3571 5.35014 19.1254C5.34542 18.8938 5.4213 18.6676 5.56482 18.4857C5.70834 18.3038 5.91059 18.1773 6.137 18.128V17.138C5.227 17.199 4.475 17.05 3.883 16.653Z" fill="#92E7E8"/>
</svg>
