<svg width="24" height="24" viewBox="0 0 20 21" fill="none" xmlns="http://www.w3.org/2000/svg">
    <path d="M4.90252 15.8992C4.65252 15.7325 4.43752 15.52 4.18586 15.2192C4.05523 15.0593 3.92578 14.8985 3.79752 14.7367C3.41169 14.2575 3.16836 14.0367 2.91669 13.9459C2.70861 13.8712 2.53872 13.7169 2.4444 13.5169C2.35009 13.3169 2.33907 13.0877 2.41377 12.8796C2.48848 12.6715 2.64278 12.5017 2.84274 12.4073C3.0427 12.313 3.27194 12.302 3.48002 12.3767C4.10669 12.6017 4.53086 12.9892 5.10252 13.7C5.02419 13.6025 5.38586 14.0559 5.46336 14.1492C5.62169 14.3384 5.73836 14.4534 5.83002 14.5142C6.00002 14.6284 6.31919 14.6775 6.78836 14.6309C6.80752 14.3125 6.86669 14.0034 6.95669 13.7184C4.48336 13.1134 3.08336 11.5184 3.08336 8.38837C3.08336 7.35504 3.39169 6.42504 3.96502 5.64504C3.78336 4.90004 3.81086 3.99921 4.21669 2.98504C4.26275 2.87032 4.33375 2.76728 4.42455 2.6834C4.51536 2.59951 4.62369 2.53688 4.74169 2.50004C4.80919 2.48004 4.84752 2.47087 4.91502 2.46087C5.58419 2.35837 6.52919 2.60254 7.76086 3.37421C8.49485 3.20261 9.24624 3.11648 10 3.11754C10.76 3.11754 11.515 3.20421 12.2367 3.37421C13.4675 2.59671 14.4142 2.35254 15.0884 2.46087C15.1592 2.47171 15.2192 2.48587 15.27 2.50254C15.3857 2.54069 15.4916 2.60374 15.5803 2.68724C15.669 2.77075 15.7383 2.87269 15.7834 2.98587C16.1892 3.99921 16.2167 4.90004 16.035 5.64421C16.6109 6.42421 16.9167 7.34837 16.9167 8.38837C16.9167 11.5192 15.5217 13.1092 13.0484 13.715C13.1525 14.0609 13.2067 14.4475 13.2067 14.865C13.2068 15.6195 13.2034 16.3739 13.1967 17.1284C13.3838 17.1692 13.5512 17.2732 13.6706 17.423C13.7901 17.5728 13.8542 17.7591 13.8524 17.9506C13.8505 18.1422 13.7827 18.3272 13.6604 18.4747C13.5381 18.6221 13.3688 18.7229 13.1809 18.76C12.2317 18.95 11.5284 18.3167 11.5284 17.4892L11.53 17.1175L11.5342 16.53C11.5384 15.94 11.54 15.415 11.54 14.865C11.54 14.2842 11.3875 13.905 11.1859 13.7317C10.635 13.2567 10.9142 12.3525 11.6359 12.2717C14.1084 11.9942 15.25 11.0367 15.25 8.38837C15.25 7.59254 14.99 6.93504 14.4892 6.38504C14.3837 6.26941 14.3129 6.1264 14.2849 5.97238C14.2568 5.81837 14.2728 5.65958 14.3309 5.51421C14.4692 5.16921 14.5284 4.71671 14.4109 4.16921L14.4025 4.17171C13.9934 4.28754 13.4775 4.53837 12.8542 4.96254C12.7537 5.03075 12.6395 5.07617 12.5196 5.0956C12.3996 5.11503 12.2769 5.10802 12.16 5.07504C11.4566 4.88028 10.7299 4.78243 10 4.78421C9.25836 4.78421 8.52336 4.88337 7.84002 5.07587C7.72354 5.10859 7.60133 5.11554 7.48189 5.09626C7.36244 5.07698 7.24863 5.03192 7.14836 4.96421C6.52169 4.54171 6.00336 4.29171 5.59169 4.17504C5.47169 4.71921 5.53086 5.17004 5.66836 5.51421C5.72653 5.6595 5.74261 5.81825 5.71476 5.97226C5.6869 6.12627 5.61624 6.26932 5.51086 6.38504C5.01336 6.93004 4.75002 7.60004 4.75002 8.38837C4.75002 11.0317 5.89252 11.995 8.35169 12.2717C9.07252 12.3525 9.35252 13.2525 8.80502 13.7284C8.64502 13.8684 8.44752 14.3384 8.44752 14.865V17.49C8.44752 18.3117 7.75169 18.9275 6.81419 18.7634C6.624 18.73 6.4513 18.6316 6.32562 18.485C6.19994 18.3384 6.12908 18.1526 6.12514 17.9596C6.12121 17.7665 6.18444 17.5781 6.30404 17.4265C6.42364 17.2749 6.59218 17.1695 6.78086 17.1284V16.3034C6.02252 16.3542 5.39586 16.23 4.90252 15.8992V15.8992Z" fill="#92E7E8"/>
</svg>
