<svg width="24" height="24" viewBox="0 0 20 21" fill="none" xmlns="http://www.w3.org/2000/svg">
    <path d="M6.36733 5.35498C8.9634 5.35498 11.0677 7.47403 11.0677 10.0878C11.0677 12.7016 8.96324 14.8205 6.36733 14.8205C3.77142 14.8205 1.66675 12.7016 1.66675 10.0878C1.66675 7.47403 3.77126 5.35498 6.36733 5.35498ZM13.8738 5.63222C15.1719 5.63222 16.2241 7.62686 16.2241 10.0878H16.2243C16.2243 12.5481 15.172 14.5434 13.874 14.5434C12.5759 14.5434 11.5237 12.5481 11.5237 10.0878C11.5237 7.6275 12.5758 5.63222 13.8738 5.63222ZM17.5068 6.0963C17.9632 6.0963 18.3334 7.88334 18.3334 10.0878C18.3334 12.2917 17.9634 14.0793 17.5068 14.0793C17.0502 14.0793 16.6804 12.2921 16.6804 10.0878C16.6804 7.8835 17.0504 6.0963 17.5068 6.0963Z" fill="#92E7E8"/>
</svg>
