<svg width="24" height="24" viewBox="0 0 20 21" fill="none" xmlns="http://www.w3.org/2000/svg">
    <path d="M12.7501 4.97975C12.1167 4.97964 11.5086 5.22819 11.0567 5.67189C10.6047 6.11559 10.345 6.719 10.3334 7.35225L10.3101 8.66475C10.3087 8.73522 10.2925 8.80461 10.2624 8.86835C10.2323 8.9321 10.1891 8.98877 10.1356 9.03465C10.0821 9.08053 10.0195 9.11457 9.95193 9.13455C9.88434 9.15453 9.81328 9.15999 9.74343 9.15058L8.4426 8.97392C6.73093 8.74058 5.09093 7.95225 3.5176 6.64142C3.01926 9.39975 3.9926 11.3106 6.33676 12.7848L7.7926 13.6998C7.86177 13.7432 7.91924 13.803 7.95997 13.8738C8.0007 13.9446 8.02346 14.0243 8.02626 14.106C8.02906 14.1876 8.0118 14.2687 7.97601 14.3422C7.94021 14.4156 7.88697 14.4792 7.82093 14.5273L6.49426 15.4964C7.28343 15.5456 8.0326 15.5106 8.65426 15.3872C12.5859 14.6022 15.2001 11.6439 15.2001 6.76392C15.2001 6.36558 14.3568 4.97975 12.7501 4.97975V4.97975ZM8.66676 7.32142C8.68131 6.51813 8.9325 5.73698 9.3889 5.07577C9.84529 4.41456 10.4866 3.90268 11.2325 3.60422C11.9785 3.30576 12.7959 3.23398 13.5824 3.39787C14.3689 3.56176 15.0896 3.95404 15.6543 4.52558C16.2468 4.52142 16.7509 4.67142 17.8784 3.98808C17.5993 5.35475 17.4618 5.94808 16.8668 6.76392C16.8668 13.1323 12.9526 16.2289 8.98093 17.0214C6.2576 17.5647 2.2976 16.6723 1.1626 15.4873C1.74093 15.4423 4.09093 15.1897 5.44926 14.1956C4.3001 13.4381 -0.274069 10.7464 2.73176 3.50975C4.1426 5.15725 5.57343 6.27892 7.02343 6.87392C7.98843 7.26975 8.2251 7.26142 8.6676 7.32225L8.66676 7.32142Z" fill="#92E7E8"/>
</svg>
