<svg width="21" height="18" viewBox="0 0 21 18" fill="none" xmlns="http://www.w3.org/2000/svg">
<path d="M14.3 2.54999C13.54 2.54987 12.8103 2.84811 12.2679 3.38056C11.7256 3.913 11.4139 4.63709 11.4 5.39699L11.372 6.97199C11.3704 7.05656 11.3509 7.13982 11.3148 7.21632C11.2787 7.29281 11.2269 7.36082 11.1626 7.41587C11.0984 7.47092 11.0233 7.51178 10.9422 7.53575C10.8611 7.55973 10.7758 7.56629 10.692 7.55499L9.131 7.34299C7.077 7.06299 5.109 6.11699 3.221 4.54399C2.623 7.85399 3.791 10.147 6.604 11.916L8.351 13.014C8.43401 13.0662 8.50297 13.1379 8.55185 13.2228C8.60073 13.3078 8.62804 13.4035 8.6314 13.5015C8.63475 13.5995 8.61405 13.6968 8.5711 13.7849C8.52814 13.873 8.46425 13.9493 8.385 14.007L6.793 15.17C7.74 15.229 8.639 15.187 9.385 15.039C14.103 14.097 17.24 10.547 17.24 4.69099C17.24 4.21299 16.228 2.54999 14.3 2.54999ZM9.4 5.35999C9.41746 4.39604 9.71889 3.45866 10.2666 2.66521C10.8142 1.87177 11.5838 1.25751 12.4789 0.899359C13.374 0.541207 14.3549 0.455072 15.2987 0.65174C16.2426 0.848407 17.1074 1.31914 17.785 2.00499C18.496 1.99999 19.101 2.17999 20.454 1.35999C20.119 2.99999 19.954 3.71199 19.24 4.69099C19.24 12.333 14.543 16.049 9.777 17C6.509 17.652 1.757 16.581 0.395004 15.159C1.089 15.105 3.909 14.802 5.539 13.609C4.16 12.7 -1.329 9.46999 2.278 0.785992C3.971 2.76299 5.688 4.10899 7.428 4.82299C8.586 5.29799 8.87 5.28799 9.401 5.36099L9.4 5.35999Z" fill="#92E7E8"/>
</svg>
