<svg width="18" height="21" viewBox="0 0 18 21" fill="none" xmlns="http://www.w3.org/2000/svg">
<path d="M10.914 12.58C10.7537 12.6191 10.5923 12.6538 10.43 12.684C9.54941 12.8498 8.64532 12.8464 7.766 12.674C7.612 12.644 7.394 12.591 7.113 12.516L6.192 13.713C3.919 13.64 3.055 12.117 3.055 12.117C3.055 8.736 4.536 5.995 4.536 5.995C6.017 4.862 7.426 4.893 7.426 4.893L7.829 5.418C7.86614 5.41279 7.90352 5.40946 7.941 5.408C8.7092 5.30617 9.4877 5.30954 10.255 5.418L10.697 4.893C10.697 4.893 12.107 4.862 13.587 5.996C13.587 5.996 15.069 8.736 15.069 12.117C15.069 12.117 14.194 13.639 11.921 13.713L10.914 12.579V12.58ZM7.076 9C6.475 9 6 9.45 6 10C6 10.55 6.485 11 7.076 11C7.676 11 8.151 10.55 8.151 10C8.161 9.45 7.677 9 7.076 9ZM10.924 9C10.324 9 9.849 9.45 9.849 10C9.849 10.55 10.334 11 10.924 11C11.525 11 12 10.55 12 10C12 9.45 11.525 9 10.924 9ZM18 21L13.01 16H16V2H2V16H13.003L13.573 18H2C1.46957 18 0.960859 17.7893 0.585786 17.4142C0.210714 17.0391 0 16.5304 0 16V2C0 1.46957 0.210714 0.960859 0.585786 0.585786C0.960859 0.210714 1.46957 0 2 0H16C16.5304 0 17.0391 0.210714 17.4142 0.585786C17.7893 0.960859 18 1.46957 18 2V21Z" fill="#92E7E8"/>
</svg>
