<?xml version="1.0" encoding="UTF-8"?>
<svg width="889px" height="250px" viewBox="0 0 889 250" version="1.1" xmlns="http://www.w3.org/2000/svg" xmlns:xlink="http://www.w3.org/1999/xlink">
    <title>Artboard Copy 12</title>
    <defs>
        <linearGradient x1="50%" y1="0%" x2="50%" y2="100%" id="linearGradient-1">
            <stop stop-color="#5B2286" offset="0%"></stop>
            <stop stop-color="#F01378" offset="100%"></stop>
        </linearGradient>
        <linearGradient x1="50%" y1="0%" x2="50%" y2="100%" id="linearGradient-2">
            <stop stop-color="#F3590F" offset="0%"></stop>
            <stop stop-color="#FDB028" offset="100%"></stop>
        </linearGradient>
    </defs>
    <g id="Artboard-Copy-12" stroke="none" stroke-width="1" fill="none" fill-rule="evenodd">
        <g id="Group" transform="translate(0.000000, 5.000000)">
            <path d="M149.893397,89.3337508 L119.489713,89.3337508 L67.1605109,89.3337508 C27.6961677,88.4625842 5.73951295,104.729166 1.29054671,138.133496 C-3.15841952,171.537826 3.89547213,196.19259 22.4522217,212.097787 C37.8696452,223.160132 56.6920674,227.956801 78.9194882,226.487794 C108.173439,224.554404 136.292625,208.220179 155.01467,184.337431 C185.330871,145.664614 186.490885,131.162227 158.494712,140.830269 L143.759389,154.807584 C109.839591,178.014481 85.0124792,183.422369 69.2780531,171.031247 C63.1787907,160.215472 61.9774324,150.148479 65.6739782,140.830269 C66.3919914,131.817172 79.0781416,127.310624 103.732429,127.310624 C128.386716,127.310624 145.480796,127.310624 155.01467,127.310624 L171.724553,130.1841 L149.893397,89.3337508 Z" id="Path-4" fill="url(#linearGradient-1)"></path>
            <path d="M206.174311,97.4216142 L268.707862,97.4216142 C283.588725,94.4325948 289.428849,84.9410068 286.228232,68.9468502 C281.427307,44.9556154 255.09308,48.5123252 246.201272,48.5123252 C237.309464,48.5123252 206.174311,44.9961518 206.174311,97.4216142 C206.174311,132.371922 197.661326,104.853685 180.635357,14.8669017 C213.359449,1.75859327e-13 249.767912,-3.71672543 289.860747,3.71672543 C350,14.8669017 350,54.4319681 350,75.9267911 C350,97.4216142 343.109537,135.668971 286.228232,135.668971 C248.307363,135.668971 222.228965,135.668971 207.99304,135.668971 L194.443629,105.303219" id="Path-3" fill="url(#linearGradient-2)"></path>
            <path d="M344.781454,210.40982 L338.701969,170.432157 C281.050054,177.048506 245.121953,177.522512 230.917668,171.854176 C215.110986,165.546391 208.726613,149.860469 207.99304,135.668971 C206.780554,112.21256 206.174311,99.4634406 206.174311,97.4216142 C201.693462,52.7440983 193.180477,25.2258608 180.635357,14.8669017 C168.090237,4.50794263 147.864143,-0.127148775 119.957075,0.961627494 C48.0446887,5.89170678 11.9631709,9.36802533 11.7125212,11.3905832 C11.3365466,14.4244199 16.3816258,54.0810284 17.3577573,54.8445651 C18.3338888,55.6081018 97.6937152,51.5861084 112.419906,51.5861084 C127.146098,51.5861084 146.133391,55.7494125 141.552953,89.1732108 C138.499327,111.455743 139.234806,133.333867 143.759389,154.807584 C150.786648,183.418374 166.039437,203.906898 189.517759,216.273157 C203.792475,223.791788 237.301487,228.637012 272.605717,226.487794 C302.129744,224.690457 326.188323,219.331132 344.781454,210.40982 Z" id="Path-2" fill="#1BAAE4"></path>
        </g>
        <path d="M415.132114,232 C442.54065,232 462.073171,219.785112 474.674797,205.377809 L478.140244,228.241573 L515,228.241573 L515,9 L468.373984,9 L468.373984,50.9691011 C468.373984,62.244382 469.004065,72.8932584 469.949187,83.2289326 C455.772358,73.5196629 437.815041,69.4480337 419.542683,69.4480337 C380.477642,69.4480337 360,87.9269663 360,149.627809 C360,202.245787 375.436992,232 415.132114,232 Z M434.052083,194 C415.625,194 408,186.473868 408,149.470383 C408,110.585366 415.625,104 435.640625,104 C448.666667,104 457.5625,106.8223 469,109.958188 L469,181.456446 C455.65625,189.923345 448.03125,194 434.052083,194 Z M588.421053,49 C597.578947,49 602,44.6 602,35.4857143 L602,18.5142857 C602,9.71428571 597.578947,5 588.421053,5 L567.578947,5 C558.421053,5 554,9.71428571 554,18.5142857 L554,35.4857143 C554,44.6 558.421053,49 567.578947,49 L588.421053,49 Z M601,228 L601,73 L555,73 L555,228 L601,228 Z M684.238462,232 C694.207692,232 713.211538,229.807584 721,225.735955 L715.703846,193.476124 L703.242308,193.476124 C691.715385,193.476124 685.796154,188.464888 685.796154,177.816011 L685.796154,9 L640,9 L640,189.404494 C640,216.65309 657.134615,232 684.238462,232 Z M817.54433,232 C839.482474,232 866.748454,229.190751 884.925773,220.450867 L880.538144,191.734104 C859.540206,193.919075 836.975258,195.16763 822.872165,195.16763 C799.36701,195.16763 789.338144,190.17341 786.204124,166.763006 L841.989691,166.763006 C875.523711,166.763006 889,151.780347 889,123.687861 C888.686598,88.416185 868.315464,70 815.663918,70 C759.564948,70 737,90.6011561 737,151.468208 C737,208.277457 758.938144,232 817.54433,232 Z M828.655914,138 L785,138 C786.247312,108.380469 793.731183,101.692188 816.806452,102.010678 C836.763441,102.010678 843,107.106511 843,121.757031 C843,130.67474 841.129032,138 828.655914,138 Z" id="aedile" fill="#FFFFFF" fill-rule="nonzero"></path>
    </g>
</svg>