<?xml version="1.0" encoding="UTF-8"?>
<svg width="929px" height="500px" viewBox="0 0 929 500" version="1.1" xmlns="http://www.w3.org/2000/svg" xmlns:xlink="http://www.w3.org/1999/xlink">
    <title>Artboard Copy 12</title>
    <defs>
        <linearGradient x1="50%" y1="0%" x2="50%" y2="100%" id="linearGradient-1">
            <stop stop-color="#5B2286" offset="0%"></stop>
            <stop stop-color="#F01378" offset="100%"></stop>
        </linearGradient>
        <linearGradient x1="50%" y1="0%" x2="50%" y2="100%" id="linearGradient-2">
            <stop stop-color="#F3590F" offset="0%"></stop>
            <stop stop-color="#FDB028" offset="100%"></stop>
        </linearGradient>
    </defs>
    <g id="Artboard-Copy-12" stroke="none" stroke-width="1" fill="none" fill-rule="evenodd">
        <rect id="Rectangle" x="0" y="0" width="500" height="500"></rect>
        <g id="Group" transform="translate(0.000000, 136.000000)">
            <path d="M149.893397,89.3337508 L119.489713,89.3337508 L67.1605109,89.3337508 C27.6961677,88.4625842 5.73951295,104.729166 1.29054671,138.133496 C-3.15841952,171.537826 3.89547213,196.19259 22.4522217,212.097787 C37.8696452,223.160132 56.6920674,227.956801 78.9194882,226.487794 C108.173439,224.554404 136.292625,208.220179 155.01467,184.337431 C185.330871,145.664614 186.490885,131.162227 158.494712,140.830269 L143.759389,154.807584 C109.839591,178.014481 85.0124792,183.422369 69.2780531,171.031247 C63.1787907,160.215472 61.9774324,150.148479 65.6739782,140.830269 C66.3919914,131.817172 79.0781416,127.310624 103.732429,127.310624 C128.386716,127.310624 145.480796,127.310624 155.01467,127.310624 L171.724553,130.1841 L149.893397,89.3337508 Z" id="Path-4" fill="url(#linearGradient-1)"></path>
            <path d="M206.174311,97.4216142 L268.707862,97.4216142 C283.588725,94.4325948 289.428849,84.9410068 286.228232,68.9468502 C281.427307,44.9556154 255.09308,48.5123252 246.201272,48.5123252 C237.309464,48.5123252 206.174311,44.9961518 206.174311,97.4216142 C206.174311,132.371922 197.661326,104.853685 180.635357,14.8669017 C213.359449,1.75859327e-13 249.767912,-3.71672543 289.860747,3.71672543 C350,14.8669017 350,54.4319681 350,75.9267911 C350,97.4216142 343.109537,135.668971 286.228232,135.668971 C248.307363,135.668971 222.228965,135.668971 207.99304,135.668971 L194.443629,105.303219" id="Path-3" fill="url(#linearGradient-2)"></path>
            <path d="M344.781454,210.40982 L338.701969,170.432157 C281.050054,177.048506 245.121953,177.522512 230.917668,171.854176 C215.110986,165.546391 208.726613,149.860469 207.99304,135.668971 C206.780554,112.21256 206.174311,99.4634406 206.174311,97.4216142 C201.693462,52.7440983 193.180477,25.2258608 180.635357,14.8669017 C168.090237,4.50794263 147.864143,-0.127148775 119.957075,0.961627494 C48.0446887,5.89170678 11.9631709,9.36802533 11.7125212,11.3905832 C11.3365466,14.4244199 16.3816258,54.0810284 17.3577573,54.8445651 C18.3338888,55.6081018 97.6937152,51.5861084 112.419906,51.5861084 C127.146098,51.5861084 146.133391,55.7494125 141.552953,89.1732108 C138.499327,111.455743 139.234806,133.333867 143.759389,154.807584 C150.786648,183.418374 166.039437,203.906898 189.517759,216.273157 C203.792475,223.791788 237.301487,228.637012 272.605717,226.487794 C302.129744,224.690457 326.188323,219.331132 344.781454,210.40982 Z" id="Path-2" fill="#1BAAE4"></path>
        </g>
        <path d="M455.132114,363 C482.54065,363 502.073171,350.785112 514.674797,336.377809 L518.140244,359.241573 L555,359.241573 L555,140 L508.373984,140 L508.373984,181.969101 C508.373984,193.244382 509.004065,203.893258 509.949187,214.228933 C495.772358,204.519663 477.815041,200.448034 459.542683,200.448034 C420.477642,200.448034 400,218.926966 400,280.627809 C400,333.245787 415.436992,363 455.132114,363 Z M474.052083,325 C455.625,325 448,317.473868 448,280.470383 C448,241.585366 455.625,235 475.640625,235 C488.666667,235 497.5625,237.8223 509,240.958188 L509,312.456446 C495.65625,320.923345 488.03125,325 474.052083,325 Z M628.421053,180 C637.578947,180 642,175.6 642,166.485714 L642,149.514286 C642,140.714286 637.578947,136 628.421053,136 L607.578947,136 C598.421053,136 594,140.714286 594,149.514286 L594,166.485714 C594,175.6 598.421053,180 607.578947,180 L628.421053,180 Z M641,359 L641,204 L595,204 L595,359 L641,359 Z M724.238462,363 C734.207692,363 753.211538,360.807584 761,356.735955 L755.703846,324.476124 L743.242308,324.476124 C731.715385,324.476124 725.796154,319.464888 725.796154,308.816011 L725.796154,140 L680,140 L680,320.404494 C680,347.65309 697.134615,363 724.238462,363 Z M857.54433,363 C879.482474,363 906.748454,360.190751 924.925773,351.450867 L920.538144,322.734104 C899.540206,324.919075 876.975258,326.16763 862.872165,326.16763 C839.36701,326.16763 829.338144,321.17341 826.204124,297.763006 L881.989691,297.763006 C915.523711,297.763006 929,282.780347 929,254.687861 C928.686598,219.416185 908.315464,201 855.663918,201 C799.564948,201 777,221.601156 777,282.468208 C777,339.277457 798.938144,363 857.54433,363 Z M868.655914,269 L825,269 C826.247312,239.380469 833.731183,232.692188 856.806452,233.010678 C876.763441,233.010678 883,238.106511 883,252.757031 C883,261.67474 881.129032,269 868.655914,269 Z" id="aedile" fill="#FFFFFF" fill-rule="nonzero"></path>
    </g>
</svg>