<svg width="265" height="290" viewBox="0 0 265 290" fill="none" xmlns="http://www.w3.org/2000/svg">
<g filter="url(#filter0_ddd_338_395)">
<path d="M132.789 115.903V100.004L120.757 115.903H132.789Z" fill="#141327"/>
<path d="M118.807 105.786L120.757 115.934C124.571 110.906 132.258 100.714 132.789 100.004C126.515 99.8549 120.997 103.641 118.807 105.786Z" fill="#141327"/>
<path d="M119.29 105.305L120.758 115.902C118.789 115.212 114 113.492 112.701 113.019C114.886 109.824 117.683 106.59 119.29 105.305Z" fill="#141327"/>
<path d="M112.49 128.028L120.758 115.9C118.789 115.21 114.587 113.712 113.229 113.238C110.202 117.158 108.522 119.123 107.558 122.177L112.49 128.028Z" fill="#141327"/>
<path d="M105.109 128.993L112.49 128.031C111.678 127.045 109.329 124.149 107.558 122.02C106.731 123.558 105.675 127.465 105.109 128.993Z" fill="#141327"/>
<path d="M104.444 142.525L112.49 128.031C112.318 128.031 110.601 128.224 105.109 128.993C104.164 131.063 102.253 136.805 101.771 140.18L104.444 142.525Z" fill="#141327"/>
<path d="M101.77 140.18C100.293 148.388 100.605 152.065 100.753 155.319L104.443 142.525C104.271 142.377 103.423 141.422 101.77 140.18Z" fill="#141327"/>
<path d="M100.753 155.317L109.168 165.152L104.444 142.523L100.753 155.317Z" fill="#141327"/>
<path d="M106.584 174.322C103.115 169.515 100.679 160.567 100.753 155.316L109.168 165.152L106.584 174.322Z" fill="#141327"/>
<path d="M106.585 174.322L109.169 165.152L126.885 181.717C124.572 181.988 118.854 182.664 114.484 183.196C111.118 180.889 107.816 176.319 106.585 174.322Z" fill="#141327"/>
<path d="M114.483 183.198L126.884 181.719L132.789 190.001C125.112 190.001 118.174 186.304 114.483 183.198Z" fill="#141327"/>
<path d="M120.757 115.828L132.789 139.418V115.828H120.757Z" fill="#141327"/>
<path d="M120.757 115.828L132.789 139.418L112.49 128.03L120.757 115.828Z" fill="#141327"/>
<path d="M112.49 128.031L104.444 142.525L132.789 139.42L112.49 128.031Z" fill="#141327"/>
<path d="M123.71 153.69L104.444 142.524L132.789 139.418L123.71 153.69Z" fill="#141327"/>
<path d="M132.789 139.344L123.71 153.69L132.789 159.014V139.344Z" fill="#141327"/>
<path d="M114.188 161.529L104.444 142.523L118.807 149.18L132.789 159.014L114.188 161.529Z" fill="#141327"/>
<path d="M109.168 165.152L104.444 142.523L114.188 161.529L109.168 165.152Z" fill="#141327"/>
<path d="M126.884 181.718L132.789 159.016L114.188 161.53L126.884 181.718Z" fill="#141327"/>
<path d="M114.188 161.527L126.885 181.716L109.169 165.151L114.188 161.527Z" fill="#141327"/>
<path d="M132.789 190.001V159.016L126.884 181.718L132.789 190.001Z" fill="#141327"/>
<path d="M132.793 115.903V100.004L144.825 115.903H132.793Z" fill="#141327"/>
<path d="M146.227 106.214L144.825 115.934C141.011 110.905 133.324 100.714 132.793 100.004C139.067 99.8544 144.038 104.07 146.227 106.214Z" fill="#141327"/>
<path d="M146.227 106.215L144.824 115.902C146.793 115.212 151.054 113.713 152.353 113.24C150.168 110.045 147.359 107.225 146.227 106.215Z" fill="#141327"/>
<path d="M153.092 128.028L144.824 115.9C146.793 115.21 150.995 113.712 152.353 113.238C155.38 117.158 156.487 119.968 157.742 122.408L153.092 128.028Z" fill="#141327"/>
<path d="M160.473 128.988L153.092 128.026C153.904 127.04 155.971 124.536 157.742 122.406C158.569 123.944 159.907 127.46 160.473 128.988Z" fill="#141327"/>
<path d="M161.138 142.525L153.092 128.031C153.264 128.031 154.981 128.224 160.473 128.993C161.418 131.063 163.032 137.546 163.721 140.529L161.138 142.525Z" fill="#141327"/>
<path d="M163.722 140.527C165.199 148.736 164.977 152.064 164.829 155.317L161.139 142.524C161.311 142.376 162.069 141.77 163.722 140.527Z" fill="#141327"/>
<path d="M164.829 155.317L156.414 165.152L161.138 142.523L164.829 155.317Z" fill="#141327"/>
<path d="M158.998 174.322C162.467 169.515 164.903 160.567 164.829 155.316L156.414 165.152L158.998 174.322Z" fill="#141327"/>
<path d="M158.997 174.322L156.413 165.152L138.697 181.717C141.01 181.988 146.728 182.664 151.098 183.196C154.464 180.889 157.766 176.319 158.997 174.322Z" fill="#141327"/>
<path d="M151.099 183.194L138.698 181.715L132.793 189.997C140.47 189.997 147.408 186.3 151.099 183.194Z" fill="#141327"/>
<path d="M144.825 115.828L132.793 139.418V115.828H144.825Z" fill="#141327"/>
<path d="M144.825 115.828L132.793 139.418L153.092 128.03L144.825 115.828Z" fill="#141327"/>
<path d="M153.092 128.031L161.138 142.525L132.793 139.42L153.092 128.031Z" fill="#141327"/>
<path d="M141.872 153.69L161.138 142.524L132.793 139.418L141.872 153.69Z" fill="#141327"/>
<path d="M132.793 139.344L141.872 153.69L132.793 159.014V139.344Z" fill="#141327"/>
<path d="M151.394 161.529L161.138 142.523L146.454 150.305L132.793 159.014L151.394 161.529Z" fill="#141327"/>
<path d="M156.414 165.152L161.138 142.523L151.395 161.529L156.414 165.152Z" fill="#141327"/>
<path d="M138.698 181.718L132.793 159.016L151.394 161.53L138.698 181.718Z" fill="#141327"/>
<path d="M151.394 161.527L138.697 181.716L156.413 165.151L151.394 161.527Z" fill="#141327"/>
<path d="M132.793 190.001V159.016L138.698 181.718L132.793 190.001Z" fill="#141327"/>
<path d="M152.29 123.059C154.505 124.029 156.633 124.539 158.674 124.743C158.761 124.743 158.848 124.743 158.935 124.794C157.806 122.192 156.546 119.692 155.156 117.346C148.641 106.326 140.693 100.153 132.658 100C132.702 100.102 132.745 100.153 132.788 100.255C137.957 112.04 144.472 119.692 152.29 123.059Z" fill="#92E7E8"/>
<path d="M125.101 166.525C118.586 158.261 113.678 148.618 110.421 138.007C108.814 132.752 107.771 127.753 107.163 123.365C107.163 123.212 107.12 123.11 107.12 122.957C105.035 127.6 103.385 132.599 102.299 137.548C102.342 137.701 102.386 137.854 102.429 137.956C104.905 146.17 108.51 153.669 113.157 160.301C117.544 166.576 122.886 172.137 129.01 176.831C135.872 182.085 142.257 185.044 145.862 186.473C145.948 186.524 146.079 186.575 146.166 186.575C146.47 186.422 146.774 186.218 147.078 186.065C146.991 186.014 146.947 185.963 146.86 185.912C138.304 180.555 131.051 174.076 125.101 166.525Z" fill="#92E7E8"/>
<path d="M164.713 152.599C163.541 152.752 162.368 152.803 161.239 152.803C155.723 152.803 150.641 151.171 145.951 147.855C135.614 140.61 129.273 126.479 125.798 115.918C124.278 111.225 123.149 106.889 122.367 103.368C122.367 103.266 122.323 103.215 122.323 103.113C121.628 103.572 120.89 104.083 120.195 104.644C120.195 104.746 120.195 104.848 120.152 104.95C119.544 116.072 121.238 126.377 125.233 135.611C128.925 144.08 134.528 151.63 141.911 158.16C148.557 164.027 155.462 167.955 160.544 170.353C160.587 170.404 160.674 170.404 160.718 170.455C163.237 165.149 164.757 159.027 164.931 152.548C164.844 152.599 164.757 152.599 164.713 152.599Z" fill="#92E7E8"/>
<path d="M101.561 142.498C101.518 142.345 101.474 142.192 101.388 142.039C100.866 145.406 100.606 148.671 100.649 151.783C100.997 173.21 115.677 190.352 133.397 189.995C136.785 189.944 139.999 189.229 143.039 188.005C142.952 187.954 142.822 187.903 142.735 187.852C132.659 183.363 111.551 170.914 101.561 142.498Z" fill="url(#paint0_linear_338_395)"/>
<path d="M140.652 160.251C129.533 150.456 117.112 133.519 117.893 106.939C117.893 106.837 117.893 106.684 117.893 106.582C114.853 109.541 111.943 113.418 109.381 118.214C109.207 118.571 109.033 118.877 108.859 119.234C108.859 119.387 108.903 119.489 108.903 119.642C109.467 124.744 110.553 130.764 112.508 137.192C115.678 147.497 120.456 156.782 126.754 164.792C132.834 172.495 140.304 179.077 149.078 184.331C149.165 184.382 149.208 184.433 149.295 184.484C153.421 181.525 156.939 177.444 159.588 172.649C159.545 172.598 159.458 172.598 159.415 172.546C154.203 170.149 147.34 166.169 140.652 160.251Z" fill="url(#paint1_linear_338_395)"/>
<path d="M159.805 127.446C157.199 127.293 154.419 126.681 151.553 125.457C142.953 121.784 135.874 113.315 130.401 100.357C130.358 100.255 130.314 100.204 130.314 100.102C128.273 100.357 126.275 100.969 124.277 101.989C124.277 102.091 124.321 102.142 124.321 102.244C126.97 114.182 133.485 136.272 146.992 145.761C152.291 149.486 158.198 150.914 164.669 150.098C164.756 150.098 164.8 150.098 164.887 150.047C164.713 142.956 162.932 134.946 160.022 127.497C159.979 127.446 159.892 127.446 159.805 127.446Z" fill="url(#paint2_linear_338_395)"/>
</g>
<defs>
<filter id="filter0_ddd_338_395" x="0.621094" y="0" width="264.314" height="290" filterUnits="userSpaceOnUse" color-interpolation-filters="sRGB">
<feFlood flood-opacity="0" result="BackgroundImageFix"/>
<feColorMatrix in="SourceAlpha" type="matrix" values="0 0 0 0 0 0 0 0 0 0 0 0 0 0 0 0 0 0 127 0" result="hardAlpha"/>
<feOffset/>
<feGaussianBlur stdDeviation="20"/>
<feColorMatrix type="matrix" values="0 0 0 0 0.62 0 0 0 0 0 0 0 0 0 1 0 0 0 1 0"/>
<feBlend mode="normal" in2="BackgroundImageFix" result="effect1_dropShadow_338_395"/>
<feColorMatrix in="SourceAlpha" type="matrix" values="0 0 0 0 0 0 0 0 0 0 0 0 0 0 0 0 0 0 127 0" result="hardAlpha"/>
<feOffset/>
<feGaussianBlur stdDeviation="20"/>
<feColorMatrix type="matrix" values="0 0 0 0 0.619608 0 0 0 0 0 0 0 0 0 1 0 0 0 1 0"/>
<feBlend mode="normal" in2="effect1_dropShadow_338_395" result="effect2_dropShadow_338_395"/>
<feColorMatrix in="SourceAlpha" type="matrix" values="0 0 0 0 0 0 0 0 0 0 0 0 0 0 0 0 0 0 127 0" result="hardAlpha"/>
<feOffset/>
<feGaussianBlur stdDeviation="50"/>
<feColorMatrix type="matrix" values="0 0 0 0 0.156863 0 0 0 0 0.14902 0 0 0 0 0.294118 0 0 0 1 0"/>
<feBlend mode="normal" in2="effect2_dropShadow_338_395" result="effect3_dropShadow_338_395"/>
<feBlend mode="normal" in="SourceGraphic" in2="effect3_dropShadow_338_395" result="shape"/>
</filter>
<linearGradient id="paint0_linear_338_395" x1="100.645" y1="169.128" x2="143.039" y2="169.128" gradientUnits="userSpaceOnUse">
<stop stop-color="#F296D2"/>
<stop offset="1" stop-color="#FFB483"/>
</linearGradient>
<linearGradient id="paint1_linear_338_395" x1="108.859" y1="150.582" x2="159.588" y2="150.582" gradientUnits="userSpaceOnUse">
<stop stop-color="#F296D2"/>
<stop offset="1" stop-color="#FFB483"/>
</linearGradient>
<linearGradient id="paint2_linear_338_395" x1="124.277" y1="128.466" x2="164.887" y2="128.466" gradientUnits="userSpaceOnUse">
<stop stop-color="#F296D2"/>
<stop offset="1" stop-color="#FFB483"/>
</linearGradient>
</defs>
</svg>
