<svg width="265" height="290" viewBox="0 0 265 290" fill="none" xmlns="http://www.w3.org/2000/svg">
<g filter="url(#filter0_ddd_338_338)">
<path d="M132.479 115.903V100.004L120.447 115.903H132.479Z" fill="#141327"/>
<path d="M118.496 105.786L120.447 115.934C124.26 110.906 131.947 100.714 132.479 100.004C126.204 99.8549 120.686 103.641 118.496 105.786Z" fill="#141327"/>
<path d="M118.98 105.305L120.447 115.902C118.479 115.212 113.689 113.492 112.39 113.019C114.575 109.824 117.372 106.59 118.98 105.305Z" fill="#141327"/>
<path d="M112.18 128.028L120.447 115.9C118.479 115.21 114.276 113.712 112.918 113.238C109.892 117.158 108.212 119.123 107.247 122.177L112.18 128.028Z" fill="#141327"/>
<path d="M104.798 128.993L112.18 128.031C111.368 127.045 109.019 124.149 107.247 122.02C106.42 123.558 105.364 127.465 104.798 128.993Z" fill="#141327"/>
<path d="M104.134 142.525L112.18 128.031C112.007 128.031 110.29 128.224 104.798 128.993C103.853 131.063 101.942 136.805 101.46 140.18L104.134 142.525Z" fill="#141327"/>
<path d="M101.459 140.18C99.9828 148.388 100.294 152.065 100.442 155.319L104.133 142.525C103.961 142.377 103.113 141.422 101.459 140.18Z" fill="#141327"/>
<path d="M100.442 155.317L108.857 165.152L104.133 142.523L100.442 155.317Z" fill="#141327"/>
<path d="M106.417 173.766C103.042 168.302 100.953 160.427 100.442 155.316L108.857 165.152L106.417 173.766Z" fill="#141327"/>
<path d="M106.418 173.767L108.858 165.152L126.574 181.717C124.261 181.988 118.663 182.556 114.293 183.088C111.239 180.517 107.648 175.763 106.418 173.767Z" fill="#141327"/>
<path d="M114.292 183.09L126.573 181.719L132.479 190.001C124.802 190.001 117.983 186.196 114.292 183.09Z" fill="#141327"/>
<path d="M120.447 115.828L132.479 139.418V115.828H120.447Z" fill="#141327"/>
<path d="M120.447 115.828L132.479 139.418L112.179 128.03L120.447 115.828Z" fill="#141327"/>
<path d="M112.179 128.031L104.133 142.525L132.479 139.42L112.179 128.031Z" fill="#141327"/>
<path d="M123.399 153.69L104.133 142.524L132.479 139.418L123.399 153.69Z" fill="#141327"/>
<path d="M132.479 139.344L123.399 153.69L132.479 159.014V139.344Z" fill="#141327"/>
<path d="M113.877 161.529L104.133 142.523L118.496 149.18L132.479 159.014L113.877 161.529Z" fill="#141327"/>
<path d="M108.857 165.152L104.133 142.523L113.877 161.529L108.857 165.152Z" fill="#141327"/>
<path d="M126.573 181.718L132.479 159.016L113.877 161.53L126.573 181.718Z" fill="#141327"/>
<path d="M113.878 161.527L126.574 181.716L108.858 165.151L113.878 161.527Z" fill="#141327"/>
<path d="M132.479 190.001V159.016L126.573 181.718L132.479 190.001Z" fill="#141327"/>
<path d="M132.482 115.903V100.004L144.514 115.903H132.482Z" fill="#141327"/>
<path d="M145.917 106.214L144.514 115.934C140.701 110.905 133.014 100.714 132.482 100.004C138.757 99.8544 143.727 104.07 145.917 106.214Z" fill="#141327"/>
<path d="M145.916 106.215L144.514 115.902C146.482 115.212 150.744 113.713 152.043 113.24C149.858 110.045 147.048 107.225 145.916 106.215Z" fill="#141327"/>
<path d="M152.781 128.028L144.514 115.9C146.482 115.21 150.685 113.712 152.043 113.238C155.069 117.158 156.177 119.968 157.431 122.408L152.781 128.028Z" fill="#141327"/>
<path d="M160.163 128.988L152.781 128.026C153.593 127.04 155.66 124.536 157.432 122.406C158.258 123.944 159.597 127.46 160.163 128.988Z" fill="#141327"/>
<path d="M160.827 142.525L152.781 128.031C152.953 128.031 154.671 128.224 160.163 128.993C161.108 131.063 162.722 137.546 163.411 140.529L160.827 142.525Z" fill="#141327"/>
<path d="M163.412 140.527C164.888 148.736 164.667 152.064 164.519 155.317L160.828 142.524C161 142.376 161.758 141.77 163.412 140.527Z" fill="#141327"/>
<path d="M164.518 155.317L156.104 165.152L160.828 142.523L164.518 155.317Z" fill="#141327"/>
<path d="M158.332 174.249C161.801 169.442 164.117 160.428 164.518 155.316L156.104 165.152L158.332 174.249Z" fill="#141327"/>
<path d="M158.492 174.089L156.102 165.152L138.387 181.717C140.7 181.988 146.418 182.664 150.788 183.196C154.152 180.357 157.261 176.086 158.492 174.089Z" fill="#141327"/>
<path d="M150.789 183.194L138.388 181.715L132.482 189.997C140.159 189.997 147.098 186.3 150.789 183.194Z" fill="#141327"/>
<path d="M144.514 115.828L132.482 139.418V115.828H144.514Z" fill="#141327"/>
<path d="M144.514 115.828L132.482 139.418L152.782 128.03L144.514 115.828Z" fill="#141327"/>
<path d="M152.782 128.031L160.828 142.525L132.482 139.42L152.782 128.031Z" fill="#141327"/>
<path d="M141.562 153.69L160.828 142.524L132.482 139.418L141.562 153.69Z" fill="#141327"/>
<path d="M132.482 139.344L141.562 153.69L132.482 159.014V139.344Z" fill="#141327"/>
<path d="M151.084 161.529L160.828 142.523L146.143 150.305L132.482 159.014L151.084 161.529Z" fill="#141327"/>
<path d="M156.103 165.152L160.828 142.523L151.084 161.529L156.103 165.152Z" fill="#141327"/>
<path d="M138.388 181.718L132.482 159.016L151.084 161.53L138.388 181.718Z" fill="#141327"/>
<path d="M151.083 161.527L138.387 181.716L156.102 165.151L151.083 161.527Z" fill="#141327"/>
<path d="M132.482 190.001V159.016L138.388 181.718L132.482 190.001Z" fill="#141327"/>
<path d="M151.979 123.059C154.194 124.029 156.322 124.539 158.364 124.743C158.451 124.743 158.537 124.743 158.624 124.794C157.495 122.192 156.235 119.692 154.846 117.346C148.331 106.326 140.383 100.153 132.348 100C132.391 100.102 132.435 100.153 132.478 100.255C137.646 112.04 144.161 119.692 151.979 123.059Z" fill="url(#paint0_linear_338_338)"/>
<path d="M124.79 166.525C118.275 158.261 113.368 148.618 110.11 138.007C108.503 132.752 107.461 127.753 106.853 123.365C106.853 123.212 106.809 123.11 106.809 122.957C104.725 127.6 103.074 132.599 101.988 137.548C102.032 137.701 102.075 137.854 102.119 137.956C104.594 146.17 108.199 153.669 112.846 160.301C117.233 166.576 122.575 172.137 128.699 176.831C135.562 182.085 141.946 185.044 145.551 186.473C145.638 186.524 145.768 186.575 145.855 186.575C146.159 186.422 146.463 186.218 146.767 186.065C146.68 186.014 146.637 185.963 146.55 185.912C137.994 180.555 130.741 174.076 124.79 166.525Z" fill="url(#paint1_linear_338_338)"/>
<path d="M164.403 152.599C163.23 152.752 162.057 152.803 160.928 152.803C155.412 152.803 150.331 151.171 145.64 147.855C135.303 140.61 128.962 126.479 125.487 115.918C123.967 111.225 122.838 106.889 122.056 103.368C122.056 103.266 122.013 103.215 122.013 103.113C121.318 103.572 120.58 104.083 119.885 104.644C119.885 104.746 119.885 104.848 119.841 104.95C119.233 116.072 120.927 126.377 124.923 135.611C128.615 144.08 134.217 151.63 141.601 158.16C148.246 164.027 155.152 167.955 160.233 170.353C160.277 170.404 160.364 170.404 160.407 170.455C162.926 165.149 164.446 159.027 164.62 152.548C164.533 152.599 164.446 152.599 164.403 152.599Z" fill="url(#paint2_linear_338_338)"/>
<path d="M101.251 142.498C101.207 142.345 101.164 142.192 101.077 142.039C100.556 145.406 100.295 148.671 100.339 151.783C100.686 173.21 115.366 190.352 133.087 189.995C136.474 189.944 139.688 189.229 142.729 188.005C142.642 187.954 142.512 187.903 142.425 187.852C132.348 183.362 111.24 170.914 101.251 142.498Z" fill="#92E7E8"/>
<path d="M140.341 160.251C129.223 150.456 116.801 133.519 117.583 106.939C117.583 106.837 117.583 106.684 117.583 106.582C114.543 109.541 111.633 113.418 109.07 118.214C108.896 118.571 108.723 118.877 108.549 119.234C108.549 119.387 108.592 119.489 108.592 119.642C109.157 124.744 110.243 130.764 112.197 137.192C115.368 147.497 120.145 156.782 126.443 164.792C132.524 172.495 139.994 179.077 148.767 184.331C148.854 184.382 148.898 184.433 148.984 184.484C153.11 181.525 156.629 177.444 159.278 172.649C159.234 172.598 159.148 172.598 159.104 172.546C153.892 170.149 147.03 166.169 140.341 160.251Z" fill="#92E7E8"/>
<path d="M159.495 127.446C156.889 127.293 154.109 126.681 151.242 125.457C142.643 121.784 135.563 113.315 130.091 100.357C130.047 100.255 130.004 100.204 130.004 100.102C127.963 100.357 125.965 100.969 123.967 101.989C123.967 102.091 124.01 102.142 124.01 102.244C126.66 114.182 133.174 136.272 146.682 145.761C151.981 149.486 157.888 150.914 164.359 150.098C164.446 150.098 164.489 150.098 164.576 150.047C164.402 142.956 162.622 134.946 159.712 127.497C159.668 127.446 159.581 127.446 159.495 127.446Z" fill="#92E7E8"/>
</g>
<defs>
<filter id="filter0_ddd_338_338" x="0.310547" y="0" width="264.314" height="290" filterUnits="userSpaceOnUse" color-interpolation-filters="sRGB">
<feFlood flood-opacity="0" result="BackgroundImageFix"/>
<feColorMatrix in="SourceAlpha" type="matrix" values="0 0 0 0 0 0 0 0 0 0 0 0 0 0 0 0 0 0 127 0" result="hardAlpha"/>
<feOffset/>
<feGaussianBlur stdDeviation="20"/>
<feColorMatrix type="matrix" values="0 0 0 0 0.62 0 0 0 0 0 0 0 0 0 1 0 0 0 1 0"/>
<feBlend mode="normal" in2="BackgroundImageFix" result="effect1_dropShadow_338_338"/>
<feColorMatrix in="SourceAlpha" type="matrix" values="0 0 0 0 0 0 0 0 0 0 0 0 0 0 0 0 0 0 127 0" result="hardAlpha"/>
<feOffset/>
<feGaussianBlur stdDeviation="20"/>
<feColorMatrix type="matrix" values="0 0 0 0 0.619608 0 0 0 0 0 0 0 0 0 1 0 0 0 1 0"/>
<feBlend mode="normal" in2="effect1_dropShadow_338_338" result="effect2_dropShadow_338_338"/>
<feColorMatrix in="SourceAlpha" type="matrix" values="0 0 0 0 0 0 0 0 0 0 0 0 0 0 0 0 0 0 127 0" result="hardAlpha"/>
<feOffset/>
<feGaussianBlur stdDeviation="50"/>
<feColorMatrix type="matrix" values="0 0 0 0 0.156863 0 0 0 0 0.14902 0 0 0 0 0.294118 0 0 0 1 0"/>
<feBlend mode="normal" in2="effect2_dropShadow_338_338" result="effect3_dropShadow_338_338"/>
<feBlend mode="normal" in="SourceGraphic" in2="effect3_dropShadow_338_338" result="shape"/>
</filter>
<linearGradient id="paint0_linear_338_338" x1="132.348" y1="114.004" x2="158.624" y2="114.004" gradientUnits="userSpaceOnUse">
<stop stop-color="#F296D2"/>
<stop offset="1" stop-color="#FFB483"/>
</linearGradient>
<linearGradient id="paint1_linear_338_338" x1="101.988" y1="158.889" x2="146.767" y2="158.889" gradientUnits="userSpaceOnUse">
<stop stop-color="#F296D2"/>
<stop offset="1" stop-color="#FFB483"/>
</linearGradient>
<linearGradient id="paint2_linear_338_338" x1="119.721" y1="141.149" x2="164.62" y2="141.149" gradientUnits="userSpaceOnUse">
<stop stop-color="#F296D2"/>
<stop offset="1" stop-color="#FFB483"/>
</linearGradient>
</defs>
</svg>
