<svg width="265" height="290" viewBox="0 0 265 290" fill="none" xmlns="http://www.w3.org/2000/svg">
<g filter="url(#filter0_ddd_328_2)">
<path d="M132.43 115.903V100.004L120.398 115.903H132.43Z" fill="url(#paint0_linear_328_2)"/>
<path d="M118.995 106.214L120.398 115.934C124.211 110.905 131.898 100.714 132.43 100.004C126.155 99.8544 121.185 104.07 118.995 106.214Z" fill="#92E7E8"/>
<path d="M118.994 106.215L120.396 115.902C118.428 115.212 114.166 113.713 112.867 113.24C115.052 110.046 117.862 107.226 118.994 106.215Z" fill="url(#paint1_linear_328_2)"/>
<path d="M112.129 128.029L120.396 115.901C118.428 115.21 114.225 113.712 112.867 113.238C109.841 117.158 108.733 119.968 107.479 122.408L112.129 128.029Z" fill="#28264B"/>
<path d="M104.749 128.992L112.131 128.03C111.319 127.044 109.252 124.54 107.48 122.41C106.654 123.948 105.315 127.463 104.749 128.992Z" fill="#92E7E8"/>
<path d="M104.085 142.526L112.131 128.031C111.959 128.031 110.241 128.224 104.749 128.993C103.804 131.063 102.19 137.546 101.501 140.529L104.085 142.526Z" fill="url(#paint2_linear_328_2)"/>
<path d="M101.5 140.527C100.024 148.736 100.246 152.064 100.393 155.318L104.084 142.524C103.912 142.376 103.154 141.77 101.5 140.527Z" fill="#28264B"/>
<path d="M100.394 155.317L108.809 165.152L104.084 142.523L100.394 155.317Z" fill="#92E7E8"/>
<path d="M106.225 174.322C102.756 169.515 100.32 160.567 100.394 155.316L108.809 165.152L106.225 174.322Z" fill="url(#paint3_linear_328_2)"/>
<path d="M106.226 174.322L108.809 165.152L126.525 181.717C124.212 181.989 118.494 182.664 114.124 183.196C110.758 180.889 107.456 176.319 106.226 174.322Z" fill="#28264B"/>
<path d="M114.123 183.198L126.524 181.719L132.43 190.001C124.753 190.001 117.814 186.304 114.123 183.198Z" fill="url(#paint4_linear_328_2)"/>
<path d="M120.398 115.828L132.43 139.419V115.828H120.398Z" fill="url(#paint5_linear_328_2)"/>
<path d="M120.398 115.828L132.43 139.419L112.13 128.03L120.398 115.828Z" fill="#92E7E8"/>
<path d="M112.13 128.031L104.084 142.526L132.43 139.42L112.13 128.031Z" fill="#28264B"/>
<path d="M123.35 153.691L104.084 142.524L132.43 139.418L123.35 153.691Z" fill="#92E7E8"/>
<path d="M132.43 139.344L123.35 153.69L132.43 159.015V139.344Z" fill="#28264B"/>
<path d="M104.084 142.523L132.43 159.015L113.828 161.529L104.084 142.523Z" fill="url(#paint6_linear_328_2)"/>
<path d="M108.809 165.152L104.084 142.523L113.828 161.529L108.809 165.152Z" fill="#28264B"/>
<path d="M126.524 181.719L132.43 159.016L113.828 161.53L126.524 181.719Z" fill="#92E7E8"/>
<path d="M113.829 161.527L126.525 181.716L108.809 165.151L113.829 161.527Z" fill="url(#paint7_linear_328_2)"/>
<path d="M132.43 190.001V159.016L126.524 181.719L132.43 190.001Z" fill="#28264B"/>
<path d="M132.436 115.903V100.004L144.468 115.903H132.436Z" fill="url(#paint8_linear_328_2)"/>
<path d="M145.87 106.214L144.468 115.934C140.654 110.905 132.967 100.714 132.436 100.004C138.71 99.8544 143.68 104.07 145.87 106.214Z" fill="#92E7E8"/>
<path d="M145.871 106.215L144.469 115.902C146.437 115.212 150.699 113.713 151.998 113.24C149.813 110.046 147.003 107.226 145.871 106.215Z" fill="url(#paint9_linear_328_2)"/>
<path d="M152.736 128.029L144.469 115.901C146.437 115.21 150.64 113.712 151.998 113.238C155.025 117.158 156.132 119.968 157.387 122.408L152.736 128.029Z" fill="#28264B"/>
<path d="M160.116 128.992L152.734 128.03C153.546 127.044 155.613 124.54 157.385 122.41C158.212 123.948 159.55 127.463 160.116 128.992Z" fill="#92E7E8"/>
<path d="M160.78 142.526L152.734 128.031C152.907 128.031 154.624 128.224 160.116 128.993C161.061 131.063 162.675 137.546 163.364 140.529L160.78 142.526Z" fill="url(#paint10_linear_328_2)"/>
<path d="M163.365 140.527C164.841 148.736 164.62 152.064 164.472 155.318L160.781 142.524C160.953 142.376 161.711 141.77 163.365 140.527Z" fill="#28264B"/>
<path d="M164.472 155.317L156.057 165.152L160.781 142.523L164.472 155.317Z" fill="#92E7E8"/>
<path d="M158.64 174.322C162.11 169.515 164.546 160.567 164.472 155.316L156.057 165.152L158.64 174.322Z" fill="url(#paint11_linear_328_2)"/>
<path d="M158.639 174.322L156.056 165.152L138.34 181.717C140.653 181.989 146.371 182.664 150.741 183.196C154.107 180.889 157.409 176.319 158.639 174.322Z" fill="#28264B"/>
<path d="M150.742 183.198L138.341 181.719L132.436 190.001C140.112 190.001 147.051 186.304 150.742 183.198Z" fill="url(#paint12_linear_328_2)"/>
<path d="M144.468 115.828L132.436 139.419V115.828H144.468Z" fill="url(#paint13_linear_328_2)"/>
<path d="M144.468 115.828L132.436 139.419L152.735 128.03L144.468 115.828Z" fill="#92E7E8"/>
<path d="M152.735 128.031L160.781 142.526L132.436 139.42L152.735 128.031Z" fill="#28264B"/>
<path d="M141.515 153.691L160.781 142.524L132.436 139.418L141.515 153.691Z" fill="#92E7E8"/>
<path d="M132.436 139.344L141.515 153.69L132.436 159.015V139.344Z" fill="#28264B"/>
<path d="M160.781 142.523L132.436 159.015L151.037 161.529L160.781 142.523Z" fill="url(#paint14_linear_328_2)"/>
<path d="M156.057 165.152L160.781 142.523L151.037 161.529L156.057 165.152Z" fill="#28264B"/>
<path d="M138.341 181.719L132.436 159.016L151.037 161.53L138.341 181.719Z" fill="#92E7E8"/>
<path d="M151.036 161.527L138.34 181.716L156.056 165.151L151.036 161.527Z" fill="url(#paint15_linear_328_2)"/>
<path d="M132.436 190.001V159.016L138.341 181.719L132.436 190.001Z" fill="#28264B"/>
</g>
<defs>
<filter id="filter0_ddd_328_2" x="0.287109" y="0" width="264.291" height="290" filterUnits="userSpaceOnUse" color-interpolation-filters="sRGB">
<feFlood flood-opacity="0" result="BackgroundImageFix"/>
<feColorMatrix in="SourceAlpha" type="matrix" values="0 0 0 0 0 0 0 0 0 0 0 0 0 0 0 0 0 0 127 0" result="hardAlpha"/>
<feOffset/>
<feGaussianBlur stdDeviation="20"/>
<feColorMatrix type="matrix" values="0 0 0 0 0.62 0 0 0 0 0 0 0 0 0 1 0 0 0 1 0"/>
<feBlend mode="normal" in2="BackgroundImageFix" result="effect1_dropShadow_328_2"/>
<feColorMatrix in="SourceAlpha" type="matrix" values="0 0 0 0 0 0 0 0 0 0 0 0 0 0 0 0 0 0 127 0" result="hardAlpha"/>
<feOffset/>
<feGaussianBlur stdDeviation="20"/>
<feColorMatrix type="matrix" values="0 0 0 0 0.619608 0 0 0 0 0 0 0 0 0 1 0 0 0 1 0"/>
<feBlend mode="normal" in2="effect1_dropShadow_328_2" result="effect2_dropShadow_328_2"/>
<feColorMatrix in="SourceAlpha" type="matrix" values="0 0 0 0 0 0 0 0 0 0 0 0 0 0 0 0 0 0 127 0" result="hardAlpha"/>
<feOffset/>
<feGaussianBlur stdDeviation="50"/>
<feColorMatrix type="matrix" values="0 0 0 0 0.156863 0 0 0 0 0.14902 0 0 0 0 0.294118 0 0 0 1 0"/>
<feBlend mode="normal" in2="effect2_dropShadow_328_2" result="effect3_dropShadow_328_2"/>
<feBlend mode="normal" in="SourceGraphic" in2="effect3_dropShadow_328_2" result="shape"/>
</filter>
<linearGradient id="paint0_linear_328_2" x1="132.43" y1="108.984" x2="120.398" y2="108.984" gradientUnits="userSpaceOnUse">
<stop stop-color="#F296D2"/>
<stop offset="1" stop-color="#FFB483"/>
</linearGradient>
<linearGradient id="paint1_linear_328_2" x1="120.396" y1="111.687" x2="112.867" y2="111.687" gradientUnits="userSpaceOnUse">
<stop stop-color="#F296D2"/>
<stop offset="1" stop-color="#FFB483"/>
</linearGradient>
<linearGradient id="paint2_linear_328_2" x1="112.131" y1="136.218" x2="101.501" y2="136.218" gradientUnits="userSpaceOnUse">
<stop stop-color="#F296D2"/>
<stop offset="1" stop-color="#FFB483"/>
</linearGradient>
<linearGradient id="paint3_linear_328_2" x1="108.809" y1="166.051" x2="100.392" y2="166.051" gradientUnits="userSpaceOnUse">
<stop stop-color="#F296D2"/>
<stop offset="1" stop-color="#FFB483"/>
</linearGradient>
<linearGradient id="paint4_linear_328_2" x1="132.43" y1="186.397" x2="114.123" y2="186.397" gradientUnits="userSpaceOnUse">
<stop stop-color="#F296D2"/>
<stop offset="1" stop-color="#FFB483"/>
</linearGradient>
<linearGradient id="paint5_linear_328_2" x1="132.43" y1="129.152" x2="120.398" y2="129.152" gradientUnits="userSpaceOnUse">
<stop stop-color="#F296D2"/>
<stop offset="1" stop-color="#FFB483"/>
</linearGradient>
<linearGradient id="paint6_linear_328_2" x1="132.43" y1="153.258" x2="104.084" y2="153.258" gradientUnits="userSpaceOnUse">
<stop stop-color="#F296D2"/>
<stop offset="1" stop-color="#FFB483"/>
</linearGradient>
<linearGradient id="paint7_linear_328_2" x1="126.525" y1="172.93" x2="108.809" y2="172.93" gradientUnits="userSpaceOnUse">
<stop stop-color="#F296D2"/>
<stop offset="1" stop-color="#FFB483"/>
</linearGradient>
<linearGradient id="paint8_linear_328_2" x1="132.436" y1="108.984" x2="144.468" y2="108.984" gradientUnits="userSpaceOnUse">
<stop stop-color="#F296D2"/>
<stop offset="1" stop-color="#FFB483"/>
</linearGradient>
<linearGradient id="paint9_linear_328_2" x1="144.469" y1="111.687" x2="151.998" y2="111.687" gradientUnits="userSpaceOnUse">
<stop stop-color="#F296D2"/>
<stop offset="1" stop-color="#FFB483"/>
</linearGradient>
<linearGradient id="paint10_linear_328_2" x1="152.734" y1="136.218" x2="163.364" y2="136.218" gradientUnits="userSpaceOnUse">
<stop stop-color="#F296D2"/>
<stop offset="1" stop-color="#FFB483"/>
</linearGradient>
<linearGradient id="paint11_linear_328_2" x1="156.057" y1="166.051" x2="164.473" y2="166.051" gradientUnits="userSpaceOnUse">
<stop stop-color="#F296D2"/>
<stop offset="1" stop-color="#FFB483"/>
</linearGradient>
<linearGradient id="paint12_linear_328_2" x1="132.436" y1="186.397" x2="150.742" y2="186.397" gradientUnits="userSpaceOnUse">
<stop stop-color="#F296D2"/>
<stop offset="1" stop-color="#FFB483"/>
</linearGradient>
<linearGradient id="paint13_linear_328_2" x1="132.436" y1="129.152" x2="144.468" y2="129.152" gradientUnits="userSpaceOnUse">
<stop stop-color="#F296D2"/>
<stop offset="1" stop-color="#FFB483"/>
</linearGradient>
<linearGradient id="paint14_linear_328_2" x1="132.436" y1="153.258" x2="160.781" y2="153.258" gradientUnits="userSpaceOnUse">
<stop stop-color="#F296D2"/>
<stop offset="1" stop-color="#FFB483"/>
</linearGradient>
<linearGradient id="paint15_linear_328_2" x1="138.34" y1="172.93" x2="156.056" y2="172.93" gradientUnits="userSpaceOnUse">
<stop stop-color="#F296D2"/>
<stop offset="1" stop-color="#FFB483"/>
</linearGradient>
</defs>
</svg>
