<svg width="265" height="290" viewBox="0 0 265 290" fill="none" xmlns="http://www.w3.org/2000/svg">
<g filter="url(#filter0_ddd_314_322)">
<path d="M132.143 115.903V100.004L120.11 115.903H132.143Z" fill="url(#paint0_linear_314_322)"/>
<path d="M118.708 106.214L120.11 115.934C123.924 110.905 131.611 100.714 132.143 100.004C125.868 99.8544 120.898 104.07 118.708 106.214Z" fill="#92E7E8"/>
<path d="M118.707 106.215L120.109 115.902C118.141 115.212 113.879 113.713 112.58 113.24C114.765 110.046 117.575 107.226 118.707 106.215Z" fill="url(#paint1_linear_314_322)"/>
<path d="M111.842 128.029L120.109 115.901C118.141 115.21 113.938 113.712 112.58 113.238C109.554 117.158 108.446 119.968 107.191 122.408L111.842 128.029Z" fill="#28264B"/>
<path d="M104.462 128.992L111.844 128.03C111.032 127.044 108.965 124.54 107.193 122.41C106.367 123.948 105.028 127.463 104.462 128.992Z" fill="#92E7E8"/>
<path d="M103.798 142.526L111.844 128.031C111.672 128.031 109.954 128.224 104.462 128.993C103.517 131.063 101.903 137.546 101.214 140.529L103.798 142.526Z" fill="url(#paint2_linear_314_322)"/>
<path d="M101.213 140.527C99.737 148.736 99.9584 152.064 100.106 155.318L103.797 142.524C103.625 142.376 102.867 141.77 101.213 140.527Z" fill="#28264B"/>
<path d="M100.106 155.317L108.521 165.152L103.797 142.523L100.106 155.317Z" fill="#92E7E8"/>
<path d="M105.938 174.322C102.469 169.515 100.033 160.567 100.106 155.316L108.521 165.152L105.938 174.322Z" fill="url(#paint3_linear_314_322)"/>
<path d="M105.939 174.322L108.522 165.152L126.238 181.717C123.925 181.989 118.207 182.664 113.837 183.196C110.471 180.889 107.169 176.319 105.939 174.322Z" fill="#28264B"/>
<path d="M113.836 183.198L126.237 181.719L132.143 190.001C124.466 190.001 117.527 186.304 113.836 183.198Z" fill="url(#paint4_linear_314_322)"/>
<path d="M120.11 115.828L132.143 139.419V115.828H120.11Z" fill="url(#paint5_linear_314_322)"/>
<path d="M120.11 115.828L132.143 139.419L111.843 128.03L120.11 115.828Z" fill="#92E7E8"/>
<path d="M111.843 128.031L103.797 142.526L132.143 139.42L111.843 128.031Z" fill="#28264B"/>
<path d="M123.063 153.691L103.797 142.524L132.143 139.418L123.063 153.691Z" fill="#92E7E8"/>
<path d="M132.143 139.344L123.063 153.69L132.143 159.015V139.344Z" fill="#28264B"/>
<path d="M103.797 142.523L132.143 159.015L113.541 161.529L103.797 142.523Z" fill="url(#paint6_linear_314_322)"/>
<path d="M108.521 165.152L103.797 142.523L113.541 161.529L108.521 165.152Z" fill="#28264B"/>
<path d="M126.237 181.719L132.143 159.016L113.541 161.53L126.237 181.719Z" fill="#92E7E8"/>
<path d="M113.542 161.527L126.238 181.716L108.522 165.151L113.542 161.527Z" fill="url(#paint7_linear_314_322)"/>
<path d="M132.143 190.001V159.016L126.237 181.719L132.143 190.001Z" fill="#28264B"/>
<path d="M132.148 115.903V100.004L144.181 115.903H132.148Z" fill="#92E7E8"/>
<path d="M145.583 106.214L144.181 115.934C140.367 110.905 132.68 100.714 132.148 100.004C138.423 99.8544 143.393 104.07 145.583 106.214Z" fill="#28264B"/>
<path d="M145.584 106.215L144.182 115.902C146.15 115.212 150.412 113.713 151.711 113.24C149.526 110.046 146.716 107.226 145.584 106.215Z" fill="#92E7E8"/>
<path d="M152.449 128.029L144.182 115.901C146.15 115.21 150.353 113.712 151.711 113.238C154.737 117.158 155.845 119.968 157.1 122.408L152.449 128.029Z" fill="url(#paint8_linear_314_322)"/>
<path d="M159.829 128.992L152.447 128.03C153.259 127.044 155.326 124.54 157.098 122.41C157.924 123.948 159.263 127.463 159.829 128.992Z" fill="#28264B"/>
<path d="M160.493 142.526L152.447 128.031C152.62 128.031 154.337 128.224 159.829 128.993C160.774 131.063 162.388 137.546 163.077 140.529L160.493 142.526Z" fill="#92E7E8"/>
<path d="M163.078 140.527C164.554 148.736 164.333 152.064 164.185 155.318L160.494 142.524C160.666 142.376 161.424 141.77 163.078 140.527Z" fill="url(#paint9_linear_314_322)"/>
<path d="M164.185 155.317L155.77 165.152L160.494 142.523L164.185 155.317Z" fill="#28264B"/>
<path d="M158.353 174.322C161.822 169.515 164.258 160.567 164.185 155.316L155.77 165.152L158.353 174.322Z" fill="#92E7E8"/>
<path d="M158.352 174.322L155.769 165.152L138.053 181.717C140.366 181.989 146.084 182.664 150.454 183.196C153.82 180.889 157.122 176.319 158.352 174.322Z" fill="url(#paint10_linear_314_322)"/>
<path d="M150.455 183.198L138.054 181.719L132.148 190.001C139.825 190.001 146.764 186.304 150.455 183.198Z" fill="#92E7E8"/>
<path d="M144.181 115.828L132.148 139.419V115.828H144.181Z" fill="#92E7E8"/>
<path d="M144.181 115.828L132.148 139.419L152.448 128.03L144.181 115.828Z" fill="#28264B"/>
<path d="M152.448 128.031L160.494 142.526L132.148 139.42L152.448 128.031Z" fill="url(#paint11_linear_314_322)"/>
<path d="M141.228 153.691L160.494 142.524L132.148 139.418L141.228 153.691Z" fill="#28264B"/>
<path d="M132.148 139.344L141.228 153.69L132.148 159.015V139.344Z" fill="url(#paint12_linear_314_322)"/>
<path d="M160.494 142.523L132.148 159.015L150.75 161.529L160.494 142.523Z" fill="#92E7E8"/>
<path d="M155.77 165.152L160.494 142.523L150.75 161.529L155.77 165.152Z" fill="url(#paint13_linear_314_322)"/>
<path d="M138.054 181.719L132.148 159.016L150.75 161.53L138.054 181.719Z" fill="#28264B"/>
<path d="M150.749 161.527L138.053 181.716L155.769 165.151L150.749 161.527Z" fill="#92E7E8"/>
<path d="M132.148 190.001V159.016L138.054 181.719L132.148 190.001Z" fill="url(#paint14_linear_314_322)"/>
</g>
<defs>
<filter id="filter0_ddd_314_322" x="0" y="0" width="264.291" height="290" filterUnits="userSpaceOnUse" color-interpolation-filters="sRGB">
<feFlood flood-opacity="0" result="BackgroundImageFix"/>
<feColorMatrix in="SourceAlpha" type="matrix" values="0 0 0 0 0 0 0 0 0 0 0 0 0 0 0 0 0 0 127 0" result="hardAlpha"/>
<feOffset/>
<feGaussianBlur stdDeviation="20"/>
<feColorMatrix type="matrix" values="0 0 0 0 0.62 0 0 0 0 0 0 0 0 0 1 0 0 0 1 0"/>
<feBlend mode="normal" in2="BackgroundImageFix" result="effect1_dropShadow_314_322"/>
<feColorMatrix in="SourceAlpha" type="matrix" values="0 0 0 0 0 0 0 0 0 0 0 0 0 0 0 0 0 0 127 0" result="hardAlpha"/>
<feOffset/>
<feGaussianBlur stdDeviation="20"/>
<feColorMatrix type="matrix" values="0 0 0 0 0.619608 0 0 0 0 0 0 0 0 0 1 0 0 0 1 0"/>
<feBlend mode="normal" in2="effect1_dropShadow_314_322" result="effect2_dropShadow_314_322"/>
<feColorMatrix in="SourceAlpha" type="matrix" values="0 0 0 0 0 0 0 0 0 0 0 0 0 0 0 0 0 0 127 0" result="hardAlpha"/>
<feOffset/>
<feGaussianBlur stdDeviation="50"/>
<feColorMatrix type="matrix" values="0 0 0 0 0.156863 0 0 0 0 0.14902 0 0 0 0 0.294118 0 0 0 1 0"/>
<feBlend mode="normal" in2="effect2_dropShadow_314_322" result="effect3_dropShadow_314_322"/>
<feBlend mode="normal" in="SourceGraphic" in2="effect3_dropShadow_314_322" result="shape"/>
</filter>
<linearGradient id="paint0_linear_314_322" x1="132.143" y1="108.984" x2="120.11" y2="108.984" gradientUnits="userSpaceOnUse">
<stop stop-color="#F296D2"/>
<stop offset="1" stop-color="#FFB483"/>
</linearGradient>
<linearGradient id="paint1_linear_314_322" x1="120.109" y1="111.687" x2="112.58" y2="111.687" gradientUnits="userSpaceOnUse">
<stop stop-color="#F296D2"/>
<stop offset="1" stop-color="#FFB483"/>
</linearGradient>
<linearGradient id="paint2_linear_314_322" x1="111.844" y1="136.218" x2="101.214" y2="136.218" gradientUnits="userSpaceOnUse">
<stop stop-color="#F296D2"/>
<stop offset="1" stop-color="#FFB483"/>
</linearGradient>
<linearGradient id="paint3_linear_314_322" x1="108.521" y1="166.051" x2="100.105" y2="166.051" gradientUnits="userSpaceOnUse">
<stop stop-color="#F296D2"/>
<stop offset="1" stop-color="#FFB483"/>
</linearGradient>
<linearGradient id="paint4_linear_314_322" x1="132.143" y1="186.397" x2="113.836" y2="186.397" gradientUnits="userSpaceOnUse">
<stop stop-color="#F296D2"/>
<stop offset="1" stop-color="#FFB483"/>
</linearGradient>
<linearGradient id="paint5_linear_314_322" x1="132.143" y1="129.152" x2="120.11" y2="129.152" gradientUnits="userSpaceOnUse">
<stop stop-color="#F296D2"/>
<stop offset="1" stop-color="#FFB483"/>
</linearGradient>
<linearGradient id="paint6_linear_314_322" x1="132.143" y1="153.258" x2="103.797" y2="153.258" gradientUnits="userSpaceOnUse">
<stop stop-color="#F296D2"/>
<stop offset="1" stop-color="#FFB483"/>
</linearGradient>
<linearGradient id="paint7_linear_314_322" x1="126.238" y1="172.93" x2="108.522" y2="172.93" gradientUnits="userSpaceOnUse">
<stop stop-color="#F296D2"/>
<stop offset="1" stop-color="#FFB483"/>
</linearGradient>
<linearGradient id="paint8_linear_314_322" x1="144.182" y1="121.592" x2="157.1" y2="121.592" gradientUnits="userSpaceOnUse">
<stop stop-color="#F296D2"/>
<stop offset="1" stop-color="#FFB483"/>
</linearGradient>
<linearGradient id="paint9_linear_314_322" x1="160.494" y1="148.881" x2="164.292" y2="148.881" gradientUnits="userSpaceOnUse">
<stop stop-color="#F296D2"/>
<stop offset="1" stop-color="#FFB483"/>
</linearGradient>
<linearGradient id="paint10_linear_314_322" x1="138.053" y1="175.344" x2="158.352" y2="175.344" gradientUnits="userSpaceOnUse">
<stop stop-color="#F296D2"/>
<stop offset="1" stop-color="#FFB483"/>
</linearGradient>
<linearGradient id="paint11_linear_314_322" x1="132.148" y1="136.218" x2="160.494" y2="136.218" gradientUnits="userSpaceOnUse">
<stop stop-color="#F296D2"/>
<stop offset="1" stop-color="#FFB483"/>
</linearGradient>
<linearGradient id="paint12_linear_314_322" x1="132.148" y1="150.454" x2="141.228" y2="150.454" gradientUnits="userSpaceOnUse">
<stop stop-color="#F296D2"/>
<stop offset="1" stop-color="#FFB483"/>
</linearGradient>
<linearGradient id="paint13_linear_314_322" x1="150.75" y1="155.305" x2="160.494" y2="155.305" gradientUnits="userSpaceOnUse">
<stop stop-color="#F296D2"/>
<stop offset="1" stop-color="#FFB483"/>
</linearGradient>
<linearGradient id="paint14_linear_314_322" x1="132.148" y1="176.517" x2="138.054" y2="176.517" gradientUnits="userSpaceOnUse">
<stop stop-color="#F296D2"/>
<stop offset="1" stop-color="#FFB483"/>
</linearGradient>
</defs>
</svg>
