<svg width="265" height="290" viewBox="0 0 265 290" fill="none" xmlns="http://www.w3.org/2000/svg">
<g filter="url(#filter0_ddd_338_288)">
<path d="M132.168 115.903V100.004L120.136 115.903H132.168Z" fill="#141327"/>
<path d="M118.186 105.786L120.136 115.934C123.95 110.906 131.636 100.714 132.168 100.004C125.894 99.8549 120.376 103.641 118.186 105.786Z" fill="#141327"/>
<path d="M118.669 105.305L120.137 115.902C118.168 115.212 113.379 113.492 112.08 113.019C114.265 109.824 117.062 106.59 118.669 105.305Z" fill="#141327"/>
<path d="M111.869 128.028L120.137 115.9C118.168 115.21 113.966 113.712 112.608 113.238C109.581 117.158 107.901 119.123 106.937 122.177L111.869 128.028Z" fill="#141327"/>
<path d="M104.488 128.993L111.869 128.031C111.057 127.045 108.708 124.149 106.937 122.02C106.11 123.558 105.054 127.465 104.488 128.993Z" fill="#141327"/>
<path d="M103.823 142.525L111.869 128.031C111.697 128.031 109.979 128.224 104.488 128.993C103.543 131.063 101.632 136.805 101.15 140.18L103.823 142.525Z" fill="#141327"/>
<path d="M101.149 140.18C99.6722 148.388 99.9839 152.065 100.131 155.319L103.822 142.525C103.65 142.377 102.802 141.422 101.149 140.18Z" fill="#141327"/>
<path d="M100.132 155.317L108.547 165.152L103.823 142.523L100.132 155.317Z" fill="#141327"/>
<path d="M105.963 174.322C102.494 169.515 100.058 160.567 100.132 155.316L108.547 165.152L105.963 174.322Z" fill="#141327"/>
<path d="M105.964 174.322L108.548 165.152L126.264 181.717C123.951 181.988 118.233 182.664 113.863 183.196C110.497 180.889 107.195 176.319 105.964 174.322Z" fill="#141327"/>
<path d="M113.862 183.198L126.263 181.719L132.168 190.001C124.491 190.001 117.552 186.304 113.862 183.198Z" fill="#141327"/>
<path d="M120.136 115.828L132.168 139.418V115.828H120.136Z" fill="#141327"/>
<path d="M120.136 115.828L132.168 139.418L111.869 128.03L120.136 115.828Z" fill="#141327"/>
<path d="M111.869 128.031L103.823 142.525L132.168 139.42L111.869 128.031Z" fill="#141327"/>
<path d="M123.089 153.69L103.823 142.524L132.168 139.418L123.089 153.69Z" fill="#141327"/>
<path d="M132.168 139.344L123.089 153.69L132.168 159.014V139.344Z" fill="#141327"/>
<path d="M113.566 161.529L103.823 142.523L118.186 149.18L132.168 159.014L113.566 161.529Z" fill="#141327"/>
<path d="M108.547 165.152L103.823 142.523L113.566 161.529L108.547 165.152Z" fill="#141327"/>
<path d="M126.263 181.718L132.168 159.016L113.566 161.53L126.263 181.718Z" fill="#141327"/>
<path d="M113.567 161.527L126.264 181.716L108.548 165.151L113.567 161.527Z" fill="#141327"/>
<path d="M132.168 190.001V159.016L126.263 181.718L132.168 190.001Z" fill="#141327"/>
<path d="M132.172 115.903V100.004L144.204 115.903H132.172Z" fill="#141327"/>
<path d="M145.606 106.214L144.204 115.934C140.39 110.905 132.703 100.714 132.172 100.004C138.446 99.8544 143.416 104.07 145.606 106.214Z" fill="#141327"/>
<path d="M145.606 106.215L144.203 115.902C146.172 115.212 150.433 113.713 151.732 113.24C149.547 110.045 146.737 107.225 145.606 106.215Z" fill="#141327"/>
<path d="M152.47 128.028L144.203 115.9C146.172 115.21 150.374 113.712 151.732 113.238C154.759 117.158 155.866 119.968 157.121 122.408L152.47 128.028Z" fill="#141327"/>
<path d="M159.852 128.988L152.471 128.026C153.283 127.04 155.35 124.536 157.121 122.406C157.948 123.944 159.286 127.46 159.852 128.988Z" fill="#141327"/>
<path d="M160.517 142.525L152.471 128.031C152.643 128.031 154.36 128.224 159.852 128.993C160.797 131.063 162.411 137.546 163.1 140.529L160.517 142.525Z" fill="#141327"/>
<path d="M163.101 140.527C164.577 148.736 164.356 152.064 164.208 155.317L160.518 142.524C160.69 142.376 161.448 141.77 163.101 140.527Z" fill="#141327"/>
<path d="M164.208 155.317L155.793 165.152L160.517 142.523L164.208 155.317Z" fill="#141327"/>
<path d="M158.377 174.322C161.846 169.515 164.282 160.567 164.208 155.316L155.793 165.152L158.377 174.322Z" fill="#141327"/>
<path d="M158.375 174.322L155.792 165.152L138.076 181.717C140.389 181.988 146.107 182.664 150.477 183.196C153.843 180.889 157.145 176.319 158.375 174.322Z" fill="#141327"/>
<path d="M150.478 183.194L138.077 181.715L132.172 189.997C139.849 189.997 146.787 186.3 150.478 183.194Z" fill="#141327"/>
<path d="M144.204 115.828L132.172 139.418V115.828H144.204Z" fill="#141327"/>
<path d="M144.204 115.828L132.172 139.418L152.471 128.03L144.204 115.828Z" fill="#141327"/>
<path d="M152.471 128.031L160.517 142.525L132.172 139.42L152.471 128.031Z" fill="#141327"/>
<path d="M141.251 153.69L160.517 142.524L132.172 139.418L141.251 153.69Z" fill="#141327"/>
<path d="M132.172 139.344L141.251 153.69L132.172 159.014V139.344Z" fill="#141327"/>
<path d="M150.773 161.529L160.517 142.523L145.832 150.305L132.172 159.014L150.773 161.529Z" fill="#141327"/>
<path d="M155.793 165.152L160.517 142.523L150.773 161.529L155.793 165.152Z" fill="#141327"/>
<path d="M138.077 181.718L132.172 159.016L150.773 161.53L138.077 181.718Z" fill="#141327"/>
<path d="M150.772 161.527L138.076 181.716L155.792 165.151L150.772 161.527Z" fill="#141327"/>
<path d="M132.172 190.001V159.016L138.077 181.718L132.172 190.001Z" fill="#141327"/>
<path d="M151.669 123.059C153.884 124.029 156.012 124.539 158.053 124.743C158.14 124.743 158.227 124.743 158.314 124.794C157.184 122.192 155.925 119.692 154.535 117.346C148.02 106.326 140.072 100.153 132.037 100C132.081 100.102 132.124 100.153 132.167 100.255C137.336 112.04 143.851 119.692 151.669 123.059Z" fill="#B3ADF9"/>
<path d="M124.48 166.525C117.965 158.261 113.057 148.618 109.8 138.007C108.193 132.752 107.15 127.753 106.542 123.365C106.542 123.212 106.499 123.11 106.499 122.957C104.414 127.6 102.764 132.599 101.678 137.548C101.721 137.701 101.765 137.854 101.808 137.956C104.284 146.17 107.889 153.669 112.536 160.301C116.923 166.576 122.265 172.137 128.389 176.831C135.251 182.085 141.636 185.044 145.24 186.473C145.327 186.524 145.458 186.575 145.544 186.575C145.849 186.422 146.153 186.218 146.457 186.065C146.37 186.014 146.326 185.963 146.239 185.912C137.683 180.555 130.43 174.076 124.48 166.525Z" fill="#B3ADF9"/>
<path d="M164.092 152.599C162.92 152.752 161.747 152.803 160.618 152.803C155.102 152.803 150.02 151.171 145.329 147.855C134.993 140.61 128.651 126.479 125.177 115.918C123.657 111.225 122.527 106.889 121.746 103.368C121.746 103.266 121.702 103.215 121.702 103.113C121.007 103.572 120.269 104.083 119.574 104.644C119.574 104.746 119.574 104.848 119.531 104.95C118.923 116.072 120.616 126.377 124.612 135.611C128.304 144.08 133.907 151.63 141.29 158.16C147.935 164.027 154.841 167.955 159.923 170.353C159.966 170.404 160.053 170.404 160.096 170.455C162.616 165.149 164.136 159.027 164.309 152.548C164.223 152.599 164.136 152.599 164.092 152.599Z" fill="#B3ADF9"/>
<path d="M100.94 142.498C100.897 142.345 100.853 142.192 100.766 142.039C100.245 145.406 99.9847 148.671 100.028 151.783C100.376 173.21 115.056 190.352 132.776 189.995C136.164 189.944 139.378 189.229 142.418 188.005C142.331 187.954 142.201 187.903 142.114 187.852C132.038 183.363 110.93 170.914 100.94 142.498Z" fill="#92E7E8"/>
<path d="M140.031 160.251C128.912 150.456 116.49 133.519 117.272 106.939C117.272 106.837 117.272 106.684 117.272 106.582C114.232 109.541 111.322 113.418 108.759 118.214C108.586 118.571 108.412 118.877 108.238 119.234C108.238 119.387 108.282 119.489 108.282 119.642C108.846 124.744 109.932 130.764 111.887 137.192C115.057 147.497 119.835 156.782 126.132 164.792C132.213 172.495 139.683 179.077 148.457 184.331C148.544 184.382 148.587 184.433 148.674 184.484C152.8 181.525 156.318 177.444 158.967 172.649C158.924 172.598 158.837 172.598 158.794 172.546C153.582 170.149 146.719 166.169 140.031 160.251Z" fill="#92E7E8"/>
<path d="M159.184 127.446C156.578 127.293 153.798 126.681 150.932 125.457C142.332 121.784 135.253 113.315 129.78 100.357C129.737 100.255 129.693 100.204 129.693 100.102C127.652 100.357 125.654 100.969 123.656 101.989C123.656 102.091 123.7 102.142 123.7 102.244C126.349 114.182 132.864 136.272 146.371 145.761C151.67 149.486 157.577 150.914 164.048 150.098C164.135 150.098 164.179 150.098 164.266 150.047C164.092 142.956 162.311 134.946 159.401 127.497C159.358 127.446 159.271 127.446 159.184 127.446Z" fill="#92E7E8"/>
</g>
<defs>
<filter id="filter0_ddd_338_288" x="0" y="0" width="264.314" height="290" filterUnits="userSpaceOnUse" color-interpolation-filters="sRGB">
<feFlood flood-opacity="0" result="BackgroundImageFix"/>
<feColorMatrix in="SourceAlpha" type="matrix" values="0 0 0 0 0 0 0 0 0 0 0 0 0 0 0 0 0 0 127 0" result="hardAlpha"/>
<feOffset/>
<feGaussianBlur stdDeviation="20"/>
<feColorMatrix type="matrix" values="0 0 0 0 0.62 0 0 0 0 0 0 0 0 0 1 0 0 0 1 0"/>
<feBlend mode="normal" in2="BackgroundImageFix" result="effect1_dropShadow_338_288"/>
<feColorMatrix in="SourceAlpha" type="matrix" values="0 0 0 0 0 0 0 0 0 0 0 0 0 0 0 0 0 0 127 0" result="hardAlpha"/>
<feOffset/>
<feGaussianBlur stdDeviation="20"/>
<feColorMatrix type="matrix" values="0 0 0 0 0.619608 0 0 0 0 0 0 0 0 0 1 0 0 0 1 0"/>
<feBlend mode="normal" in2="effect1_dropShadow_338_288" result="effect2_dropShadow_338_288"/>
<feColorMatrix in="SourceAlpha" type="matrix" values="0 0 0 0 0 0 0 0 0 0 0 0 0 0 0 0 0 0 127 0" result="hardAlpha"/>
<feOffset/>
<feGaussianBlur stdDeviation="50"/>
<feColorMatrix type="matrix" values="0 0 0 0 0.156863 0 0 0 0 0.14902 0 0 0 0 0.294118 0 0 0 1 0"/>
<feBlend mode="normal" in2="effect2_dropShadow_338_288" result="effect3_dropShadow_338_288"/>
<feBlend mode="normal" in="SourceGraphic" in2="effect3_dropShadow_338_288" result="shape"/>
</filter>
</defs>
</svg>
