<svg width="265" height="291" viewBox="0 0 265 291" fill="none" xmlns="http://www.w3.org/2000/svg">
<g filter="url(#filter0_ddd_338_557)">
<path d="M132.428 115.903V100.004L120.396 115.903H132.428Z" fill="#141327"/>
<path d="M118.606 105.786L120.396 115.935C124.21 110.906 131.896 100.715 132.428 100.005C126.963 99.8405 121.178 103.698 118.606 105.786Z" fill="#141327"/>
<path d="M118.607 105.785L120.396 115.901C118.428 115.211 114.166 113.712 112.867 113.239C115.052 110.044 117.475 106.796 118.607 105.785Z" fill="#141327"/>
<path d="M112.129 128.028L120.396 115.901C118.428 115.21 114.019 113.329 112.661 112.855C109.634 116.775 108.643 119.927 107.197 122.498L112.129 128.028Z" fill="#141327"/>
<path d="M104.747 128.992L112.129 128.03C111.317 127.044 109.25 124.54 107.479 122.41C106.652 123.948 105.313 127.463 104.747 128.992Z" fill="#141327"/>
<path d="M104.083 142.525L112.129 128.031C111.957 128.031 110.239 128.224 104.747 128.993C103.803 131.063 102.188 137.546 101.499 140.529L104.083 142.525Z" fill="#141327"/>
<path d="M101.498 140.527C100.022 148.736 100.458 151.871 100.606 155.125L104.082 142.524C103.91 142.376 103.152 141.77 101.498 140.527Z" fill="#141327"/>
<path d="M100.767 155.285L108.807 165.152L104.082 142.523L100.767 155.285Z" fill="#141327"/>
<path d="M106.553 173.446C103.339 168.464 100.928 160.589 100.607 155.125L109.285 164.768L106.553 173.446Z" fill="#141327"/>
<path d="M106.552 173.606L108.806 165.152L126.963 181.802C124.65 182.074 118.445 182.606 114.106 182.767C110.74 180.46 107.783 175.603 106.552 173.606Z" fill="#141327"/>
<path d="M114.106 182.768L126.522 181.719L132.428 190.001C124.751 190.001 117.797 185.874 114.106 182.768Z" fill="#141327"/>
<path d="M120.396 115.824L132.428 139.414V115.824H120.396Z" fill="#141327"/>
<path d="M120.396 115.824L132.428 139.414L112.128 128.026L120.396 115.824Z" fill="#141327"/>
<path d="M112.128 128.027L104.083 142.522L132.428 139.416L112.128 128.027Z" fill="#141327"/>
<path d="M123.348 153.686L104.083 142.52L132.428 139.414L123.348 153.686Z" fill="#141327"/>
<path d="M132.428 139.34L123.348 153.686L132.428 159.011V139.34Z" fill="#141327"/>
<path d="M113.826 161.525L104.083 142.52L118.446 149.177L132.428 159.01L113.826 161.525Z" fill="#141327"/>
<path d="M108.807 165.148L104.083 142.52L113.826 161.525L108.807 165.148Z" fill="#141327"/>
<path d="M126.522 181.714L132.428 159.012L113.826 161.526L126.522 181.714Z" fill="#141327"/>
<path d="M113.827 161.523L126.523 181.712L108.808 165.147L113.827 161.523Z" fill="#141327"/>
<path d="M132.428 189.997V159.012L126.522 181.714L132.428 189.997Z" fill="#141327"/>
<path d="M132.428 115.903V100.004L144.46 115.903H132.428Z" fill="#141327"/>
<path d="M144.963 105.303L144.46 115.934C140.646 110.905 132.959 100.714 132.428 100.004C138.696 100.322 142.392 103.374 144.963 105.303Z" fill="#141327"/>
<path d="M144.962 105.305L144.459 115.904C146.427 115.213 150.689 113.715 151.988 113.241C149.803 110.047 146.409 106.269 144.962 105.305Z" fill="#141327"/>
<path d="M152.726 128.028L144.459 115.9C146.427 115.21 150.63 113.712 151.988 113.238C155.015 117.158 156.565 120.38 157.82 122.821L152.726 128.028Z" fill="#141327"/>
<path d="M160.108 128.992L152.727 128.03C153.539 127.044 155.605 124.54 157.377 122.41C158.204 123.948 159.542 127.463 160.108 128.992Z" fill="#141327"/>
<path d="M160.772 142.525L152.727 128.031C152.899 128.031 154.616 128.224 160.108 128.993C161.053 131.063 162.667 137.546 163.356 140.529L160.772 142.525Z" fill="#141327"/>
<path d="M163.357 140.527C164.833 148.736 164.397 151.71 164.249 154.964L160.773 142.524C160.946 142.376 161.704 141.77 163.357 140.527Z" fill="#141327"/>
<path d="M164.088 155.124L156.049 165.152L160.773 142.523L164.088 155.124Z" fill="#141327"/>
<path d="M158.142 174.091C161.678 168.627 163.767 159.627 164.41 154.645L156.049 165.154L158.142 174.091Z" fill="#141327"/>
<path d="M158.141 174.089L156.048 165.152L138.332 181.717C140.645 181.988 146.057 182.718 150.427 183.25C154.284 180.036 156.911 176.086 158.141 174.089Z" fill="#141327"/>
<path d="M150.749 182.93L138.333 181.719L132.428 190.001C140.105 190.001 147.058 186.036 150.749 182.93Z" fill="#141327"/>
<path d="M144.46 115.824L132.428 139.414V115.824H144.46Z" fill="#141327"/>
<path d="M144.46 115.824L132.428 139.414L152.727 128.026L144.46 115.824Z" fill="#141327"/>
<path d="M152.727 128.027L160.773 142.522L132.428 139.416L152.727 128.027Z" fill="#141327"/>
<path d="M141.507 153.686L160.773 142.52L132.428 139.414L141.507 153.686Z" fill="#141327"/>
<path d="M132.428 139.34L141.507 153.686L132.428 159.011V139.34Z" fill="#141327"/>
<path d="M151.029 161.525L160.773 142.52L146.088 150.302L132.428 159.01L151.029 161.525Z" fill="#141327"/>
<path d="M156.049 165.148L160.773 142.52L151.029 161.525L156.049 165.148Z" fill="#141327"/>
<path d="M138.333 181.714L132.428 159.012L151.029 161.526L138.333 181.714Z" fill="#141327"/>
<path d="M151.028 161.523L138.332 181.712L156.048 165.147L151.028 161.523Z" fill="#141327"/>
<path d="M132.428 189.997V159.012L138.333 181.714L132.428 189.997Z" fill="#141327"/>
<path d="M122.754 110.155C125.161 110.767 127.139 112.449 128.429 114.897L132.384 122.646L136.34 114.897C137.587 112.398 139.607 110.716 142.015 110.155C144.423 109.543 146.831 110.155 148.808 111.787L153.753 115.865C151.603 112.398 149.281 109.441 146.874 107.045C142.574 107.963 138.189 108.422 133.717 108.422C130.063 108.422 126.365 108.116 122.625 107.504C120.948 107.249 119.314 106.892 117.852 106.535C115.187 109.135 112.65 112.449 110.328 116.426L115.96 111.787C117.981 110.155 120.389 109.594 122.754 110.155Z" fill="url(#paint0_linear_338_557)"/>
<path d="M147.864 113.467C146.273 112.142 144.295 111.683 142.404 112.142C140.469 112.6 138.878 113.977 137.846 115.965L133.977 123.511C140.727 123.46 148.165 122.542 155.947 120.146L147.864 113.467Z" fill="url(#paint1_linear_338_557)"/>
<path d="M126.968 116.016C125.936 114.028 124.345 112.651 122.41 112.192C120.475 111.734 118.541 112.192 116.95 113.518L109.34 119.789C114.628 121.472 122.066 123.205 130.794 123.511L126.968 116.016Z" fill="url(#paint2_linear_338_557)"/>
<path d="M155.216 169.041L148.853 175.006C147.176 177.045 144.941 178.167 142.576 178.167C142.318 178.167 142.06 178.167 141.802 178.116C139.136 177.861 136.772 176.179 135.267 173.527L132.386 168.327L129.505 173.527C128.044 176.179 125.636 177.861 122.97 178.116C122.712 178.167 122.454 178.167 122.196 178.167C119.832 178.167 117.553 177.045 115.919 175.006L109.513 169.041C107.965 167.613 105.815 167.562 104.225 168.939C106.03 173.171 108.438 176.943 111.319 180.053C117.166 181.379 124.432 182.501 132.644 182.501C139.179 182.501 146.273 181.838 153.711 180.053C156.506 176.943 158.871 173.273 160.634 169.194L160.548 169.092C159.043 167.562 156.807 167.562 155.216 169.041Z" fill="url(#paint3_linear_338_557)"/>
<path d="M162.91 161.289C153.623 165.215 143.864 167.255 133.76 167.408L136.597 172.557C137.801 174.698 139.736 176.075 141.886 176.279C144.035 176.483 146.142 175.565 147.647 173.679C147.69 173.628 147.69 173.628 147.733 173.577L154.182 167.561C156.289 165.572 159.256 165.521 161.405 167.408C162.136 165.419 162.738 163.329 163.211 161.188C163.125 161.188 163.039 161.238 162.91 161.289Z" fill="url(#paint4_linear_338_557)"/>
<path d="M110.587 167.513L117.036 173.529C117.079 173.58 117.079 173.58 117.122 173.631C118.627 175.518 120.691 176.435 122.884 176.231C125.033 176.027 126.968 174.651 128.172 172.51L131.053 167.36C127.656 167.258 124.217 167.003 120.734 166.493C109.641 164.862 102.332 161.497 102.16 161.395C102.074 161.344 101.945 161.293 101.859 161.293C102.332 163.332 102.891 165.321 103.622 167.207C105.729 165.474 108.524 165.627 110.587 167.513Z" fill="url(#paint5_linear_338_557)"/>
<path d="M133.717 106.381C137.544 106.381 141.284 106.024 145.025 105.361C140.769 101.792 136.254 99.9059 131.74 100.008C127.612 100.11 123.571 101.792 119.744 104.902C120.733 105.106 121.808 105.31 122.883 105.514C126.494 106.075 130.149 106.381 133.717 106.381Z" fill="#92E7E8"/>
<path d="M114.07 182.707C119.445 187.398 126.023 190.151 133.117 189.998C139.824 189.845 146.015 187.194 151.089 182.707C145.069 183.931 138.964 184.542 132.73 184.542C125.722 184.542 119.402 183.778 114.07 182.707Z" fill="#92E7E8"/>
<path fill-rule="evenodd" clip-rule="evenodd" d="M118.871 144.36L107.705 121.54L107.705 121.54L118.871 144.36L124.294 136.003L124.294 136.003C125.677 134.128 129.239 129.317 132.429 125.075C135.619 129.317 139.182 134.128 140.564 136.003L140.564 136.003L145.988 144.36L157.154 121.54L157.154 121.54L145.988 144.36L146.12 144.314L145.988 144.36L151.412 154.003L163.056 138.414L163.026 138.425L163.056 138.414C162.259 134.236 159.388 125.557 157.154 121.539L157.155 121.539L157.154 121.539L157.154 121.539L157.154 121.539C157.154 121.539 157.154 121.539 157.154 121.539L157.154 121.539L157.154 121.54C152.686 123.147 141.521 125.718 132.429 125.075C123.337 125.718 112.172 123.147 107.705 121.54L107.704 121.539L107.705 121.539L107.704 121.539L107.704 121.539L107.704 121.539L107.704 121.539L107.704 121.539C105.471 125.557 102.6 134.236 101.802 138.414L101.833 138.425L101.802 138.414L113.447 154.003L118.871 144.36L118.739 144.314L118.871 144.36ZM113.447 154.003L101.802 138.414C100.526 143.557 99.5685 151.753 101.004 158.503L101.402 158.36L101.004 158.504L101.041 158.519L101.041 158.519L101.041 158.519L101.041 158.519L101.042 158.519C103.812 159.646 108.518 161.561 112.171 162.361L113.447 154.004L112.739 154.26L113.447 154.003ZM126.209 161.718L112.171 162.361L113.447 154.004L126.209 161.718ZM132.429 164.933L126.208 161.719L112.17 162.362C118.391 164.129 127.325 165.254 132.429 164.933ZM132.429 164.933C137.534 165.254 146.467 164.129 152.688 162.362L138.651 161.719L132.429 164.933ZM152.688 162.361L138.65 161.718L151.412 154.004L152.688 162.361ZM152.12 154.26L151.412 154.004L152.688 162.361C156.34 161.561 161.047 159.646 163.817 158.519L163.817 158.519L163.854 158.504L163.456 158.36L163.854 158.503C165.29 151.753 164.333 143.557 163.057 138.414L151.412 154.003L152.12 154.26Z" fill="#92E7E8"/>
<path d="M132.43 136.003V125.074L124.294 136.003H132.43Z" fill="url(#paint6_linear_338_557)"/>
<path d="M124.294 136.004L132.43 152.075V136.004H124.294Z" fill="url(#paint7_linear_338_557)"/>
<path d="M124.294 136.004L132.43 152.075L118.87 144.361L124.294 136.004Z" fill="#28264B"/>
<path d="M118.87 144.359L113.447 154.002L132.43 152.074L118.87 144.359Z" fill="url(#paint8_linear_338_557)"/>
<path d="M126.208 161.717L113.447 154.003L132.43 152.074L126.208 161.717Z" fill="#28264B"/>
<path d="M132.43 152.074L126.208 161.717L132.43 164.931V152.074Z" fill="url(#paint9_linear_338_557)"/>
<path d="M132.43 136.003V125.074L140.565 136.003H132.43Z" fill="url(#paint10_linear_338_557)"/>
<path d="M140.565 136.004L132.43 152.075V136.004H140.565Z" fill="url(#paint11_linear_338_557)"/>
<path d="M140.565 136.004L132.43 152.075L145.989 144.361L140.565 136.004Z" fill="#28264B"/>
<path d="M145.989 144.359L151.413 154.002L132.43 152.074L145.989 144.359Z" fill="url(#paint12_linear_338_557)"/>
<path d="M138.651 161.717L151.413 154.003L132.43 152.074L138.651 161.717Z" fill="#28264B"/>
<path d="M132.43 152.074L138.651 161.717L132.43 164.931V152.074Z" fill="url(#paint13_linear_338_557)"/>
</g>
<defs>
<filter id="filter0_ddd_338_557" x="0.287109" y="0" width="264.285" height="290.004" filterUnits="userSpaceOnUse" color-interpolation-filters="sRGB">
<feFlood flood-opacity="0" result="BackgroundImageFix"/>
<feColorMatrix in="SourceAlpha" type="matrix" values="0 0 0 0 0 0 0 0 0 0 0 0 0 0 0 0 0 0 127 0" result="hardAlpha"/>
<feOffset/>
<feGaussianBlur stdDeviation="20"/>
<feColorMatrix type="matrix" values="0 0 0 0 0.62 0 0 0 0 0 0 0 0 0 1 0 0 0 1 0"/>
<feBlend mode="normal" in2="BackgroundImageFix" result="effect1_dropShadow_338_557"/>
<feColorMatrix in="SourceAlpha" type="matrix" values="0 0 0 0 0 0 0 0 0 0 0 0 0 0 0 0 0 0 127 0" result="hardAlpha"/>
<feOffset/>
<feGaussianBlur stdDeviation="20"/>
<feColorMatrix type="matrix" values="0 0 0 0 0.619608 0 0 0 0 0 0 0 0 0 1 0 0 0 1 0"/>
<feBlend mode="normal" in2="effect1_dropShadow_338_557" result="effect2_dropShadow_338_557"/>
<feColorMatrix in="SourceAlpha" type="matrix" values="0 0 0 0 0 0 0 0 0 0 0 0 0 0 0 0 0 0 127 0" result="hardAlpha"/>
<feOffset/>
<feGaussianBlur stdDeviation="50"/>
<feColorMatrix type="matrix" values="0 0 0 0 0.156863 0 0 0 0 0.14902 0 0 0 0 0.294118 0 0 0 1 0"/>
<feBlend mode="normal" in2="effect2_dropShadow_338_557" result="effect3_dropShadow_338_557"/>
<feBlend mode="normal" in="SourceGraphic" in2="effect3_dropShadow_338_557" result="shape"/>
</filter>
<linearGradient id="paint0_linear_338_557" x1="110.328" y1="115.635" x2="153.753" y2="115.635" gradientUnits="userSpaceOnUse">
<stop stop-color="#F296D2"/>
<stop offset="1" stop-color="#FFB483"/>
</linearGradient>
<linearGradient id="paint1_linear_338_557" x1="133.977" y1="118.488" x2="155.947" y2="118.488" gradientUnits="userSpaceOnUse">
<stop stop-color="#F296D2"/>
<stop offset="1" stop-color="#FFB483"/>
</linearGradient>
<linearGradient id="paint2_linear_338_557" x1="109.34" y1="118.51" x2="130.794" y2="118.51" gradientUnits="userSpaceOnUse">
<stop stop-color="#F296D2"/>
<stop offset="1" stop-color="#FFB483"/>
</linearGradient>
<linearGradient id="paint3_linear_338_557" x1="104.225" y1="176.163" x2="160.634" y2="176.163" gradientUnits="userSpaceOnUse">
<stop stop-color="#F296D2"/>
<stop offset="1" stop-color="#FFB483"/>
</linearGradient>
<linearGradient id="paint4_linear_338_557" x1="133.76" y1="169.727" x2="163.211" y2="169.727" gradientUnits="userSpaceOnUse">
<stop stop-color="#F296D2"/>
<stop offset="1" stop-color="#FFB483"/>
</linearGradient>
<linearGradient id="paint5_linear_338_557" x1="101.859" y1="169.746" x2="131.053" y2="169.746" gradientUnits="userSpaceOnUse">
<stop stop-color="#F296D2"/>
<stop offset="1" stop-color="#FFB483"/>
</linearGradient>
<linearGradient id="paint6_linear_338_557" x1="132.43" y1="131.247" x2="124.294" y2="131.247" gradientUnits="userSpaceOnUse">
<stop stop-color="#F296D2"/>
<stop offset="1" stop-color="#FFB483"/>
</linearGradient>
<linearGradient id="paint7_linear_338_557" x1="132.43" y1="145.081" x2="124.294" y2="145.081" gradientUnits="userSpaceOnUse">
<stop stop-color="#F296D2"/>
<stop offset="1" stop-color="#FFB483"/>
</linearGradient>
<linearGradient id="paint8_linear_338_557" x1="132.43" y1="149.806" x2="113.447" y2="149.806" gradientUnits="userSpaceOnUse">
<stop stop-color="#F296D2"/>
<stop offset="1" stop-color="#FFB483"/>
</linearGradient>
<linearGradient id="paint9_linear_338_557" x1="132.43" y1="159.336" x2="126.208" y2="159.336" gradientUnits="userSpaceOnUse">
<stop stop-color="#F296D2"/>
<stop offset="1" stop-color="#FFB483"/>
</linearGradient>
<linearGradient id="paint10_linear_338_557" x1="132.43" y1="131.247" x2="140.565" y2="131.247" gradientUnits="userSpaceOnUse">
<stop stop-color="#F296D2"/>
<stop offset="1" stop-color="#FFB483"/>
</linearGradient>
<linearGradient id="paint11_linear_338_557" x1="132.43" y1="145.081" x2="140.565" y2="145.081" gradientUnits="userSpaceOnUse">
<stop stop-color="#F296D2"/>
<stop offset="1" stop-color="#FFB483"/>
</linearGradient>
<linearGradient id="paint12_linear_338_557" x1="132.43" y1="149.806" x2="151.413" y2="149.806" gradientUnits="userSpaceOnUse">
<stop stop-color="#F296D2"/>
<stop offset="1" stop-color="#FFB483"/>
</linearGradient>
<linearGradient id="paint13_linear_338_557" x1="132.43" y1="159.336" x2="138.651" y2="159.336" gradientUnits="userSpaceOnUse">
<stop stop-color="#F296D2"/>
<stop offset="1" stop-color="#FFB483"/>
</linearGradient>
</defs>
</svg>
