<svg width="265" height="290" viewBox="0 0 265 290" fill="none" xmlns="http://www.w3.org/2000/svg">
<g filter="url(#filter0_ddd_338_505)">
<path d="M132.754 115.903V100.004L120.722 115.903H132.754Z" fill="#141327"/>
<path d="M119.319 106.214L120.722 115.934C124.536 110.905 132.222 100.714 132.754 100.004C126.48 99.8544 121.509 104.07 119.319 106.214Z" fill="#141327"/>
<path d="M119.318 106.215L120.721 115.902C118.752 115.212 114.491 113.713 113.191 113.24C115.376 110.046 118.186 107.226 119.318 106.215Z" fill="#141327"/>
<path d="M112.453 128.028L120.721 115.9C118.752 115.21 114.183 113.169 112.824 112.695C109.798 116.615 108.936 119.416 107.681 121.856L112.453 128.028Z" fill="#141327"/>
<path d="M104.79 128.93L112.455 128.03C111.643 127.044 109.294 124.309 107.523 122.18C106.696 123.718 105.272 127.162 104.79 128.93Z" fill="#141327"/>
<path d="M104.409 142.526L112.455 128.031C112.283 128.031 110.282 128 104.79 128.77C103.845 130.84 102.38 136.323 101.576 140.502L104.409 142.526Z" fill="#141327"/>
<path d="M101.825 140.527C100.348 148.736 100.612 151.871 100.759 155.125L104.408 142.524C104.236 142.376 103.478 141.77 101.825 140.527Z" fill="#141327"/>
<path d="M100.76 154.964L109.133 165.152L104.409 142.523L100.76 154.964Z" fill="#141327"/>
<path d="M106.867 174.251C103.331 168.947 100.921 160.108 100.921 154.965L109.133 165.153L106.867 174.251Z" fill="#141327"/>
<path d="M107.028 174.411L109.134 165.152L126.85 181.717C124.537 181.989 118.818 182.664 114.448 183.196C111.082 180.889 108.259 176.408 107.028 174.411Z" fill="#141327"/>
<path d="M114.447 183.198L126.849 181.719L132.754 190.001C125.077 190.001 118.138 186.304 114.447 183.198Z" fill="#141327"/>
<path d="M120.722 115.828L132.754 139.419V115.828H120.722Z" fill="#141327"/>
<path d="M120.722 115.828L132.754 139.419L112.454 128.03L120.722 115.828Z" fill="#141327"/>
<path d="M112.454 128.031L104.408 142.526L132.754 139.42L112.454 128.031Z" fill="#141327"/>
<path d="M123.674 153.691L104.408 142.524L132.754 139.418L123.674 153.691Z" fill="#141327"/>
<path d="M132.754 139.344L123.674 153.69L132.754 159.015V139.344Z" fill="#141327"/>
<path d="M114.152 161.529L104.408 142.523L118.772 149.181L132.754 159.015L114.152 161.529Z" fill="#141327"/>
<path d="M109.133 165.152L104.409 142.523L114.152 161.529L109.133 165.152Z" fill="#141327"/>
<path d="M126.849 181.719L132.754 159.016L114.152 161.53L126.849 181.719Z" fill="#141327"/>
<path d="M114.153 161.527L126.85 181.716L109.134 165.151L114.153 161.527Z" fill="#141327"/>
<path d="M132.754 190.001V159.016L126.849 181.719L132.754 190.001Z" fill="#141327"/>
<path d="M132.756 115.903V100.004L144.788 115.903H132.756Z" fill="#141327"/>
<path d="M146.19 106.214L144.788 115.934C140.974 110.905 133.287 100.714 132.756 100.004C139.03 99.8544 144.001 104.07 146.19 106.214Z" fill="#141327"/>
<path d="M146.192 106.215L144.789 115.902C146.758 115.212 151.019 113.713 152.318 113.24C150.133 110.046 147.323 107.226 146.192 106.215Z" fill="#141327"/>
<path d="M153.057 128.029L144.789 115.901C146.758 115.21 150.96 113.712 152.318 113.238C155.345 117.158 156.452 119.968 157.707 122.408L153.057 128.029Z" fill="#141327"/>
<path d="M160.559 128.93L153.055 128.03C153.867 127.044 155.894 124.149 157.666 122.02C158.493 123.558 159.993 127.402 160.559 128.93Z" fill="#141327"/>
<path d="M161.101 142.523L153.055 128.029C153.227 128.029 154.906 127.838 160.398 128.607C161.485 130.634 163.13 136.803 163.773 140.5L161.101 142.523Z" fill="#141327"/>
<path d="M163.685 140.527C165.161 148.736 164.94 152.064 164.792 155.318L161.102 142.524C161.274 142.376 162.032 141.77 163.685 140.527Z" fill="#141327"/>
<path d="M164.792 155.317L156.377 165.152L161.101 142.523L164.792 155.317Z" fill="#141327"/>
<path d="M158.961 174.322C162.43 169.515 164.866 160.567 164.792 155.316L156.377 165.152L158.961 174.322Z" fill="#141327"/>
<path d="M158.96 174.322L156.376 165.152L138.66 181.717C140.973 181.989 146.691 182.664 151.061 183.196C154.427 180.889 157.729 176.319 158.96 174.322Z" fill="#141327"/>
<path d="M151.062 183.198L138.661 181.719L132.756 190.001C140.433 190.001 147.372 186.304 151.062 183.198Z" fill="#141327"/>
<path d="M144.788 115.828L132.756 139.419V115.828H144.788Z" fill="#141327"/>
<path d="M144.788 115.828L132.756 139.419L153.055 128.03L144.788 115.828Z" fill="#141327"/>
<path d="M153.055 128.031L161.101 142.526L132.756 139.42L153.055 128.031Z" fill="#141327"/>
<path d="M141.835 153.691L161.101 142.524L132.756 139.418L141.835 153.691Z" fill="#141327"/>
<path d="M132.756 139.344L141.835 153.69L132.756 159.015V139.344Z" fill="#141327"/>
<path d="M151.358 161.529L161.101 142.523L146.417 150.306L132.756 159.015L151.358 161.529Z" fill="#141327"/>
<path d="M156.377 165.152L161.101 142.523L151.357 161.529L156.377 165.152Z" fill="#141327"/>
<path d="M138.661 181.719L132.756 159.016L151.358 161.53L138.661 181.719Z" fill="#141327"/>
<path d="M151.357 161.527L138.66 181.716L156.376 165.151L151.357 161.527Z" fill="#141327"/>
<path d="M132.756 190.001V159.016L138.661 181.719L132.756 190.001Z" fill="#141327"/>
<path d="M131.964 138.616C141.128 138.616 151.334 137.236 162.061 133.508C161.887 132.895 161.67 132.231 161.496 131.618C161.322 131.107 161.149 130.596 160.975 130.085C160.801 129.575 160.584 129.064 160.41 128.553C159.889 129.319 159.107 129.779 158.239 129.779C156.675 129.779 155.416 128.298 155.416 126.459C155.416 124.671 156.632 123.19 158.152 123.139C157.24 121.147 156.241 119.206 155.155 117.418C155.112 117.367 155.112 117.316 155.069 117.316C147.642 119.614 139.955 120.789 132.138 120.789C127.795 120.789 123.409 120.432 118.935 119.716C115.504 119.155 112.378 118.44 109.728 117.673C109.598 117.878 109.468 118.133 109.381 118.337C108.556 119.87 107.774 121.504 107.036 123.139C107.123 123.139 107.209 123.139 107.296 123.139C108.86 123.139 110.119 124.62 110.119 126.459C110.119 128.298 108.86 129.779 107.296 129.779C106.341 129.779 105.472 129.217 104.951 128.298C104.777 128.757 104.604 129.268 104.43 129.728C103.952 131.209 103.518 132.639 103.084 134.121C110.032 136.368 120.108 138.616 131.964 138.616ZM141.692 126.408C143.256 126.408 144.515 127.889 144.515 129.728C144.515 131.567 143.256 133.048 141.692 133.048C140.129 133.048 138.869 131.567 138.869 129.728C138.869 127.889 140.129 126.408 141.692 126.408ZM122.453 126.408C124.017 126.408 125.276 127.889 125.276 129.728C125.276 131.567 124.017 133.048 122.453 133.048C120.89 133.048 119.63 131.567 119.63 129.728C119.63 127.889 120.89 126.408 122.453 126.408Z" fill="url(#paint0_linear_338_505)"/>
<path d="M132.094 161.089C127.751 161.089 123.365 160.732 118.892 160.017C110.336 158.638 103.909 156.237 100.782 154.909C100.825 155.215 100.825 155.522 100.868 155.828C100.912 156.084 100.912 156.339 100.955 156.594C100.999 157.003 101.042 157.361 101.086 157.769C101.129 158.025 101.172 158.28 101.216 158.535C101.259 158.893 101.346 159.302 101.39 159.659C101.433 159.915 101.476 160.17 101.563 160.425C101.65 160.783 101.694 161.14 101.78 161.498C101.824 161.753 101.911 162.009 101.954 162.264C102.041 162.622 102.128 162.979 102.215 163.337C102.215 163.388 102.258 163.439 102.258 163.541C102.779 162.877 103.518 162.417 104.386 162.417C105.95 162.417 107.209 163.899 107.209 165.738C107.209 167.576 105.95 169.058 104.386 169.058C104.343 169.058 104.256 169.058 104.213 169.058C104.256 169.16 104.299 169.211 104.343 169.313C104.473 169.619 104.603 169.926 104.777 170.232C104.907 170.488 104.994 170.692 105.125 170.948C105.255 171.254 105.429 171.56 105.559 171.867C105.689 172.071 105.819 172.327 105.906 172.531C106.08 172.837 106.21 173.144 106.384 173.399C106.514 173.604 106.645 173.859 106.775 174.063C106.949 174.37 107.122 174.625 107.296 174.932C107.426 175.136 107.557 175.34 107.73 175.545C107.817 175.647 107.904 175.8 107.947 175.902C114.418 177.588 122.583 178.967 131.92 178.967C139.955 178.967 148.814 177.894 158.108 175.136C159.324 173.246 160.41 171.203 161.322 169.058C161.192 169.058 161.105 169.109 160.975 169.109C159.411 169.109 158.152 167.627 158.152 165.789C158.152 163.95 159.411 162.469 160.975 162.469C161.887 162.469 162.668 162.979 163.189 163.745C164.058 160.63 164.579 157.31 164.796 153.887H164.753C154.373 158.689 143.429 161.089 132.094 161.089ZM118.37 172.378C116.807 172.378 115.548 170.896 115.548 169.058C115.548 167.219 116.807 165.738 118.37 165.738C119.934 165.738 121.193 167.219 121.193 169.058C121.193 170.896 119.934 172.378 118.37 172.378ZM133.788 173.655C132.224 173.655 130.965 172.173 130.965 170.335C130.965 168.496 132.224 167.014 133.788 167.014C135.351 167.014 136.611 168.496 136.611 170.335C136.611 172.173 135.308 173.655 133.788 173.655ZM147.338 172.378C145.774 172.378 144.515 170.896 144.515 169.058C144.515 167.219 145.774 165.738 147.338 165.738C148.901 165.738 150.161 167.219 150.161 169.058C150.161 170.896 148.901 172.378 147.338 172.378Z" fill="url(#paint1_linear_338_505)"/>
<path d="M132.094 118.184C139.434 118.184 146.687 117.111 153.679 115.017L153.635 114.966C153.505 114.762 153.375 114.557 153.201 114.302C153.114 114.2 153.027 114.047 152.94 113.944C152.81 113.74 152.68 113.536 152.55 113.383C152.463 113.28 152.376 113.127 152.289 113.025C152.159 112.821 152.028 112.667 151.898 112.463C151.811 112.361 151.724 112.208 151.638 112.106C151.507 111.952 151.377 111.748 151.247 111.595C151.16 111.493 151.073 111.339 150.986 111.237C150.856 111.084 150.726 110.88 150.595 110.726C150.508 110.624 150.421 110.522 150.335 110.369C150.204 110.216 150.074 110.062 149.944 109.858C149.857 109.756 149.77 109.654 149.683 109.552C149.553 109.398 149.423 109.245 149.292 109.092C149.205 108.99 149.119 108.888 148.988 108.785C148.858 108.632 148.728 108.479 148.597 108.326C148.511 108.224 148.424 108.121 148.293 108.019C148.163 107.866 148.033 107.713 147.859 107.56C147.772 107.457 147.685 107.355 147.555 107.253C147.425 107.1 147.295 106.998 147.121 106.845C147.034 106.742 146.947 106.64 146.817 106.589C146.687 106.436 146.556 106.334 146.383 106.18C146.296 106.078 146.165 106.027 146.079 105.925C145.948 105.823 145.775 105.67 145.644 105.568C145.557 105.465 145.427 105.414 145.34 105.312C145.21 105.21 145.036 105.057 144.906 104.955C144.819 104.852 144.689 104.801 144.602 104.699C144.472 104.597 144.298 104.495 144.168 104.393C144.081 104.342 143.951 104.24 143.864 104.188C143.733 104.086 143.56 103.984 143.429 103.882C143.343 103.831 143.212 103.729 143.125 103.678C142.995 103.575 142.821 103.473 142.691 103.371C142.604 103.32 142.474 103.218 142.387 103.167C142.257 103.065 142.083 102.963 141.953 102.911C141.866 102.86 141.736 102.809 141.649 102.707C141.519 102.605 141.345 102.554 141.215 102.452C141.128 102.401 140.997 102.35 140.91 102.299C140.78 102.196 140.606 102.145 140.476 102.094C140.389 102.043 140.259 101.992 140.172 101.941C140.042 101.89 139.868 101.788 139.738 101.737C139.608 101.686 139.521 101.635 139.39 101.583C139.26 101.532 139.086 101.481 138.956 101.379C138.826 101.328 138.739 101.277 138.609 101.226C138.478 101.175 138.305 101.124 138.174 101.073C138.044 101.022 137.957 100.97 137.827 100.97C137.697 100.919 137.566 100.868 137.393 100.817C137.262 100.766 137.176 100.766 137.045 100.715C136.915 100.664 136.785 100.613 136.611 100.613C136.481 100.562 136.394 100.562 136.264 100.511C136.133 100.46 136.003 100.46 135.873 100.409C135.742 100.358 135.656 100.358 135.525 100.358C135.395 100.306 135.265 100.306 135.134 100.255C135.004 100.255 134.874 100.204 134.787 100.204C134.657 100.204 134.526 100.153 134.396 100.153C134.266 100.153 134.136 100.102 134.005 100.102C133.875 100.102 133.745 100.051 133.614 100.051C133.484 100.051 133.354 100.051 133.224 100C133.093 100 132.963 100 132.833 100C132.702 100 132.572 100 132.442 100C132.268 100 132.094 100 131.877 100C131.617 100 131.313 100 131.052 100.051C123.799 100.562 116.764 105.976 110.944 115.375C113.376 116.039 116.112 116.652 119.152 117.111C123.539 117.826 127.882 118.184 132.094 118.184Z" fill="#92E7E8"/>
<path d="M132.095 158.536C143.126 158.536 153.853 156.187 163.972 151.487C164.276 151.334 164.58 151.232 164.884 151.13C164.884 150.926 164.884 150.772 164.884 150.568C164.884 149.904 164.84 149.24 164.797 148.576C164.623 145.869 164.276 143.06 163.711 140.199C163.451 138.769 163.103 137.339 162.712 135.909C152.81 139.382 142.474 141.17 131.921 141.17C119.848 141.17 109.598 138.82 102.433 136.573C102.259 137.339 102.085 138.105 101.911 138.871C101.434 141.17 101.086 143.468 100.869 145.716C100.652 147.81 100.565 149.904 100.609 151.845C100.609 151.947 100.609 151.998 100.609 152.1C103.127 153.224 109.902 155.982 119.153 157.464C123.539 158.179 127.882 158.536 132.095 158.536Z" fill="#92E7E8"/>
<path d="M155.763 178.405C148.032 180.448 140.041 181.521 131.92 181.521C123.799 181.521 116.459 180.448 110.379 179.069C110.553 179.274 110.727 179.427 110.857 179.631C111.074 179.886 111.291 180.091 111.508 180.346C111.682 180.55 111.856 180.704 112.03 180.857C112.247 181.061 112.464 181.317 112.681 181.521C112.855 181.674 113.029 181.879 113.246 182.032C113.463 182.236 113.68 182.44 113.941 182.645C114.114 182.798 114.331 182.951 114.505 183.104C114.722 183.309 114.983 183.513 115.2 183.666C115.374 183.82 115.591 183.973 115.808 184.126C116.025 184.33 116.286 184.484 116.503 184.637C116.72 184.79 116.894 184.943 117.111 185.045C117.371 185.199 117.589 185.352 117.849 185.556C118.066 185.709 118.283 185.812 118.501 185.965C118.761 186.118 118.978 186.271 119.239 186.425C119.456 186.527 119.673 186.68 119.89 186.782C120.151 186.935 120.411 187.037 120.629 187.191C120.846 187.293 121.106 187.395 121.323 187.497C121.584 187.599 121.845 187.753 122.105 187.855C122.322 187.957 122.583 188.059 122.8 188.161C123.061 188.263 123.321 188.365 123.582 188.468C123.842 188.57 124.06 188.621 124.32 188.723C124.581 188.825 124.841 188.876 125.102 188.978C125.362 189.03 125.58 189.132 125.84 189.183C126.101 189.234 126.361 189.336 126.622 189.387C126.882 189.438 127.143 189.489 127.404 189.54C127.664 189.591 127.925 189.642 128.229 189.694C128.489 189.745 128.75 189.796 129.01 189.796C129.271 189.847 129.532 189.898 129.836 189.898C130.096 189.949 130.357 189.949 130.617 189.949C130.878 189.949 131.182 190 131.442 190C131.703 190 131.964 190 132.268 190C132.615 190 133.006 190 133.353 190C133.918 190 134.439 189.949 135.004 189.898C135.568 189.847 136.089 189.796 136.611 189.694C137.132 189.591 137.696 189.54 138.217 189.438C138.869 189.285 139.52 189.132 140.172 188.927C141.084 188.672 141.952 188.365 142.821 188.008C143.472 187.753 144.124 187.446 144.732 187.14C148.988 185.301 152.723 182.236 155.763 178.405Z" fill="#92E7E8"/>
</g>
<defs>
<filter id="filter0_ddd_338_505" x="0.597656" y="0" width="264.301" height="290" filterUnits="userSpaceOnUse" color-interpolation-filters="sRGB">
<feFlood flood-opacity="0" result="BackgroundImageFix"/>
<feColorMatrix in="SourceAlpha" type="matrix" values="0 0 0 0 0 0 0 0 0 0 0 0 0 0 0 0 0 0 127 0" result="hardAlpha"/>
<feOffset/>
<feGaussianBlur stdDeviation="20"/>
<feColorMatrix type="matrix" values="0 0 0 0 0.62 0 0 0 0 0 0 0 0 0 1 0 0 0 1 0"/>
<feBlend mode="normal" in2="BackgroundImageFix" result="effect1_dropShadow_338_505"/>
<feColorMatrix in="SourceAlpha" type="matrix" values="0 0 0 0 0 0 0 0 0 0 0 0 0 0 0 0 0 0 127 0" result="hardAlpha"/>
<feOffset/>
<feGaussianBlur stdDeviation="20"/>
<feColorMatrix type="matrix" values="0 0 0 0 0.619608 0 0 0 0 0 0 0 0 0 1 0 0 0 1 0"/>
<feBlend mode="normal" in2="effect1_dropShadow_338_505" result="effect2_dropShadow_338_505"/>
<feColorMatrix in="SourceAlpha" type="matrix" values="0 0 0 0 0 0 0 0 0 0 0 0 0 0 0 0 0 0 127 0" result="hardAlpha"/>
<feOffset/>
<feGaussianBlur stdDeviation="50"/>
<feColorMatrix type="matrix" values="0 0 0 0 0.156863 0 0 0 0 0.14902 0 0 0 0 0.294118 0 0 0 1 0"/>
<feBlend mode="normal" in2="effect2_dropShadow_338_505" result="effect3_dropShadow_338_505"/>
<feBlend mode="normal" in="SourceGraphic" in2="effect3_dropShadow_338_505" result="shape"/>
</filter>
<linearGradient id="paint0_linear_338_505" x1="100.598" y1="150.833" x2="164.884" y2="150.833" gradientUnits="userSpaceOnUse">
<stop stop-color="#F296D2"/>
<stop offset="1" stop-color="#FFB483"/>
</linearGradient>
<linearGradient id="paint1_linear_338_505" x1="100.598" y1="150.833" x2="164.884" y2="150.833" gradientUnits="userSpaceOnUse">
<stop stop-color="#F296D2"/>
<stop offset="1" stop-color="#FFB483"/>
</linearGradient>
</defs>
</svg>
