<svg width="265" height="290" viewBox="0 0 265 290" fill="none" xmlns="http://www.w3.org/2000/svg">
<g filter="url(#filter0_ddd_338_453)">
<path d="M132.455 115.903V100.004L120.423 115.903H132.455Z" fill="#141327"/>
<path d="M119.02 106.214L120.423 115.934C124.237 110.905 131.924 100.714 132.455 100.004C126.181 99.8544 121.21 104.07 119.02 106.214Z" fill="#141327"/>
<path d="M119.019 106.215L120.422 115.902C118.453 115.212 114.192 113.713 112.893 113.24C115.078 110.046 117.888 107.226 119.019 106.215Z" fill="#141327"/>
<path d="M112.154 128.028L120.422 115.9C118.453 115.21 113.884 113.169 112.525 112.695C109.499 116.615 108.637 119.416 107.383 121.856L112.154 128.028Z" fill="#141327"/>
<path d="M104.492 128.93L112.156 128.03C111.344 127.044 108.995 124.309 107.224 122.18C106.397 123.718 104.974 127.162 104.492 128.93Z" fill="#141327"/>
<path d="M104.11 142.526L112.156 128.031C111.984 128.031 109.983 128 104.492 128.77C103.547 130.84 102.081 136.323 101.277 140.502L104.11 142.526Z" fill="#141327"/>
<path d="M101.526 140.527C100.049 148.736 100.313 151.871 100.461 155.125L104.109 142.524C103.937 142.376 103.179 141.77 101.526 140.527Z" fill="#141327"/>
<path d="M100.461 154.964L108.834 165.152L104.11 142.523L100.461 154.964Z" fill="#141327"/>
<path d="M106.568 174.251C103.033 168.947 100.622 160.108 100.622 154.965L108.834 165.153L106.568 174.251Z" fill="#141327"/>
<path d="M106.729 174.411L108.835 165.152L126.551 181.717C124.238 181.989 118.52 182.664 114.15 183.196C110.784 180.889 107.96 176.408 106.729 174.411Z" fill="#141327"/>
<path d="M114.149 183.198L126.55 181.719L132.455 190.001C124.778 190.001 117.839 186.304 114.149 183.198Z" fill="#141327"/>
<path d="M120.423 115.828L132.455 139.419V115.828H120.423Z" fill="#141327"/>
<path d="M120.423 115.828L132.455 139.419L112.156 128.03L120.423 115.828Z" fill="#141327"/>
<path d="M112.156 128.031L104.11 142.526L132.455 139.42L112.156 128.031Z" fill="#141327"/>
<path d="M123.376 153.691L104.11 142.524L132.455 139.418L123.376 153.691Z" fill="#141327"/>
<path d="M132.455 139.344L123.376 153.69L132.455 159.015V139.344Z" fill="#141327"/>
<path d="M113.853 161.529L104.11 142.523L118.473 149.181L132.455 159.015L113.853 161.529Z" fill="#141327"/>
<path d="M108.834 165.152L104.11 142.523L113.854 161.529L108.834 165.152Z" fill="#141327"/>
<path d="M126.55 181.719L132.455 159.016L113.853 161.53L126.55 181.719Z" fill="#141327"/>
<path d="M113.854 161.527L126.551 181.716L108.835 165.151L113.854 161.527Z" fill="#141327"/>
<path d="M132.455 190.001V159.016L126.55 181.719L132.455 190.001Z" fill="#141327"/>
<path d="M132.457 115.903V100.004L144.489 115.903H132.457Z" fill="#141327"/>
<path d="M145.892 106.214L144.489 115.934C140.675 110.905 132.989 100.714 132.457 100.004C138.731 99.8544 143.702 104.07 145.892 106.214Z" fill="#141327"/>
<path d="M145.893 106.215L144.49 115.902C146.459 115.212 150.72 113.713 152.02 113.24C149.835 110.046 147.025 107.226 145.893 106.215Z" fill="#141327"/>
<path d="M152.758 128.029L144.49 115.901C146.459 115.21 150.661 113.712 152.02 113.238C155.046 117.158 156.153 119.968 157.408 122.408L152.758 128.029Z" fill="#141327"/>
<path d="M160.26 128.93L152.756 128.03C153.568 127.044 155.595 124.149 157.367 122.02C158.194 123.558 159.694 127.402 160.26 128.93Z" fill="#141327"/>
<path d="M160.802 142.523L152.756 128.029C152.928 128.029 154.607 127.838 160.099 128.607C161.186 130.634 162.831 136.803 163.474 140.5L160.802 142.523Z" fill="#141327"/>
<path d="M163.386 140.527C164.863 148.736 164.641 152.064 164.494 155.318L160.803 142.524C160.975 142.376 161.733 141.77 163.386 140.527Z" fill="#141327"/>
<path d="M164.493 155.317L156.078 165.152L160.802 142.523L164.493 155.317Z" fill="#141327"/>
<path d="M158.662 174.322C162.131 169.515 164.567 160.567 164.493 155.316L156.078 165.152L158.662 174.322Z" fill="#141327"/>
<path d="M158.661 174.322L156.077 165.152L138.361 181.717C140.674 181.989 146.393 182.664 150.763 183.196C154.129 180.889 157.431 176.319 158.661 174.322Z" fill="#141327"/>
<path d="M150.764 183.198L138.362 181.719L132.457 190.001C140.134 190.001 147.073 186.304 150.764 183.198Z" fill="#141327"/>
<path d="M144.489 115.828L132.457 139.419V115.828H144.489Z" fill="#141327"/>
<path d="M144.489 115.828L132.457 139.419L152.757 128.03L144.489 115.828Z" fill="#141327"/>
<path d="M152.757 128.031L160.803 142.526L132.457 139.42L152.757 128.031Z" fill="#141327"/>
<path d="M141.536 153.691L160.803 142.524L132.457 139.418L141.536 153.691Z" fill="#141327"/>
<path d="M132.457 139.344L141.536 153.69L132.457 159.015V139.344Z" fill="#141327"/>
<path d="M151.059 161.529L160.803 142.523L146.118 150.306L132.457 159.015L151.059 161.529Z" fill="#141327"/>
<path d="M156.078 165.152L160.802 142.523L151.059 161.529L156.078 165.152Z" fill="#141327"/>
<path d="M138.362 181.719L132.457 159.016L151.059 161.53L138.362 181.719Z" fill="#141327"/>
<path d="M151.058 161.527L138.361 181.716L156.077 165.151L151.058 161.527Z" fill="#141327"/>
<path d="M132.457 190.001V159.016L138.362 181.719L132.457 190.001Z" fill="#141327"/>
<path d="M131.665 138.616C140.829 138.616 151.035 137.236 161.762 133.508C161.588 132.895 161.371 132.231 161.197 131.618C161.023 131.107 160.85 130.596 160.676 130.085C160.502 129.575 160.285 129.064 160.111 128.553C159.59 129.319 158.809 129.779 157.94 129.779C156.377 129.779 155.117 128.298 155.117 126.459C155.117 124.671 156.333 123.19 157.853 123.139C156.941 121.147 155.942 119.206 154.857 117.418C154.813 117.367 154.813 117.316 154.77 117.316C147.343 119.614 139.656 120.789 131.839 120.789C127.496 120.789 123.11 120.432 118.637 119.716C115.206 119.155 112.079 118.44 109.43 117.673C109.299 117.878 109.169 118.133 109.082 118.337C108.257 119.87 107.475 121.504 106.737 123.139C106.824 123.139 106.911 123.139 106.998 123.139C108.561 123.139 109.82 124.62 109.82 126.459C109.82 128.298 108.561 129.779 106.998 129.779C106.042 129.779 105.173 129.217 104.652 128.298C104.479 128.757 104.305 129.268 104.131 129.728C103.653 131.209 103.219 132.639 102.785 134.121C109.734 136.368 119.809 138.616 131.665 138.616ZM141.393 126.408C142.957 126.408 144.216 127.889 144.216 129.728C144.216 131.567 142.957 133.048 141.393 133.048C139.83 133.048 138.571 131.567 138.571 129.728C138.571 127.889 139.83 126.408 141.393 126.408ZM122.154 126.408C123.718 126.408 124.977 127.889 124.977 129.728C124.977 131.567 123.718 133.048 122.154 133.048C120.591 133.048 119.331 131.567 119.331 129.728C119.331 127.889 120.591 126.408 122.154 126.408Z" fill="#92E7E8"/>
<path d="M131.795 161.089C127.452 161.089 123.066 160.732 118.593 160.017C110.037 158.638 103.61 156.237 100.483 154.909C100.526 155.215 100.526 155.522 100.57 155.828C100.613 156.084 100.613 156.339 100.656 156.594C100.7 157.003 100.743 157.361 100.787 157.769C100.83 158.025 100.874 158.28 100.917 158.535C100.96 158.893 101.047 159.302 101.091 159.659C101.134 159.915 101.178 160.17 101.264 160.425C101.351 160.783 101.395 161.14 101.482 161.498C101.525 161.753 101.612 162.009 101.655 162.264C101.742 162.622 101.829 162.979 101.916 163.337C101.916 163.388 101.959 163.439 101.959 163.541C102.481 162.877 103.219 162.417 104.087 162.417C105.651 162.417 106.91 163.899 106.91 165.738C106.91 167.576 105.651 169.058 104.087 169.058C104.044 169.058 103.957 169.058 103.914 169.058C103.957 169.16 104.001 169.211 104.044 169.313C104.174 169.619 104.305 169.926 104.478 170.232C104.609 170.488 104.695 170.692 104.826 170.948C104.956 171.254 105.13 171.56 105.26 171.867C105.39 172.071 105.521 172.327 105.607 172.531C105.781 172.837 105.911 173.144 106.085 173.399C106.215 173.604 106.346 173.859 106.476 174.063C106.65 174.37 106.823 174.625 106.997 174.932C107.127 175.136 107.258 175.34 107.431 175.545C107.518 175.647 107.605 175.8 107.649 175.902C114.12 177.588 122.284 178.967 131.622 178.967C139.656 178.967 148.516 177.894 157.809 175.136C159.025 173.246 160.111 171.203 161.023 169.058C160.893 169.058 160.806 169.109 160.676 169.109C159.112 169.109 157.853 167.627 157.853 165.789C157.853 163.95 159.112 162.469 160.676 162.469C161.588 162.469 162.369 162.979 162.891 163.745C163.759 160.63 164.28 157.31 164.497 153.887H164.454C154.074 158.689 143.13 161.089 131.795 161.089ZM118.072 172.378C116.508 172.378 115.249 170.896 115.249 169.058C115.249 167.219 116.508 165.738 118.072 165.738C119.635 165.738 120.895 167.219 120.895 169.058C120.895 170.896 119.635 172.378 118.072 172.378ZM133.489 173.655C131.926 173.655 130.666 172.173 130.666 170.335C130.666 168.496 131.926 167.014 133.489 167.014C135.052 167.014 136.312 168.496 136.312 170.335C136.312 172.173 135.009 173.655 133.489 173.655ZM147.039 172.378C145.475 172.378 144.216 170.896 144.216 169.058C144.216 167.219 145.475 165.738 147.039 165.738C148.602 165.738 149.862 167.219 149.862 169.058C149.862 170.896 148.602 172.378 147.039 172.378Z" fill="#92E7E8"/>
<path d="M131.796 118.184C139.135 118.184 146.388 117.111 153.38 115.017L153.336 114.966C153.206 114.762 153.076 114.557 152.902 114.302C152.815 114.2 152.728 114.047 152.642 113.944C152.511 113.74 152.381 113.536 152.251 113.383C152.164 113.28 152.077 113.127 151.99 113.025C151.86 112.821 151.73 112.667 151.599 112.463C151.512 112.361 151.426 112.208 151.339 112.106C151.208 111.952 151.078 111.748 150.948 111.595C150.861 111.493 150.774 111.339 150.687 111.237C150.557 111.084 150.427 110.88 150.296 110.726C150.21 110.624 150.123 110.522 150.036 110.369C149.906 110.216 149.775 110.062 149.645 109.858C149.558 109.756 149.471 109.654 149.384 109.552C149.254 109.398 149.124 109.245 148.994 109.092C148.907 108.99 148.82 108.888 148.69 108.785C148.559 108.632 148.429 108.479 148.299 108.326C148.212 108.224 148.125 108.121 147.995 108.019C147.864 107.866 147.734 107.713 147.56 107.56C147.473 107.457 147.387 107.355 147.256 107.253C147.126 107.1 146.996 106.998 146.822 106.845C146.735 106.742 146.648 106.64 146.518 106.589C146.388 106.436 146.257 106.334 146.084 106.18C145.997 106.078 145.867 106.027 145.78 105.925C145.649 105.823 145.476 105.67 145.345 105.568C145.259 105.465 145.128 105.414 145.041 105.312C144.911 105.21 144.737 105.057 144.607 104.955C144.52 104.852 144.39 104.801 144.303 104.699C144.173 104.597 143.999 104.495 143.869 104.393C143.782 104.342 143.652 104.24 143.565 104.188C143.435 104.086 143.261 103.984 143.131 103.882C143.044 103.831 142.913 103.729 142.827 103.678C142.696 103.575 142.523 103.473 142.392 103.371C142.305 103.32 142.175 103.218 142.088 103.167C141.958 103.065 141.784 102.963 141.654 102.911C141.567 102.86 141.437 102.809 141.35 102.707C141.22 102.605 141.046 102.554 140.916 102.452C140.829 102.401 140.699 102.35 140.612 102.299C140.481 102.196 140.308 102.145 140.177 102.094C140.091 102.043 139.96 101.992 139.873 101.941C139.743 101.89 139.569 101.788 139.439 101.737C139.309 101.686 139.222 101.635 139.092 101.583C138.961 101.532 138.788 101.481 138.657 101.379C138.527 101.328 138.44 101.277 138.31 101.226C138.18 101.175 138.006 101.124 137.876 101.073C137.745 101.022 137.658 100.97 137.528 100.97C137.398 100.919 137.268 100.868 137.094 100.817C136.964 100.766 136.877 100.766 136.746 100.715C136.616 100.664 136.486 100.613 136.312 100.613C136.182 100.562 136.095 100.562 135.965 100.511C135.834 100.46 135.704 100.46 135.574 100.409C135.444 100.358 135.357 100.358 135.226 100.358C135.096 100.306 134.966 100.306 134.836 100.255C134.705 100.255 134.575 100.204 134.488 100.204C134.358 100.204 134.228 100.153 134.097 100.153C133.967 100.153 133.837 100.102 133.706 100.102C133.576 100.102 133.446 100.051 133.316 100.051C133.185 100.051 133.055 100.051 132.925 100C132.794 100 132.664 100 132.534 100C132.404 100 132.273 100 132.143 100C131.969 100 131.796 100 131.578 100C131.318 100 131.014 100 130.753 100.051C123.501 100.562 116.465 105.976 110.646 115.375C113.078 116.039 115.814 116.652 118.854 117.111C123.24 117.826 127.583 118.184 131.796 118.184Z" fill="url(#paint0_linear_338_453)"/>
<path d="M131.796 158.536C142.827 158.536 153.554 156.187 163.673 151.487C163.977 151.334 164.281 151.232 164.585 151.13C164.585 150.926 164.585 150.772 164.585 150.568C164.585 149.904 164.542 149.24 164.498 148.576C164.324 145.869 163.977 143.06 163.412 140.199C163.152 138.769 162.804 137.339 162.413 135.909C152.512 139.382 142.175 141.17 131.622 141.17C119.549 141.17 109.3 138.82 102.134 136.573C101.96 137.339 101.786 138.105 101.613 138.871C101.135 141.17 100.787 143.468 100.57 145.716C100.353 147.81 100.266 149.904 100.31 151.845C100.31 151.947 100.31 151.998 100.31 152.1C102.829 153.224 109.604 155.982 118.854 157.464C123.24 158.179 127.583 158.536 131.796 158.536Z" fill="url(#paint1_linear_338_453)"/>
<path d="M155.464 178.405C147.734 180.448 139.743 181.521 131.621 181.521C123.5 181.521 116.161 180.448 110.08 179.069C110.254 179.274 110.428 179.427 110.558 179.631C110.775 179.886 110.993 180.091 111.21 180.346C111.383 180.55 111.557 180.704 111.731 180.857C111.948 181.061 112.165 181.317 112.382 181.521C112.556 181.674 112.73 181.879 112.947 182.032C113.164 182.236 113.381 182.44 113.642 182.645C113.815 182.798 114.033 182.951 114.206 183.104C114.423 183.309 114.684 183.513 114.901 183.666C115.075 183.82 115.292 183.973 115.509 184.126C115.726 184.33 115.987 184.484 116.204 184.637C116.421 184.79 116.595 184.943 116.812 185.045C117.073 185.199 117.29 185.352 117.55 185.556C117.767 185.709 117.985 185.812 118.202 185.965C118.462 186.118 118.679 186.271 118.94 186.425C119.157 186.527 119.374 186.68 119.591 186.782C119.852 186.935 120.113 187.037 120.33 187.191C120.547 187.293 120.808 187.395 121.025 187.497C121.285 187.599 121.546 187.753 121.806 187.855C122.024 187.957 122.284 188.059 122.501 188.161C122.762 188.263 123.022 188.365 123.283 188.468C123.544 188.57 123.761 188.621 124.021 188.723C124.282 188.825 124.542 188.876 124.803 188.978C125.064 189.03 125.281 189.132 125.541 189.183C125.802 189.234 126.062 189.336 126.323 189.387C126.584 189.438 126.844 189.489 127.105 189.54C127.365 189.591 127.626 189.642 127.93 189.694C128.19 189.745 128.451 189.796 128.712 189.796C128.972 189.847 129.233 189.898 129.537 189.898C129.797 189.949 130.058 189.949 130.319 189.949C130.579 189.949 130.883 190 131.144 190C131.404 190 131.665 190 131.969 190C132.316 190 132.707 190 133.055 190C133.619 190 134.14 189.949 134.705 189.898C135.269 189.847 135.791 189.796 136.312 189.694C136.833 189.591 137.397 189.54 137.919 189.438C138.57 189.285 139.221 189.132 139.873 188.927C140.785 188.672 141.654 188.365 142.522 188.008C143.174 187.753 143.825 187.446 144.433 187.14C148.689 185.301 152.424 182.236 155.464 178.405Z" fill="url(#paint2_linear_338_453)"/>
</g>
<defs>
<filter id="filter0_ddd_338_453" x="0.298828" y="0" width="264.301" height="290" filterUnits="userSpaceOnUse" color-interpolation-filters="sRGB">
<feFlood flood-opacity="0" result="BackgroundImageFix"/>
<feColorMatrix in="SourceAlpha" type="matrix" values="0 0 0 0 0 0 0 0 0 0 0 0 0 0 0 0 0 0 127 0" result="hardAlpha"/>
<feOffset/>
<feGaussianBlur stdDeviation="20"/>
<feColorMatrix type="matrix" values="0 0 0 0 0.62 0 0 0 0 0 0 0 0 0 1 0 0 0 1 0"/>
<feBlend mode="normal" in2="BackgroundImageFix" result="effect1_dropShadow_338_453"/>
<feColorMatrix in="SourceAlpha" type="matrix" values="0 0 0 0 0 0 0 0 0 0 0 0 0 0 0 0 0 0 127 0" result="hardAlpha"/>
<feOffset/>
<feGaussianBlur stdDeviation="20"/>
<feColorMatrix type="matrix" values="0 0 0 0 0.619608 0 0 0 0 0 0 0 0 0 1 0 0 0 1 0"/>
<feBlend mode="normal" in2="effect1_dropShadow_338_453" result="effect2_dropShadow_338_453"/>
<feColorMatrix in="SourceAlpha" type="matrix" values="0 0 0 0 0 0 0 0 0 0 0 0 0 0 0 0 0 0 127 0" result="hardAlpha"/>
<feOffset/>
<feGaussianBlur stdDeviation="50"/>
<feColorMatrix type="matrix" values="0 0 0 0 0.156863 0 0 0 0 0.14902 0 0 0 0 0.294118 0 0 0 1 0"/>
<feBlend mode="normal" in2="effect2_dropShadow_338_453" result="effect3_dropShadow_338_453"/>
<feBlend mode="normal" in="SourceGraphic" in2="effect3_dropShadow_338_453" result="shape"/>
</filter>
<linearGradient id="paint0_linear_338_453" x1="100.299" y1="150.833" x2="164.585" y2="150.833" gradientUnits="userSpaceOnUse">
<stop stop-color="#F296D2"/>
<stop offset="1" stop-color="#FFB483"/>
</linearGradient>
<linearGradient id="paint1_linear_338_453" x1="100.299" y1="150.833" x2="164.585" y2="150.833" gradientUnits="userSpaceOnUse">
<stop stop-color="#F296D2"/>
<stop offset="1" stop-color="#FFB483"/>
</linearGradient>
<linearGradient id="paint2_linear_338_453" x1="100.299" y1="150.833" x2="164.585" y2="150.833" gradientUnits="userSpaceOnUse">
<stop stop-color="#F296D2"/>
<stop offset="1" stop-color="#FFB483"/>
</linearGradient>
</defs>
</svg>
