<svg width="265" height="290" viewBox="0 0 265 290" fill="none" xmlns="http://www.w3.org/2000/svg">
<g filter="url(#filter0_ddd_338_733)">
<path d="M132.717 115.903V100.004L120.685 115.903H132.717Z" fill="#141327"/>
<path d="M118.092 106.59L120.685 115.934C124.499 110.905 132.185 100.714 132.717 100.004C126.442 99.8545 120.503 104.018 118.092 106.59Z" fill="#141327"/>
<path d="M118.093 106.59L120.686 115.902C118.717 115.212 114.41 114.135 113.111 113.661C115.296 110.467 116.961 107.6 118.093 106.59Z" fill="#141327"/>
<path d="M112.418 128.029L120.686 115.902C118.717 115.211 113.987 113.813 112.629 113.34C109.602 117.259 108.611 120.09 107.486 122.661L112.418 128.029Z" fill="#141327"/>
<path d="M105.036 128.992L112.418 128.03C111.606 127.044 109.539 124.54 107.768 122.41C106.941 123.948 105.602 127.463 105.036 128.992Z" fill="#141327"/>
<path d="M104.372 142.525L112.418 128.031C112.246 128.031 110.528 128.224 105.036 128.993C104.092 131.063 102.477 137.546 101.789 140.529L104.372 142.525Z" fill="#141327"/>
<path d="M101.788 140.527C100.311 148.736 100.747 151.71 100.895 154.964L104.371 142.524C104.199 142.376 103.441 141.77 101.788 140.527Z" fill="#141327"/>
<path d="M100.896 155.285L109.096 165.152L104.372 142.523L100.896 155.285Z" fill="#141327"/>
<path d="M106.842 173.445C103.628 167.98 100.735 159.945 100.735 153.355L110.057 165.088L106.842 173.445Z" fill="#141327"/>
<path d="M106.521 172.963L109.097 165.152L126.812 181.717C124.5 181.988 119.409 182.716 115.039 183.249C111.673 180.942 107.751 174.96 106.521 172.963Z" fill="#141327"/>
<path d="M114.396 182.768L126.812 181.719L132.717 190.001C125.04 190.001 118.086 185.874 114.396 182.768Z" fill="#141327"/>
<path d="M120.685 115.828L132.717 139.418V115.828H120.685Z" fill="#141327"/>
<path d="M120.685 115.828L132.717 139.418L112.418 128.03L120.685 115.828Z" fill="#141327"/>
<path d="M112.418 128.031L104.372 142.525L132.717 139.42L112.418 128.031Z" fill="#141327"/>
<path d="M123.637 153.69L104.372 142.524L132.717 139.418L123.637 153.69Z" fill="#141327"/>
<path d="M132.717 139.344L123.637 153.69L132.717 159.014V139.344Z" fill="#141327"/>
<path d="M114.115 161.529L104.372 142.523L118.735 149.18L132.717 159.014L114.115 161.529Z" fill="#141327"/>
<path d="M109.096 165.152L104.372 142.523L114.115 161.529L109.096 165.152Z" fill="#141327"/>
<path d="M126.812 181.718L132.717 159.016L114.115 161.53L126.812 181.718Z" fill="#141327"/>
<path d="M114.116 161.527L126.812 181.716L109.097 165.151L114.116 161.527Z" fill="#141327"/>
<path d="M132.717 190.001V159.016L126.812 181.718L132.717 190.001Z" fill="#141327"/>
<path d="M132.717 115.899V100L144.749 115.899H132.717Z" fill="#141327"/>
<path d="M145.253 105.299L144.749 115.93C140.935 110.901 133.248 100.71 132.717 100C138.985 100.318 142.521 103.209 145.253 105.299Z" fill="#141327"/>
<path d="M145.091 105.141L144.748 115.9C146.716 115.21 150.978 113.711 152.277 113.238C150.092 110.043 146.538 106.105 145.091 105.141Z" fill="#141327"/>
<path d="M153.015 128.024L144.748 115.897C146.716 115.206 150.919 113.708 152.277 113.234C155.304 117.154 157.015 120.859 158.27 123.299L153.015 128.024Z" fill="#141327"/>
<path d="M160.397 128.988L153.016 128.026C153.828 127.04 155.894 124.536 157.666 122.406C158.493 123.944 159.831 127.46 160.397 128.988Z" fill="#141327"/>
<path d="M161.062 142.522L153.016 128.027C153.188 128.027 154.905 128.22 160.397 128.989C161.342 131.059 162.956 137.542 163.645 140.525L161.062 142.522Z" fill="#141327"/>
<path d="M163.646 140.523C165.122 148.732 164.687 151.706 164.539 154.96L161.062 142.52C161.235 142.372 161.993 141.766 163.646 140.523Z" fill="#141327"/>
<path d="M164.539 155.281L156.338 165.148L161.062 142.52L164.539 155.281Z" fill="#141327"/>
<path d="M158.754 173.442C162.45 167.495 164.218 159.46 164.7 154.156L156.021 165.085L158.754 173.442Z" fill="#141327"/>
<path d="M158.592 173.764L156.337 165.148L138.621 181.713C140.934 181.984 146.538 182.925 151.038 182.925C154.252 180.032 157.361 175.761 158.592 173.764Z" fill="#141327"/>
<path d="M151.039 182.926L138.622 181.715L132.717 189.997C140.394 189.997 147.348 186.032 151.039 182.926Z" fill="#141327"/>
<path d="M144.749 115.824L132.717 139.414V115.824H144.749Z" fill="#141327"/>
<path d="M144.749 115.824L132.717 139.414L153.016 128.026L144.749 115.824Z" fill="#141327"/>
<path d="M153.016 128.027L161.062 142.522L132.717 139.416L153.016 128.027Z" fill="#141327"/>
<path d="M141.796 153.686L161.062 142.52L132.717 139.414L141.796 153.686Z" fill="#141327"/>
<path d="M132.717 139.34L141.796 153.686L132.717 159.011V139.34Z" fill="#141327"/>
<path d="M151.318 161.525L161.062 142.52L146.377 150.302L132.717 159.01L151.318 161.525Z" fill="#141327"/>
<path d="M156.338 165.148L161.062 142.52L151.318 161.525L156.338 165.148Z" fill="#141327"/>
<path d="M138.622 181.714L132.717 159.012L151.318 161.526L138.622 181.714Z" fill="#141327"/>
<path d="M151.317 161.523L138.621 181.712L156.337 165.147L151.317 161.523Z" fill="#141327"/>
<path d="M132.717 189.997V159.012L138.622 181.714L132.717 189.997Z" fill="#141327"/>
<path d="M123.041 110.151C125.448 110.763 127.426 112.445 128.716 114.893L132.671 122.642L136.627 114.893C137.874 112.394 139.895 110.712 142.302 110.151C144.71 109.539 147.118 110.151 149.095 111.783L154.04 115.861C151.89 112.394 149.568 109.437 147.161 107.041C142.861 107.959 138.476 108.418 134.004 108.418C130.35 108.418 126.652 108.112 122.912 107.5C121.235 107.245 119.601 106.888 118.139 106.531C115.474 109.131 112.937 112.445 110.615 116.422L116.248 111.783C118.268 110.151 120.676 109.59 123.041 110.151Z" fill="#92E7E8"/>
<path d="M148.151 113.463C146.56 112.138 144.582 111.679 142.691 112.138C140.756 112.597 139.165 113.973 138.133 115.962L134.264 123.507C141.014 123.456 148.452 122.539 156.234 120.142L148.151 113.463Z" fill="#92E7E8"/>
<path d="M127.255 116.012C126.223 114.024 124.632 112.647 122.697 112.189C120.763 111.73 118.828 112.189 117.237 113.514L109.627 119.785C114.915 121.468 122.353 123.201 131.081 123.507L127.255 116.012Z" fill="#92E7E8"/>
<path d="M155.503 169.037L149.14 175.002C147.463 177.041 145.228 178.163 142.863 178.163C142.605 178.163 142.347 178.163 142.089 178.112C139.423 177.857 137.059 176.175 135.554 173.524L132.673 168.323L129.793 173.524C128.331 176.175 125.923 177.857 123.257 178.112C122.999 178.163 122.741 178.163 122.483 178.163C120.119 178.163 117.84 177.041 116.206 175.002L109.8 169.037C108.252 167.609 106.103 167.558 104.512 168.935C106.317 173.167 108.725 176.94 111.606 180.05C117.453 181.375 124.719 182.497 132.931 182.497C139.466 182.497 146.56 181.834 153.999 180.05C156.793 176.94 159.158 173.269 160.921 169.19L160.835 169.088C159.33 167.558 157.094 167.558 155.503 169.037Z" fill="#92E7E8"/>
<path d="M163.197 161.286C153.91 165.211 144.151 167.251 134.047 167.404L136.885 172.553C138.088 174.694 140.023 176.071 142.173 176.275C144.323 176.479 146.429 175.561 147.934 173.675C147.977 173.624 147.977 173.624 148.02 173.573L154.469 167.557C156.576 165.568 159.543 165.517 161.692 167.404C162.423 165.415 163.025 163.325 163.498 161.184C163.412 161.184 163.326 161.235 163.197 161.286Z" fill="#92E7E8"/>
<path d="M110.874 167.509L117.324 173.525C117.367 173.576 117.367 173.576 117.41 173.627C118.914 175.514 120.978 176.431 123.171 176.228C125.321 176.024 127.255 174.647 128.459 172.506L131.34 167.356C127.943 167.254 124.504 166.999 121.021 166.489C109.929 164.858 102.619 161.493 102.447 161.391C102.361 161.34 102.232 161.289 102.146 161.289C102.619 163.328 103.178 165.317 103.909 167.203C106.016 165.47 108.811 165.623 110.874 167.509Z" fill="#92E7E8"/>
<path d="M134.005 106.377C137.831 106.377 141.572 106.02 145.312 105.357C141.056 101.788 136.541 99.902 132.027 100.004C127.899 100.106 123.858 101.788 120.031 104.898C121.02 105.102 122.095 105.306 123.17 105.51C126.781 106.071 130.436 106.377 134.005 106.377Z" fill="url(#paint0_linear_338_733)"/>
<path d="M114.357 182.703C119.732 187.394 126.31 190.147 133.404 189.994C140.111 189.841 146.302 187.19 151.376 182.703C145.357 183.927 139.251 184.539 133.017 184.539C126.009 184.539 119.689 183.774 114.357 182.703Z" fill="url(#paint1_linear_338_733)"/>
<path fill-rule="evenodd" clip-rule="evenodd" d="M119.158 144.356L107.992 121.536L107.992 121.536L119.158 144.356L124.582 135.999L124.581 135.999C125.964 134.124 129.526 129.313 132.716 125.071C135.907 129.314 139.469 134.124 140.852 135.999L157.442 121.535C152.975 123.142 141.809 125.714 132.716 125.071C123.625 125.714 112.459 123.143 107.992 121.536L107.991 121.535L107.992 121.535L107.991 121.535L107.991 121.535L107.991 121.535L107.991 121.535L107.991 121.536C105.758 125.554 102.887 134.232 102.089 138.41L102.119 138.421L102.089 138.41L113.734 153.999L119.158 144.357L119.028 144.311L119.158 144.356ZM113.734 153.999L102.089 138.41C100.813 143.553 99.8557 151.749 101.291 158.499L101.689 158.356L101.291 158.5L101.328 158.515L101.328 158.515L101.328 158.515C104.099 159.642 108.805 161.557 112.458 162.357L113.734 154L113.03 154.254L113.734 153.999ZM126.496 161.714L112.458 162.357L113.734 154L126.496 161.714ZM132.716 164.929L126.495 161.715L112.457 162.358C118.679 164.126 127.612 165.251 132.716 164.929ZM132.716 164.929C137.821 165.251 146.754 164.126 152.975 162.358L138.938 161.715L132.716 164.929ZM152.977 162.357L138.939 161.714L151.701 154L152.977 162.357ZM152.404 154.255L151.701 154L152.977 162.357C156.63 161.557 161.336 159.642 164.106 158.515L164.106 158.515L164.143 158.5L163.746 158.356L164.143 158.499C165.579 151.749 164.622 143.553 163.346 138.41L151.701 153.999L152.404 154.255ZM146.407 144.311L146.277 144.357L151.701 153.999L163.346 138.41L163.315 138.421L163.346 138.41C162.548 134.231 159.677 125.553 157.443 121.535L146.277 144.356L146.407 144.311ZM157.443 121.535L146.277 144.356L140.853 135.999L157.443 121.535Z" fill="url(#paint2_linear_338_733)"/>
<path d="M132.717 135.999V125.07L124.581 135.999H132.717Z" fill="#28264B"/>
<path d="M124.581 136L132.717 152.071V136H124.581Z" fill="#28264B"/>
<path d="M124.581 136L132.717 152.071L119.158 144.357L124.581 136Z" fill="#92E7E8"/>
<path d="M119.158 144.355L113.734 153.998L132.717 152.07L119.158 144.355Z" fill="#28264B"/>
<path d="M126.496 161.713L113.734 153.999L132.717 152.07L126.496 161.713Z" fill="#92E7E8"/>
<path d="M132.717 152.07L126.496 161.713L132.717 164.927V152.07Z" fill="#28264B"/>
<path d="M132.717 135.999V125.07L140.852 135.999H132.717Z" fill="#28264B"/>
<path d="M140.852 136L132.717 152.071V136H140.852Z" fill="#28264B"/>
<path d="M140.852 136L132.717 152.071L146.276 144.357L140.852 136Z" fill="#92E7E8"/>
<path d="M146.276 144.355L151.7 153.998L132.717 152.07L146.276 144.355Z" fill="#28264B"/>
<path d="M138.938 161.713L151.7 153.999L132.717 152.07L138.938 161.713Z" fill="#92E7E8"/>
<path d="M132.717 152.07L138.938 161.713L132.717 164.927V152.07Z" fill="#28264B"/>
</g>
<defs>
<filter id="filter0_ddd_338_733" x="0.574219" y="0" width="264.287" height="290" filterUnits="userSpaceOnUse" color-interpolation-filters="sRGB">
<feFlood flood-opacity="0" result="BackgroundImageFix"/>
<feColorMatrix in="SourceAlpha" type="matrix" values="0 0 0 0 0 0 0 0 0 0 0 0 0 0 0 0 0 0 127 0" result="hardAlpha"/>
<feOffset/>
<feGaussianBlur stdDeviation="20"/>
<feColorMatrix type="matrix" values="0 0 0 0 0.62 0 0 0 0 0 0 0 0 0 1 0 0 0 1 0"/>
<feBlend mode="normal" in2="BackgroundImageFix" result="effect1_dropShadow_338_733"/>
<feColorMatrix in="SourceAlpha" type="matrix" values="0 0 0 0 0 0 0 0 0 0 0 0 0 0 0 0 0 0 127 0" result="hardAlpha"/>
<feOffset/>
<feGaussianBlur stdDeviation="20"/>
<feColorMatrix type="matrix" values="0 0 0 0 0.619608 0 0 0 0 0 0 0 0 0 1 0 0 0 1 0"/>
<feBlend mode="normal" in2="effect1_dropShadow_338_733" result="effect2_dropShadow_338_733"/>
<feColorMatrix in="SourceAlpha" type="matrix" values="0 0 0 0 0 0 0 0 0 0 0 0 0 0 0 0 0 0 127 0" result="hardAlpha"/>
<feOffset/>
<feGaussianBlur stdDeviation="50"/>
<feColorMatrix type="matrix" values="0 0 0 0 0.156863 0 0 0 0 0.14902 0 0 0 0 0.294118 0 0 0 1 0"/>
<feBlend mode="normal" in2="effect2_dropShadow_338_733" result="effect3_dropShadow_338_733"/>
<feBlend mode="normal" in="SourceGraphic" in2="effect3_dropShadow_338_733" result="shape"/>
</filter>
<linearGradient id="paint0_linear_338_733" x1="120.031" y1="103.602" x2="145.312" y2="103.602" gradientUnits="userSpaceOnUse">
<stop stop-color="#F296D2"/>
<stop offset="1" stop-color="#FFB483"/>
</linearGradient>
<linearGradient id="paint1_linear_338_733" x1="114.357" y1="186.824" x2="151.376" y2="186.824" gradientUnits="userSpaceOnUse">
<stop stop-color="#F296D2"/>
<stop offset="1" stop-color="#FFB483"/>
</linearGradient>
<linearGradient id="paint2_linear_338_733" x1="100.574" y1="146.076" x2="164.86" y2="146.076" gradientUnits="userSpaceOnUse">
<stop stop-color="#F296D2"/>
<stop offset="1" stop-color="#FFB483"/>
</linearGradient>
</defs>
</svg>
