<svg width="265" height="290" viewBox="0 0 265 290" fill="none" xmlns="http://www.w3.org/2000/svg">
<g filter="url(#filter0_ddd_338_452)">
<path d="M132.156 115.903V100.004L120.124 115.903H132.156Z" fill="#141327"/>
<path d="M118.722 106.214L120.124 115.934C123.938 110.905 131.625 100.714 132.156 100.004C125.882 99.8544 120.912 104.07 118.722 106.214Z" fill="#141327"/>
<path d="M118.721 106.215L120.123 115.902C118.155 115.212 113.893 113.713 112.594 113.24C114.779 110.046 117.589 107.226 118.721 106.215Z" fill="#141327"/>
<path d="M111.856 128.028L120.123 115.9C118.155 115.21 113.585 113.169 112.227 112.695C109.2 116.615 108.339 119.416 107.084 121.856L111.856 128.028Z" fill="#141327"/>
<path d="M104.193 128.93L111.857 128.03C111.045 127.044 108.696 124.309 106.925 122.18C106.098 123.718 104.675 127.162 104.193 128.93Z" fill="#141327"/>
<path d="M103.811 142.526L111.857 128.031C111.685 128.031 109.685 128 104.193 128.77C103.248 130.84 101.782 136.323 100.978 140.502L103.811 142.526Z" fill="#141327"/>
<path d="M101.227 140.527C99.7506 148.736 100.014 151.871 100.162 155.125L103.811 142.524C103.638 142.376 102.88 141.77 101.227 140.527Z" fill="#141327"/>
<path d="M100.162 154.964L108.535 165.152L103.811 142.523L100.162 154.964Z" fill="#141327"/>
<path d="M106.269 174.251C102.734 168.947 100.323 160.108 100.323 154.965L108.535 165.153L106.269 174.251Z" fill="#141327"/>
<path d="M106.431 174.411L108.536 165.152L126.252 181.717C123.939 181.989 118.221 182.664 113.851 183.196C110.485 180.889 107.661 176.408 106.431 174.411Z" fill="#141327"/>
<path d="M113.85 183.198L126.251 181.719L132.156 190.001C124.479 190.001 117.541 186.304 113.85 183.198Z" fill="#141327"/>
<path d="M120.124 115.828L132.156 139.419V115.828H120.124Z" fill="#141327"/>
<path d="M120.124 115.828L132.156 139.419L111.857 128.03L120.124 115.828Z" fill="#141327"/>
<path d="M111.857 128.031L103.811 142.526L132.156 139.42L111.857 128.031Z" fill="#141327"/>
<path d="M123.077 153.691L103.811 142.524L132.156 139.418L123.077 153.691Z" fill="#141327"/>
<path d="M132.156 139.344L123.077 153.69L132.156 159.015V139.344Z" fill="#141327"/>
<path d="M113.554 161.529L103.811 142.523L118.174 149.181L132.156 159.015L113.554 161.529Z" fill="#141327"/>
<path d="M108.535 165.152L103.811 142.523L113.555 161.529L108.535 165.152Z" fill="#141327"/>
<path d="M126.251 181.719L132.156 159.016L113.554 161.53L126.251 181.719Z" fill="#141327"/>
<path d="M113.556 161.527L126.252 181.716L108.536 165.151L113.556 161.527Z" fill="#141327"/>
<path d="M132.156 190.001V159.016L126.251 181.719L132.156 190.001Z" fill="#141327"/>
<path d="M132.158 115.903V100.004L144.19 115.903H132.158Z" fill="#141327"/>
<path d="M145.593 106.214L144.19 115.934C140.376 110.905 132.69 100.714 132.158 100.004C138.433 99.8544 143.403 104.07 145.593 106.214Z" fill="#141327"/>
<path d="M145.594 106.215L144.191 115.902C146.16 115.212 150.422 113.713 151.721 113.24C149.536 110.046 146.726 107.226 145.594 106.215Z" fill="#141327"/>
<path d="M152.459 128.029L144.191 115.901C146.16 115.21 150.362 113.712 151.721 113.238C154.747 117.158 155.854 119.968 157.109 122.408L152.459 128.029Z" fill="#141327"/>
<path d="M159.961 128.93L152.457 128.03C153.269 127.044 155.297 124.149 157.068 122.02C157.895 123.558 159.395 127.402 159.961 128.93Z" fill="#141327"/>
<path d="M160.503 142.523L152.457 128.029C152.629 128.029 154.308 127.838 159.8 128.607C160.887 130.634 162.532 136.803 163.175 140.5L160.503 142.523Z" fill="#141327"/>
<path d="M163.087 140.527C164.564 148.736 164.342 152.064 164.195 155.318L160.504 142.524C160.676 142.376 161.434 141.77 163.087 140.527Z" fill="#141327"/>
<path d="M164.194 155.317L155.779 165.152L160.504 142.523L164.194 155.317Z" fill="#141327"/>
<path d="M158.363 174.322C161.832 169.515 164.268 160.567 164.194 155.316L155.779 165.152L158.363 174.322Z" fill="#141327"/>
<path d="M158.362 174.322L155.778 165.152L138.062 181.717C140.375 181.989 146.094 182.664 150.464 183.196C153.83 180.889 157.132 176.319 158.362 174.322Z" fill="#141327"/>
<path d="M150.465 183.198L138.064 181.719L132.158 190.001C139.835 190.001 146.774 186.304 150.465 183.198Z" fill="#141327"/>
<path d="M144.19 115.828L132.158 139.419V115.828H144.19Z" fill="#141327"/>
<path d="M144.19 115.828L132.158 139.419L152.458 128.03L144.19 115.828Z" fill="#141327"/>
<path d="M152.458 128.031L160.504 142.526L132.158 139.42L152.458 128.031Z" fill="#141327"/>
<path d="M141.238 153.691L160.504 142.524L132.158 139.418L141.238 153.691Z" fill="#141327"/>
<path d="M132.158 139.344L141.238 153.69L132.158 159.015V139.344Z" fill="#141327"/>
<path d="M150.76 161.529L160.504 142.523L145.819 150.306L132.158 159.015L150.76 161.529Z" fill="#141327"/>
<path d="M155.779 165.152L160.504 142.523L150.76 161.529L155.779 165.152Z" fill="#141327"/>
<path d="M138.064 181.719L132.158 159.016L150.76 161.53L138.064 181.719Z" fill="#141327"/>
<path d="M150.759 161.527L138.062 181.716L155.778 165.151L150.759 161.527Z" fill="#141327"/>
<path d="M132.158 190.001V159.016L138.064 181.719L132.158 190.001Z" fill="#141327"/>
<path d="M131.366 138.616C140.53 138.616 150.736 137.236 161.463 133.508C161.289 132.895 161.072 132.231 160.898 131.618C160.725 131.107 160.551 130.596 160.377 130.085C160.204 129.575 159.986 129.064 159.813 128.553C159.291 129.319 158.51 129.779 157.641 129.779C156.078 129.779 154.818 128.298 154.818 126.459C154.818 124.671 156.034 123.19 157.554 123.139C156.642 121.147 155.643 119.206 154.558 117.418C154.514 117.367 154.514 117.316 154.471 117.316C147.044 119.614 139.357 120.789 131.54 120.789C127.197 120.789 122.811 120.432 118.338 119.716C114.907 119.155 111.78 118.44 109.131 117.673C109 117.878 108.87 118.133 108.783 118.337C107.958 119.87 107.176 121.504 106.438 123.139C106.525 123.139 106.612 123.139 106.699 123.139C108.262 123.139 109.522 124.62 109.522 126.459C109.522 128.298 108.262 129.779 106.699 129.779C105.743 129.779 104.875 129.217 104.354 128.298C104.18 128.757 104.006 129.268 103.832 129.728C103.355 131.209 102.92 132.639 102.486 134.121C109.435 136.368 119.51 138.616 131.366 138.616ZM141.095 126.408C142.658 126.408 143.918 127.889 143.918 129.728C143.918 131.567 142.658 133.048 141.095 133.048C139.531 133.048 138.272 131.567 138.272 129.728C138.272 127.889 139.531 126.408 141.095 126.408ZM121.856 126.408C123.419 126.408 124.678 127.889 124.678 129.728C124.678 131.567 123.419 133.048 121.856 133.048C120.292 133.048 119.033 131.567 119.033 129.728C119.033 127.889 120.292 126.408 121.856 126.408Z" fill="#B3ADF9"/>
<path d="M131.496 161.089C127.153 161.089 122.767 160.732 118.294 160.017C109.738 158.638 103.311 156.237 100.184 154.909C100.227 155.215 100.227 155.522 100.271 155.828C100.314 156.084 100.314 156.339 100.358 156.594C100.401 157.003 100.445 157.361 100.488 157.769C100.531 158.025 100.575 158.28 100.618 158.535C100.662 158.893 100.749 159.302 100.792 159.659C100.835 159.915 100.879 160.17 100.966 160.425C101.053 160.783 101.096 161.14 101.183 161.498C101.226 161.753 101.313 162.009 101.357 162.264C101.443 162.622 101.53 162.979 101.617 163.337C101.617 163.388 101.661 163.439 101.661 163.541C102.182 162.877 102.92 162.417 103.789 162.417C105.352 162.417 106.611 163.899 106.611 165.738C106.611 167.576 105.352 169.058 103.789 169.058C103.745 169.058 103.658 169.058 103.615 169.058C103.658 169.16 103.702 169.211 103.745 169.313C103.875 169.619 104.006 169.926 104.179 170.232C104.31 170.488 104.397 170.692 104.527 170.948C104.657 171.254 104.831 171.56 104.961 171.867C105.091 172.071 105.222 172.327 105.309 172.531C105.482 172.837 105.613 173.144 105.786 173.399C105.917 173.604 106.047 173.859 106.177 174.063C106.351 174.37 106.525 174.625 106.698 174.932C106.829 175.136 106.959 175.34 107.133 175.545C107.219 175.647 107.306 175.8 107.35 175.902C113.821 177.588 121.985 178.967 131.323 178.967C139.357 178.967 148.217 177.894 157.511 175.136C158.727 173.246 159.812 171.203 160.724 169.058C160.594 169.058 160.507 169.109 160.377 169.109C158.813 169.109 157.554 167.627 157.554 165.789C157.554 163.95 158.813 162.469 160.377 162.469C161.289 162.469 162.071 162.979 162.592 163.745C163.46 160.63 163.981 157.31 164.199 153.887H164.155C153.776 158.689 142.831 161.089 131.496 161.089ZM117.773 172.378C116.209 172.378 114.95 170.896 114.95 169.058C114.95 167.219 116.209 165.738 117.773 165.738C119.336 165.738 120.596 167.219 120.596 169.058C120.596 170.896 119.336 172.378 117.773 172.378ZM133.19 173.655C131.627 173.655 130.367 172.173 130.367 170.335C130.367 168.496 131.627 167.014 133.19 167.014C134.754 167.014 136.013 168.496 136.013 170.335C136.013 172.173 134.71 173.655 133.19 173.655ZM146.74 172.378C145.177 172.378 143.917 170.896 143.917 169.058C143.917 167.219 145.177 165.738 146.74 165.738C148.304 165.738 149.563 167.219 149.563 169.058C149.563 170.896 148.304 172.378 146.74 172.378Z" fill="#B3ADF9"/>
<path d="M131.497 118.184C138.836 118.184 146.089 117.111 153.081 115.017L153.038 114.966C152.907 114.762 152.777 114.557 152.603 114.302C152.516 114.2 152.43 114.047 152.343 113.944C152.212 113.74 152.082 113.536 151.952 113.383C151.865 113.28 151.778 113.127 151.691 113.025C151.561 112.821 151.431 112.667 151.3 112.463C151.214 112.361 151.127 112.208 151.04 112.106C150.91 111.952 150.779 111.748 150.649 111.595C150.562 111.493 150.475 111.339 150.388 111.237C150.258 111.084 150.128 110.88 149.998 110.726C149.911 110.624 149.824 110.522 149.737 110.369C149.607 110.216 149.476 110.062 149.346 109.858C149.259 109.756 149.172 109.654 149.086 109.552C148.955 109.398 148.825 109.245 148.695 109.092C148.608 108.99 148.521 108.888 148.391 108.785C148.26 108.632 148.13 108.479 148 108.326C147.913 108.224 147.826 108.121 147.696 108.019C147.566 107.866 147.435 107.713 147.262 107.56C147.175 107.457 147.088 107.355 146.958 107.253C146.827 107.1 146.697 106.998 146.523 106.845C146.436 106.742 146.35 106.64 146.219 106.589C146.089 106.436 145.959 106.334 145.785 106.18C145.698 106.078 145.568 106.027 145.481 105.925C145.351 105.823 145.177 105.67 145.047 105.568C144.96 105.465 144.829 105.414 144.743 105.312C144.612 105.21 144.439 105.057 144.308 104.955C144.221 104.852 144.091 104.801 144.004 104.699C143.874 104.597 143.7 104.495 143.57 104.393C143.483 104.342 143.353 104.24 143.266 104.188C143.136 104.086 142.962 103.984 142.832 103.882C142.745 103.831 142.615 103.729 142.528 103.678C142.397 103.575 142.224 103.473 142.093 103.371C142.007 103.32 141.876 103.218 141.789 103.167C141.659 103.065 141.485 102.963 141.355 102.911C141.268 102.86 141.138 102.809 141.051 102.707C140.921 102.605 140.747 102.554 140.617 102.452C140.53 102.401 140.4 102.35 140.313 102.299C140.183 102.196 140.009 102.145 139.879 102.094C139.792 102.043 139.661 101.992 139.575 101.941C139.444 101.89 139.271 101.788 139.14 101.737C139.01 101.686 138.923 101.635 138.793 101.583C138.663 101.532 138.489 101.481 138.359 101.379C138.228 101.328 138.141 101.277 138.011 101.226C137.881 101.175 137.707 101.124 137.577 101.073C137.447 101.022 137.36 100.97 137.229 100.97C137.099 100.919 136.969 100.868 136.795 100.817C136.665 100.766 136.578 100.766 136.448 100.715C136.317 100.664 136.187 100.613 136.013 100.613C135.883 100.562 135.796 100.562 135.666 100.511C135.536 100.46 135.405 100.46 135.275 100.409C135.145 100.358 135.058 100.358 134.928 100.358C134.797 100.306 134.667 100.306 134.537 100.255C134.406 100.255 134.276 100.204 134.189 100.204C134.059 100.204 133.929 100.153 133.798 100.153C133.668 100.153 133.538 100.102 133.408 100.102C133.277 100.102 133.147 100.051 133.017 100.051C132.886 100.051 132.756 100.051 132.626 100C132.496 100 132.365 100 132.235 100C132.105 100 131.974 100 131.844 100C131.67 100 131.497 100 131.28 100C131.019 100 130.715 100 130.454 100.051C123.202 100.562 116.166 105.976 110.347 115.375C112.779 116.039 115.515 116.652 118.555 117.111C122.941 117.826 127.284 118.184 131.497 118.184Z" fill="#92E7E8"/>
<path d="M131.497 158.536C142.528 158.536 153.255 156.187 163.374 151.487C163.678 151.334 163.982 151.232 164.286 151.13C164.286 150.926 164.286 150.772 164.286 150.568C164.286 149.904 164.243 149.24 164.199 148.576C164.026 145.869 163.678 143.06 163.114 140.199C162.853 138.769 162.506 137.339 162.115 135.909C152.213 139.382 141.877 141.17 131.323 141.17C119.25 141.17 109.001 138.82 101.835 136.573C101.661 137.339 101.487 138.105 101.314 138.871C100.836 141.17 100.489 143.468 100.271 145.716C100.054 147.81 99.9674 149.904 100.011 151.845C100.011 151.947 100.011 151.998 100.011 152.1C102.53 153.224 109.305 155.982 118.555 157.464C122.941 158.179 127.284 158.536 131.497 158.536Z" fill="#92E7E8"/>
<path d="M155.165 178.405C147.435 180.448 139.444 181.521 131.323 181.521C123.201 181.521 115.862 180.448 109.782 179.069C109.955 179.274 110.129 179.427 110.259 179.631C110.477 179.886 110.694 180.091 110.911 180.346C111.085 180.55 111.258 180.704 111.432 180.857C111.649 181.061 111.866 181.317 112.083 181.521C112.257 181.674 112.431 181.879 112.648 182.032C112.865 182.236 113.082 182.44 113.343 182.645C113.517 182.798 113.734 182.951 113.907 183.104C114.125 183.309 114.385 183.513 114.602 183.666C114.776 183.82 114.993 183.973 115.21 184.126C115.427 184.33 115.688 184.484 115.905 184.637C116.122 184.79 116.296 184.943 116.513 185.045C116.774 185.199 116.991 185.352 117.251 185.556C117.469 185.709 117.686 185.812 117.903 185.965C118.164 186.118 118.381 186.271 118.641 186.425C118.858 186.527 119.076 186.68 119.293 186.782C119.553 186.935 119.814 187.037 120.031 187.191C120.248 187.293 120.509 187.395 120.726 187.497C120.986 187.599 121.247 187.753 121.508 187.855C121.725 187.957 121.985 188.059 122.202 188.161C122.463 188.263 122.724 188.365 122.984 188.468C123.245 188.57 123.462 188.621 123.722 188.723C123.983 188.825 124.244 188.876 124.504 188.978C124.765 189.03 124.982 189.132 125.242 189.183C125.503 189.234 125.764 189.336 126.024 189.387C126.285 189.438 126.545 189.489 126.806 189.54C127.066 189.591 127.327 189.642 127.631 189.694C127.892 189.745 128.152 189.796 128.413 189.796C128.673 189.847 128.934 189.898 129.238 189.898C129.499 189.949 129.759 189.949 130.02 189.949C130.28 189.949 130.584 190 130.845 190C131.105 190 131.366 190 131.67 190C132.017 190 132.408 190 132.756 190C133.32 190 133.841 189.949 134.406 189.898C134.971 189.847 135.492 189.796 136.013 189.694C136.534 189.591 137.099 189.54 137.62 189.438C138.271 189.285 138.923 189.132 139.574 188.927C140.486 188.672 141.355 188.365 142.223 188.008C142.875 187.753 143.526 187.446 144.134 187.14C148.39 185.301 152.125 182.236 155.165 178.405Z" fill="#92E7E8"/>
</g>
<defs>
<filter id="filter0_ddd_338_452" x="0" y="0" width="264.301" height="290" filterUnits="userSpaceOnUse" color-interpolation-filters="sRGB">
<feFlood flood-opacity="0" result="BackgroundImageFix"/>
<feColorMatrix in="SourceAlpha" type="matrix" values="0 0 0 0 0 0 0 0 0 0 0 0 0 0 0 0 0 0 127 0" result="hardAlpha"/>
<feOffset/>
<feGaussianBlur stdDeviation="20"/>
<feColorMatrix type="matrix" values="0 0 0 0 0.62 0 0 0 0 0 0 0 0 0 1 0 0 0 1 0"/>
<feBlend mode="normal" in2="BackgroundImageFix" result="effect1_dropShadow_338_452"/>
<feColorMatrix in="SourceAlpha" type="matrix" values="0 0 0 0 0 0 0 0 0 0 0 0 0 0 0 0 0 0 127 0" result="hardAlpha"/>
<feOffset/>
<feGaussianBlur stdDeviation="20"/>
<feColorMatrix type="matrix" values="0 0 0 0 0.619608 0 0 0 0 0 0 0 0 0 1 0 0 0 1 0"/>
<feBlend mode="normal" in2="effect1_dropShadow_338_452" result="effect2_dropShadow_338_452"/>
<feColorMatrix in="SourceAlpha" type="matrix" values="0 0 0 0 0 0 0 0 0 0 0 0 0 0 0 0 0 0 127 0" result="hardAlpha"/>
<feOffset/>
<feGaussianBlur stdDeviation="50"/>
<feColorMatrix type="matrix" values="0 0 0 0 0.156863 0 0 0 0 0.14902 0 0 0 0 0.294118 0 0 0 1 0"/>
<feBlend mode="normal" in2="effect2_dropShadow_338_452" result="effect3_dropShadow_338_452"/>
<feBlend mode="normal" in="SourceGraphic" in2="effect3_dropShadow_338_452" result="shape"/>
</filter>
</defs>
</svg>
