<svg width="246" height="247" viewBox="0 0 246 247" fill="none" xmlns="http://www.w3.org/2000/svg">
<path d="M85.6544 140.229L85.3754 140.096L85.1318 140.286C82.3695 142.442 76.0615 147.513 73.009 150.493C69.2269 154.186 66.7834 156.84 65.7269 158.43C65.207 159.213 64.8698 159.884 64.7917 160.518C64.7083 161.195 64.9256 161.759 65.3448 162.296C65.5652 162.579 66.0066 162.973 66.5391 163.395C67.0849 163.829 67.7655 164.323 68.4974 164.809C69.9471 165.772 71.6543 166.741 72.9358 167.121C74.0538 167.451 74.8979 167.193 75.4654 166.651C75.8461 166.287 76.0722 165.825 76.1921 165.414C77.0951 165.408 78.5549 165.127 79.6359 164.004C80.1641 163.455 81.5979 162.42 83.2358 161.319C84.4723 160.488 85.7904 159.642 86.8441 158.981L86.3148 163.276C86.1953 164.245 86.4924 164.907 86.7777 165.405C86.8359 165.506 86.8865 165.59 86.9314 165.664C87.0044 165.785 87.0625 165.881 87.1144 165.989C87.1866 166.139 87.2003 166.227 87.1914 166.299L85.7757 177.784C85.6739 178.61 86.01 179.39 86.4047 179.989C86.6363 180.341 86.903 180.654 87.1552 180.909C87.0376 181.006 86.9221 181.116 86.8186 181.237C86.5361 181.567 86.2644 182.083 86.4751 182.677C86.5289 182.828 86.602 183.052 86.6953 183.338C87.12 184.64 87.9646 187.228 89.3253 190.149C90.5872 192.858 93.0294 197.159 94.2553 199.252C93.869 199.708 93.4079 200.33 93.0601 200.977C92.8474 201.373 92.6659 201.798 92.5774 202.213C92.4896 202.624 92.4825 203.079 92.6867 203.485C93.0503 204.21 94.1507 205.733 95.3474 207.087C95.9503 207.769 96.5934 208.426 97.1987 208.929C97.5013 209.181 97.803 209.402 98.0924 209.569C98.3763 209.732 98.6788 209.862 98.9783 209.899C99.4686 209.959 100.137 209.891 100.85 209.754C101.575 209.614 102.392 209.393 103.197 209.12C104.003 208.846 104.808 208.517 105.508 208.157C106.2 207.801 106.824 207.399 107.239 206.968C108.241 205.926 109.568 204.427 110.327 203.554C110.623 203.77 110.981 204.019 111.341 204.244C111.61 204.412 111.887 204.571 112.145 204.696C112.393 204.815 112.666 204.923 112.914 204.954L120.298 205.864C121.602 206.025 122.974 205.864 124.081 205.309C125.204 204.745 126.057 203.767 126.232 202.344L129.317 177.321C129.382 176.792 129.557 176.453 129.766 176.227C129.979 175.998 130.261 175.85 130.598 175.761C131.297 175.576 132.122 175.672 132.755 175.75C133.35 175.824 133.741 175.443 133.962 175.057C134.18 174.677 134.309 174.18 134.395 173.707C134.482 173.223 134.53 172.715 134.564 172.284C134.577 172.113 134.587 171.959 134.597 171.824C134.608 171.661 134.617 171.526 134.627 171.418C134.666 171.404 134.723 171.387 134.807 171.371C134.995 171.333 135.207 171.311 135.456 171.286C135.601 171.271 135.759 171.255 135.932 171.234C136.36 171.181 136.861 171.096 137.277 170.888C137.72 170.665 138.097 170.283 138.173 169.668L140.408 151.536C141.047 151.921 142.106 152.613 143.552 153.694C145.564 155.198 147.184 154.962 148.016 154.395C148.835 154.802 150.382 155.435 151.893 155.622C152.512 155.698 153.087 155.578 153.582 155.257C154.071 154.941 154.449 154.453 154.726 153.85C155.275 152.655 155.473 150.915 155.313 148.778C155.225 147.606 154.627 146.258 153.801 144.891C152.966 143.511 151.863 142.054 150.7 140.653C149.02 138.63 147.181 136.687 145.816 135.243C145.295 134.694 144.844 134.216 144.496 133.835C142.968 132.16 141.118 131.095 139.768 130.519C143.899 128.865 151.439 125.391 156.459 121.473C159.318 119.241 161.988 114.999 164.154 110.678C166.298 106.403 167.985 101.973 168.902 99.142C170.448 97.7177 173.404 93.3051 174.325 85.8394C175.272 78.1553 170.474 71.9473 167.866 69.7012C166.845 67.0803 163.458 60.0807 157.569 51.7849C153.749 46.4042 144.924 40.9125 133.997 38.2039C123.049 35.49 109.908 35.5473 97.4141 41.3674C77.6138 50.5913 70.3107 68.6475 69.0784 76.7966C68.1603 77.4841 66.2021 79.8188 65.5219 85.3374C65.0537 89.1353 65.8231 91.6166 66.6995 93.362C67.0104 93.981 67.3412 94.5173 67.6155 94.9622C67.7186 95.1292 67.8136 95.2835 67.8967 95.4242C68.2291 95.9877 68.3363 96.2891 68.3093 96.5083C68.2451 97.0291 68.3909 97.8604 68.6756 98.8698C68.968 99.9058 69.4297 101.205 70.0594 102.701C71.3193 105.693 73.2619 109.497 75.8984 113.591C78.0446 116.924 81.448 119.948 84.7996 122.366C87.9913 124.668 91.1697 126.445 93.2478 127.437C93.2371 127.718 93.2463 128.058 93.2945 128.41C93.3654 128.928 93.5291 129.533 93.8953 130.002C94.2215 130.42 94.2836 130.722 94.2694 130.837C94.2693 130.838 94.2692 130.839 94.2691 130.84C94.2481 130.844 94.21 130.846 94.1483 130.839C93.6448 130.777 93.3167 131.13 93.1416 131.406C92.9556 131.7 92.822 132.081 92.7224 132.449C92.522 133.189 92.4175 134.037 92.367 134.446L92.366 134.454C92.3552 134.542 92.3015 134.683 92.1623 134.875C92.0267 135.062 91.832 135.267 91.5882 135.479C91.1007 135.903 90.4587 136.317 89.8227 136.637C88.2676 137.418 87.6143 139.219 87.455 140.512C87.4457 140.587 87.4282 140.595 87.4075 140.604L87.4035 140.606C87.3431 140.635 87.213 140.66 86.9927 140.639C86.5605 140.597 86.0229 140.404 85.6544 140.229Z" fill="#D8D5FB" stroke="#AAA6D7"/>
<path d="M101.72 187.662C100.899 187.561 98.9099 187.482 97.5163 187.977C95.7744 188.595 94.8529 189.314 94.4989 192.186C94.145 195.057 94.0944 195.467 97.2749 196.692C100.455 197.917 109.896 202.412 111.436 203.435" stroke="#AAA6D7"/>
<path d="M106.027 44.2108L106.035 44.2087C112.169 42.5781 121.722 41.5349 130.416 43.6673C139.06 45.7874 146.779 51.0119 149.595 61.9223C153.175 75.7886 149.499 89.1838 142.271 99.369C135.029 109.575 124.3 116.451 113.917 117.386C103.302 118.342 93.3049 116.876 85.882 112.482C78.5151 108.123 73.5914 100.831 73.1247 89.8568C72.6509 78.7168 75.0111 68.8277 80.3849 60.981C85.752 53.144 94.1851 47.2559 106.027 44.2108Z" fill="#19172F" stroke="#AAA6D7" stroke-width="2"/>
<path d="M166.574 70.3088C165.084 68.8759 161.904 67.6508 159.96 69.9097C157.907 72.2957 155.516 78.94 157.735 87.9588C159.955 96.9775 161.084 97.9496 162.573 99.3824C164.062 100.815 165.754 100.607 167.698 98.3485" stroke="#AAA6D7"/>
<path d="M94.1319 127.593C95.2576 126.343 98.5036 123.884 102.482 124.041C107.455 124.238 124.116 124.209 128.887 126.047C132.703 127.517 136.224 129.588 137.507 130.441" stroke="#AAA6D7" stroke-width="2"/>
<path d="M94.9075 131.436C96.9923 131.415 101.592 131.261 103.314 130.807C105.466 130.239 106.848 129.16 108.849 129.823C110.849 130.486 112.237 132.74 113.979 132.121C115.721 131.503 117.564 130.064 118.744 130.626C119.688 131.076 121.292 131.357 121.975 131.441" stroke="#AAA6D7"/>
<path d="M130.886 126.709C129.262 126.37 125.809 126 124.991 127.232C123.969 128.772 121.153 131.34 121.822 132.672C122.491 134.003 125.167 139.33 127.629 139.634C130.09 139.937 131.787 143.061 134.046 145.006C135.853 146.561 138.53 149.168 139.643 150.276" stroke="#AAA6D7"/>
<path d="M137.918 130.491C136.414 130.306 133.027 130.305 131.512 131.784C129.618 133.633 127.882 137.583 129.63 140.297" stroke="#AAA6D7"/>
<path d="M113.108 132.43C112.801 132.67 112.106 133.806 111.782 136.431C111.458 139.057 110.973 142.995 110.771 144.635" stroke="#AAA6D7"/>
<path d="M92.7613 135.336C91.8811 140.225 90.0802 150.33 89.9184 151.643C89.7566 152.956 91.016 153.999 91.666 154.357" stroke="#AAA6D7"/>
<path d="M87.9797 157.234C89.1054 155.985 91.613 153.434 92.6379 153.228C93.9191 152.969 103.196 152.03 104.837 152.233C106.15 152.394 107.572 152.57 108.119 152.637C108.46 152.124 109.47 151.138 110.782 151.3C112.423 151.502 115.705 151.906 117.346 152.109C118.986 152.311 125.096 154.447 127.708 155.885C129.657 156.958 133.096 159.464 132.894 161.105C132.692 162.746 132.287 166.027 132.136 167.258C132.014 168.242 130.549 168.867 129.832 169.056" stroke="#AAA6D7"/>
<path d="M72.959 157.465C72.088 157.774 70.4079 158.566 70.6552 159.263C70.9024 159.96 74.2161 163.034 75.842 164.483" stroke="#AAA6D7"/>
<path d="M87.7884 165.54C88.6931 164.957 90.6665 163.812 91.3229 163.893C92.1433 163.994 94.138 161.325 95.009 161.016C95.88 160.707 101.775 160.184 104.646 160.538C107.517 160.892 112.03 161.448 114.182 160.881C116.334 160.313 120.745 161.69 122.285 162.712C123.824 163.735 127.056 164.55 128.134 165.932C129.213 167.314 128.91 169.775 130.551 169.978C131.863 170.139 133.492 170.895 134.141 171.253" stroke="#AAA6D7"/>
<path d="M128.007 180.491C126.929 179.109 123.796 176.141 119.899 175.327C115.027 174.31 113.385 174.114 110.129 173.502C106.873 172.889 103.901 173.355 103.086 176.586C102.271 179.817 99.8216 186.179 100.131 187.05" stroke="#AAA6D7"/>
<path d="M131.54 148.445L131.147 158.391" stroke="#AAA6D7"/>
<path d="M87.0283 141.292C86.7905 142.096 86.5407 143.897 87.4442 144.675C88.3478 145.453 89.7396 147.457 90.3225 148.361" stroke="#AAA6D7"/>
<path d="M110.922 143.405C109.709 143.116 107.2 143.196 106.876 145.821C106.472 149.103 109.343 149.457 110.726 148.378" stroke="#AAA6D7"/>
<path d="M133.635 144.955C131.601 144.566 126.948 143.798 124.611 143.843C122.273 143.888 119.126 144.416 117.845 144.674C116.648 144.249 113.906 143.523 112.512 144.017C110.77 144.635 109.028 145.253 109.287 146.535C109.546 147.816 109.804 149.097 112.827 148.22C115.851 147.344 117.182 146.675 118.413 146.827C119.644 146.978 126.207 147.787 127.848 147.99C129.488 148.192 132.46 147.725 133.18 148.647C133.9 149.568 135.439 150.591 136.361 149.872C137.098 149.296 137.383 148.332 137.434 147.922" stroke="#AAA6D7"/>
<path d="M102.556 167.36C103.172 167.991 104.385 169.417 104.304 170.074C104.203 170.894 103.439 173.715 103.748 174.586" stroke="#AAA6D7"/>
<path d="M92.3738 148.614C93.5183 148.339 95.8993 147.716 96.2679 147.428C96.7287 147.069 97.7456 142.197 97.3354 142.146C97.0073 142.106 94.3629 142.613 93.0817 142.871" stroke="#AAA6D7"/>
<path d="M94.4523 135.128C95.5967 134.853 97.9575 134.394 98.2452 134.763C98.6049 135.224 98.0487 139.736 97.5879 140.095C97.2193 140.383 94.872 140.732 93.7444 140.871" stroke="#AAA6D7"/>
<path d="M100.088 133.324C101.3 132.502 104.145 131.492 105.831 134.032C107.938 137.207 104.41 142.186 102.769 141.983C101.128 141.781 99.077 141.528 99.1782 140.708" stroke="#AAA6D7"/>
<path d="M103.325 137.471C103.447 136.487 103.031 135.353 102.808 134.909C101.988 134.808 101.578 134.757 100.606 135.886C99.6335 137.016 100.252 138.758 101.072 138.859C101.892 138.96 103.174 138.702 103.325 137.471Z" stroke="#AAA6D7"/>
<path d="M110.315 148.327L109.961 151.199" stroke="#AAA6D7" stroke-width="2"/>
<path d="M129.781 169.466L129.326 173.158" stroke="#AAA6D7"/>
<path d="M88.3794 181.02C88.9095 181.224 90.2158 181.663 91.2003 181.784C92.1848 181.906 93.0115 181.73 93.3018 181.627" stroke="#AAA6D7"/>
<path d="M102.371 178.997L100.168 179.975" stroke="#AAA6D7" stroke-width="2"/>
<path d="M77.1737 72.6148C78.5986 66.4606 85.0684 62.6218 88.1253 61.4716C87.2861 60.3965 84.8809 58.7397 81.9734 60.7133C78.3391 63.1804 74.045 70.9798 73.4439 79.2345C72.8428 87.4891 78.4902 92.3496 84.5352 90.5961C89.3712 89.1933 96.4107 79.8445 99.3259 75.3454L98.1851 67.7089C93.274 73.7665 85.3443 84.0329 82.4728 83.6789C79.6014 83.325 75.3925 80.3076 77.1737 72.6148Z" fill="url(#paint0_linear_2593_34832)"/>
<path d="M121.036 61.3639C114.554 59.8985 106.726 67.0958 103.623 70.8776C100.019 71.9604 94.3667 72.3188 100.588 65.0901C108.365 56.0542 123.632 50.4402 132.207 58.5767C140.782 66.7131 140.534 72.0961 139.568 76.5578C137.831 80.5082 128.273 85.9929 123.184 87.8642C119.113 85.9744 111.721 82.2037 114.715 82.2396C118.458 82.2845 125.274 81.0425 128.752 76.474C132.23 71.9055 129.139 63.1955 121.036 61.3639Z" fill="url(#paint1_linear_2593_34832)"/>
<path d="M84.2301 62.6575C80.2516 62.5002 76.5674 68.5147 75.2226 71.5417C75.6272 68.26 78.1163 60.9044 84.8368 57.7349C93.2375 53.7731 96.2214 59.9711 103.364 69.5967C110.506 79.2222 118.356 83.1049 126.15 84.0657C132.385 84.8342 137.694 79.3808 139.568 76.5581C138.036 79.9783 133.066 87.4168 125.442 89.8085C115.912 92.7982 108.624 87.7355 99.6326 76.2163C90.6416 64.6971 89.2031 62.854 84.2301 62.6575Z" fill="#49D4D6"/>
<path d="M69.7901 77.5212L70.0022 77.3995L70.0363 77.1572C71.133 69.3688 78.2321 51.4065 97.8364 42.2739C110.084 36.5684 122.985 36.5043 133.757 39.1745C144.55 41.8501 153.122 47.248 156.753 52.3638C162.694 60.7321 166.051 67.7468 166.978 70.1777L167.024 70.2989L167.123 70.3823C169.571 72.4399 174.234 78.404 173.332 85.7171C172.413 93.1718 169.426 97.3654 168.14 98.4825L168.035 98.574L167.992 98.707C167.098 101.49 165.41 105.942 163.26 110.23C161.101 114.538 158.513 118.601 155.844 120.684C150.375 124.953 141.775 128.723 138.153 130.073L136.648 130.634L138.205 131.027C139.208 131.279 141.782 132.343 143.757 134.509C144.123 134.91 144.587 135.401 145.117 135.961C146.479 137.4 148.273 139.296 149.931 141.292C151.079 142.675 152.147 144.089 152.945 145.408C153.751 146.741 154.246 147.923 154.316 148.852C154.471 150.918 154.264 152.46 153.817 153.433C153.596 153.913 153.328 154.231 153.039 154.417C152.757 154.6 152.422 154.679 152.016 154.629C150.461 154.438 148.814 153.702 148.195 153.361L147.859 153.177L147.593 153.453C147.329 153.727 146.133 154.374 144.151 152.893C142.007 151.291 140.655 150.494 140.217 150.286L139.591 149.988L139.506 150.676L137.18 169.545C137.155 169.75 137.051 169.882 136.829 169.994C136.579 170.119 136.228 170.19 135.81 170.241C135.69 170.256 135.56 170.269 135.426 170.283C135.141 170.312 134.843 170.343 134.609 170.39C134.432 170.426 134.229 170.482 134.056 170.586C133.869 170.699 133.682 170.894 133.646 171.192C133.628 171.335 133.613 171.554 133.596 171.801C133.587 171.931 133.577 172.069 133.567 172.207C133.534 172.628 133.488 173.096 133.41 173.529C133.33 173.973 133.225 174.332 133.094 174.56C132.973 174.772 132.903 174.762 132.88 174.758H132.877L132.848 174.754C132.246 174.68 131.244 174.556 130.343 174.794C129.873 174.918 129.406 175.145 129.033 175.547C128.658 175.952 128.411 176.497 128.324 177.199L125.24 202.221C125.112 203.26 124.507 203.976 123.632 204.415C122.741 204.862 121.577 205.014 120.42 204.871L113.036 203.961C112.956 203.951 112.804 203.903 112.579 203.795C112.365 203.692 112.122 203.553 111.871 203.396C111.371 203.083 110.869 202.718 110.563 202.479L110.187 202.185L109.876 202.547C109.23 203.298 107.654 205.093 106.518 206.274C106.216 206.588 105.707 206.931 105.051 207.268C104.404 207.601 103.646 207.912 102.876 208.173C102.107 208.434 101.335 208.642 100.66 208.772C99.9734 208.904 99.4307 208.947 99.1006 208.907C98.9899 208.893 98.8212 208.834 98.5917 208.702C98.3678 208.573 98.114 208.39 97.8383 208.161C97.2869 207.702 96.6815 207.086 96.0966 206.424C94.9177 205.091 93.8855 203.644 93.5804 203.037C93.5171 202.911 93.493 202.714 93.5554 202.421C93.617 202.133 93.7528 201.8 93.9408 201.45C94.3166 200.752 94.8567 200.064 95.238 199.649L95.4888 199.376L95.3004 199.057C94.1522 197.111 91.5377 192.53 90.2318 189.727C88.9021 186.872 88.084 184.368 87.6533 183.05C87.555 182.749 87.4769 182.51 87.4175 182.342C87.3809 182.239 87.3987 182.097 87.5783 181.887C87.7545 181.681 88.0123 181.507 88.1934 181.417L88.8994 181.062L88.2767 180.576C87.9968 180.357 87.5714 179.943 87.24 179.44C86.9039 178.929 86.7081 178.393 86.7681 177.907L88.1839 166.421C88.2256 166.083 88.1297 165.793 88.0154 165.555C87.9443 165.407 87.844 165.24 87.7543 165.091C87.7147 165.025 87.6772 164.963 87.6451 164.907C87.4163 164.508 87.2245 164.069 87.3073 163.398L87.9646 158.065L88.0919 157.033L87.2061 157.578C86.0753 158.275 84.308 159.394 82.678 160.489C81.0694 161.57 79.5335 162.668 78.9154 163.31C77.9167 164.348 76.4453 164.47 75.8529 164.397L75.3567 164.336L75.2955 164.832C75.2543 165.167 75.0916 165.625 74.7747 165.927C74.4925 166.197 74.0302 166.402 73.2196 166.162C72.0904 165.827 70.4879 164.931 69.0507 163.976C68.3392 163.504 67.6819 163.026 67.161 162.612C66.6267 162.188 66.2723 161.859 66.1331 161.681C65.8329 161.296 65.7411 160.99 65.7842 160.641C65.8324 160.249 66.0572 159.74 66.5599 158.984C67.5487 157.495 69.9152 154.911 73.7076 151.209C76.6321 148.354 82.6383 143.509 85.5112 141.259C85.9114 141.424 86.4234 141.588 86.8969 141.634C87.1911 141.662 87.5338 141.652 87.8328 141.509C88.1698 141.349 88.3966 141.047 88.4474 140.634C88.5915 139.466 89.1631 138.087 90.2715 137.53C90.9672 137.181 91.6822 136.722 92.2441 136.234C92.525 135.99 92.7781 135.729 92.9717 135.462C93.1617 135.201 93.3188 134.899 93.3585 134.577C93.4096 134.162 93.5073 133.376 93.6876 132.71C93.7791 132.373 93.8814 132.107 93.9862 131.942C94.0236 131.883 94.0508 131.851 94.0672 131.836C94.3368 131.862 94.614 131.823 94.8468 131.665C95.101 131.492 95.2288 131.229 95.2619 130.959C95.3236 130.459 95.0766 129.89 94.6836 129.387C94.4744 129.119 94.3458 128.716 94.2852 128.274C94.2258 127.84 94.2398 127.427 94.2687 127.193L94.3132 126.832L93.983 126.678C91.9755 125.746 88.6883 123.938 85.3847 121.555C82.0756 119.167 78.7873 116.23 76.7392 113.05C74.1328 109.002 72.2176 105.25 70.981 102.313C70.3625 100.844 69.9163 99.5845 69.6381 98.5983C69.3523 97.5853 69.2648 96.9303 69.3018 96.6307C69.3759 96.0295 69.0714 95.4473 68.758 94.9161C68.6589 94.7482 68.5537 94.5776 68.4442 94.4002C68.1763 93.9658 67.8831 93.4906 67.5932 92.9132C66.7978 91.3292 66.0724 89.0456 66.5144 85.4597C67.2314 79.6432 69.3778 77.7577 69.7901 77.5212ZM94.086 131.822C94.0859 131.823 94.0831 131.825 94.0775 131.827C94.0832 131.823 94.086 131.822 94.086 131.822Z" stroke="#AAA6D7"/>
<defs>
<linearGradient id="paint0_linear_2593_34832" x1="73.3999" y1="77.3928" x2="99.3259" y2="77.3928" gradientUnits="userSpaceOnUse">
<stop stop-color="#F296D2"/>
<stop offset="1" stop-color="#FFB483"/>
</linearGradient>
<linearGradient id="paint1_linear_2593_34832" x1="97.8067" y1="73.4056" x2="140.034" y2="73.4056" gradientUnits="userSpaceOnUse">
<stop stop-color="#F296D2"/>
<stop offset="1" stop-color="#FFB483"/>
</linearGradient>
</defs>
</svg>
