<svg width="1440" height="1611" viewBox="0 0 1440 1611" fill="none" xmlns="http://www.w3.org/2000/svg">
<g opacity="0.05">
<path d="M725.515 1029.94C874.371 1105.88 986.433 1077.17 1059.6 1047.17C1188.74 994.238 1328.25 920.711 1413.82 883.965C1499.23 847.289 1747.23 772.694 1851.99 607.257C2018.09 344.951 1865.27 268.097 1733.07 164.102C1623.74 78.0988 1744.91 -275.912 1540.04 -356.463C1375.09 -421.32 1142.1 -177.002 1037.68 158.465C933.266 493.931 780.121 434.563 615.016 572.316C449.911 710.07 539.445 935.005 725.515 1029.94Z" stroke="#F2F1FB" stroke-width="2"/>
<path d="M771.611 976.285C890.552 1037.2 1016.15 1017.2 1074.55 993.28C1177.61 951.059 1297.95 890.019 1366.24 860.705C1434.4 831.448 1683.33 745.013 1766.81 612.757C1899.18 403.06 1853.97 306.033 1678.53 232.131C1502.68 158.057 1654 -71.1216 1548.67 -138.411C1429.26 -214.692 1309.18 -105.787 1187.23 147.2C1007.79 519.44 819.359 462.814 687.66 572.86C500.617 729.15 622.936 900.146 771.611 976.285Z" stroke="#F2F1FB" stroke-width="2"/>
<path d="M1000.22 947.075C860.698 949.265 789.221 854.019 770.922 806.122C675.175 579.062 954.343 501.642 1058.49 411.934C1142.1 339.925 1149.1 277.852 1249.61 137.375C1329.37 25.8872 1469.97 -22.3137 1531.62 174.934C1577.16 320.625 1682.89 209.372 1752.51 330.372C1822 451.146 1730.09 603.492 1641.79 674.065C1508.07 780.933 1425.3 749.148 1312.76 804.288C1233.45 843.143 1174.62 944.338 1000.22 947.075Z" stroke="#F2F1FB" stroke-width="2"/>
<path d="M1044.36 878.922C929.618 897.92 882.948 834.324 856.249 779.823C831.742 729.796 808.468 577.304 964.331 504.587C1183.1 402.521 1141.39 380.687 1218.91 338.458C1284.19 302.898 1340.67 376.082 1452.81 425.514C1501.33 446.902 1540.08 413.739 1590.18 378.853C1651.85 335.917 1703.56 367.615 1685.22 435.676C1616.87 689.293 1508.83 687.546 1359.1 719.548C1209.38 751.549 1187.79 855.173 1044.36 878.922Z" stroke="#F2F1FB" stroke-width="2"/>
</g>
</svg>
