<svg width="20" height="20" viewBox="0 0 20 20" fill="none" xmlns="http://www.w3.org/2000/svg">
<path d="M5.291 18.824L-3.97229e-06 20L1.176 14.709C0.401528 13.2604 -0.00247711 11.6426 -3.97229e-06 10C-3.97229e-06 4.477 4.477 0 10 0C15.523 0 20 4.477 20 10C20 15.523 15.523 20 10 20C8.35735 20.0025 6.73961 19.5985 5.291 18.824ZM5.581 16.711L6.234 17.061C7.39255 17.6801 8.68639 18.0027 10 18C11.5822 18 13.129 17.5308 14.4446 16.6518C15.7602 15.7727 16.7855 14.5233 17.391 13.0615C17.9965 11.5997 18.155 9.99113 17.8463 8.43928C17.5376 6.88743 16.7757 5.46197 15.6569 4.34315C14.538 3.22433 13.1126 2.4624 11.5607 2.15372C10.0089 1.84504 8.40034 2.00346 6.93853 2.60896C5.47672 3.21447 4.22729 4.23984 3.34824 5.55544C2.46919 6.87103 2 8.41775 2 10C2 11.334 2.325 12.618 2.94 13.766L3.289 14.419L2.634 17.366L5.581 16.711Z" fill="#19172F"/>
</svg>
